{"glyphs":{"0":{"ha":833,"x_min":0,"x_max":0,"o":"m 417 -22 b 64 492 199 -22 64 178 b 417 1008 64 807 199 1008 b 769 492 635 1008 769 807 b 417 -22 769 178 635 -22 m 207 492 b 236 274 207 407 217 333 l 536 824 b 417 879 504 860 464 879 b 207 492 288 879 207 732 m 296 164 b 417 107 329 126 369 107 b 626 492 546 107 626 254 b 596 715 626 579 615 656 l 296 164 "},"1":{"ha":833,"x_min":0,"x_max":0,"o":"m 374 129 l 374 711 l 128 711 l 128 825 l 239 825 b 400 986 351 825 400 874 l 510 986 l 510 129 l 776 129 l 776 0 l 81 0 l 81 129 "},"2":{"ha":833,"x_min":0,"x_max":0,"o":"m 86 688 b 440 1008 108 872 240 1008 b 761 722 626 1008 761 886 b 507 394 761 581 651 482 b 238 129 431 351 246 225 l 768 129 l 768 0 l 68 0 b 440 513 68 293 258 399 b 618 724 543 578 618 647 b 440 879 618 814 546 879 b 228 678 328 879 251 804 l 86 688 "},"3":{"ha":833,"x_min":0,"x_max":0,"o":"m 407 588 b 592 746 496 586 592 628 b 410 879 592 826 525 879 b 235 757 315 879 246 831 l 92 765 b 410 1008 110 908 242 1008 b 733 750 603 1008 733 903 b 558 533 733 640 674 567 b 767 272 696 494 767 396 b 410 -22 767 100 624 -22 b 60 260 215 -22 68 90 l 201 268 b 410 107 211 156 317 107 b 625 282 542 107 625 176 b 407 461 625 394 540 464 l 336 460 l 336 589 l 407 588 "},"4":{"ha":833,"x_min":0,"x_max":0,"o":"m 681 325 l 789 325 l 789 194 l 681 194 l 681 0 l 544 0 l 544 194 l 40 194 l 40 328 l 529 986 l 681 986 m 544 325 l 544 781 l 204 325 "},"5":{"ha":833,"x_min":0,"x_max":0,"o":"m 711 857 l 289 857 l 250 576 b 447 657 294 628 375 657 b 764 318 628 657 764 515 b 419 -22 764 118 622 -22 b 79 258 242 -22 93 100 l 221 267 b 432 107 236 169 318 107 b 621 318 542 107 621 194 b 415 529 621 444 535 529 b 239 426 340 529 264 486 l 94 426 l 172 986 l 711 986 "},"6":{"ha":833,"x_min":0,"x_max":0,"o":"m 631 760 b 453 879 603 835 539 879 b 210 551 317 879 232 764 b 446 672 264 628 349 672 b 775 328 642 672 775 531 b 424 -22 775 114 631 -22 b 171 90 331 -22 240 13 b 69 435 103 164 69 286 b 451 1008 69 733 165 1008 b 771 769 604 1008 728 922 l 631 760 m 218 328 b 426 107 215 199 303 107 b 632 328 547 107 632 199 b 436 542 632 454 551 542 b 218 328 311 542 219 454 "},"7":{"ha":833,"x_min":0,"x_max":0,"o":"m 785 986 l 785 860 b 457 0 590 622 457 326 l 313 0 b 638 857 314 319 443 614 l 82 857 l 82 986 "},"8":{"ha":833,"x_min":0,"x_max":0,"o":"m 417 -22 b 61 271 213 -22 61 90 b 254 535 61 394 135 490 b 107 738 161 572 107 638 b 417 1008 107 894 240 1008 b 726 738 594 1008 726 894 b 579 535 726 638 671 572 b 772 271 699 489 772 393 b 417 -22 772 90 621 -22 m 204 283 b 417 107 204 181 292 107 b 629 283 542 107 629 181 b 417 460 629 389 542 460 b 204 283 292 460 204 389 m 250 733 b 417 590 250 650 318 590 b 583 733 515 590 583 650 b 417 879 583 819 515 879 b 250 733 318 879 250 819 "},"9":{"ha":833,"x_min":0,"x_max":0,"o":"m 203 226 b 381 107 231 151 294 107 b 624 435 517 107 601 222 b 388 314 569 358 485 314 b 58 658 192 314 58 456 b 410 1008 58 872 203 1008 b 663 896 503 1008 593 974 b 764 551 731 822 764 700 b 382 -22 764 253 668 -22 b 63 217 229 -22 106 64 l 203 226 m 201 658 b 397 444 201 532 282 444 b 615 658 522 444 614 532 b 407 879 618 788 531 879 b 201 658 286 879 201 788 "}," ":{"ha":833,"x_min":0,"x_max":0,"o":""},"A":{"ha":833,"x_min":0,"x_max":0,"o":"m 332 986 l 501 986 l 800 0 l 660 0 l 585 260 l 249 260 l 174 0 l 33 0 m 550 379 l 417 836 l 283 379 "},"Á":{"ha":833,"x_min":0,"x_max":0,"o":"m 332 986 l 501 986 l 800 0 l 660 0 l 585 260 l 249 260 l 174 0 l 33 0 m 550 379 l 417 836 l 283 379 m 450 1304 l 589 1304 l 471 1096 l 363 1096 "},"Ă":{"ha":833,"x_min":0,"x_max":0,"o":"m 332 986 l 501 986 l 800 0 l 660 0 l 585 260 l 249 260 l 174 0 l 33 0 m 315 1275 b 417 1186 315 1225 360 1186 b 521 1275 475 1186 519 1225 l 619 1275 b 417 1097 618 1175 531 1097 b 215 1275 304 1097 217 1175 m 550 379 l 417 836 l 283 379 "},"Ǎ":{"ha":833,"x_min":0,"x_max":0,"o":"m 332 986 l 501 986 l 800 0 l 660 0 l 585 260 l 249 260 l 174 0 l 33 0 m 342 1263 l 417 1157 l 492 1263 l 621 1263 l 500 1096 l 333 1096 l 214 1263 m 550 379 l 417 836 l 283 379 "},"Â":{"ha":833,"x_min":0,"x_max":0,"o":"m 332 986 l 501 986 l 800 0 l 660 0 l 585 260 l 249 260 l 174 0 l 33 0 m 332 1263 l 499 1263 l 619 1096 l 490 1096 l 415 1201 l 340 1096 l 213 1096 m 550 379 l 417 836 l 283 379 "},"Ä":{"ha":833,"x_min":0,"x_max":0,"o":"m 332 986 l 501 986 l 800 0 l 660 0 l 585 260 l 249 260 l 174 0 l 33 0 m 210 1235 l 356 1235 l 356 1090 l 210 1090 m 550 379 l 417 836 l 283 379 m 475 1235 l 621 1235 l 621 1090 l 475 1090 "},"À":{"ha":833,"x_min":0,"x_max":0,"o":"m 332 986 l 501 986 l 800 0 l 660 0 l 585 260 l 249 260 l 174 0 l 33 0 m 383 1304 l 471 1096 l 363 1096 l 244 1304 m 550 379 l 417 836 l 283 379 "},"Ā":{"ha":833,"x_min":0,"x_max":0,"o":"m 332 986 l 501 986 l 800 0 l 660 0 l 585 260 l 249 260 l 174 0 l 33 0 m 235 1214 l 597 1214 l 597 1117 l 235 1117 m 550 379 l 417 836 l 283 379 "},"Ą":{"ha":833,"x_min":0,"x_max":0,"o":"m 332 986 l 501 986 l 800 0 l 788 0 l 747 -57 b 704 -147 728 -85 704 -119 b 750 -194 704 -174 724 -194 b 836 -165 775 -194 807 -179 l 836 -261 b 725 -300 803 -289 763 -300 b 600 -181 657 -299 600 -249 b 654 -54 600 -136 617 -93 l 703 0 l 660 0 l 585 260 l 249 260 l 174 0 l 33 0 m 550 379 l 417 836 l 283 379 "},"Å":{"ha":833,"x_min":0,"x_max":0,"o":"m 332 986 l 501 986 l 800 0 l 660 0 l 585 260 l 249 260 l 174 0 l 33 0 m 272 1206 b 417 1350 272 1285 336 1350 b 560 1206 497 1350 560 1285 b 417 1063 560 1125 497 1063 b 272 1206 336 1063 272 1125 m 550 379 l 417 836 l 283 379 m 360 1206 b 417 1150 360 1175 385 1150 b 472 1206 449 1150 472 1175 b 417 1263 472 1238 449 1263 b 360 1206 385 1263 360 1238 "},"Ã":{"ha":833,"x_min":0,"x_max":0,"o":"m 332 986 l 501 986 l 800 0 l 660 0 l 585 260 l 249 260 l 174 0 l 33 0 m 182 1096 b 322 1279 183 1210 238 1279 b 422 1242 371 1279 399 1265 b 503 1188 451 1215 467 1188 b 557 1278 539 1188 557 1218 l 651 1278 b 510 1093 650 1167 596 1093 b 403 1140 456 1093 426 1115 b 331 1185 379 1163 361 1185 b 276 1096 296 1185 276 1157 l 182 1096 m 550 379 l 417 836 l 283 379 "},"Æ":{"ha":833,"x_min":0,"x_max":0,"o":"m 804 986 l 804 857 l 581 857 l 581 557 l 794 557 l 794 432 l 581 432 l 581 129 l 811 129 l 811 0 l 446 0 l 446 275 l 236 275 l 150 0 l 13 0 l 338 986 m 446 403 l 446 861 l 421 861 l 275 403 "},"B":{"ha":833,"x_min":0,"x_max":0,"o":"m 103 986 l 379 986 b 733 713 608 986 733 889 b 549 510 733 606 660 526 b 775 279 689 494 775 410 b 435 0 775 106 647 0 l 103 0 m 432 129 b 632 283 557 129 632 186 b 432 438 632 381 561 438 l 240 438 l 240 129 m 381 565 b 590 710 517 565 590 617 b 381 857 590 803 517 857 l 240 857 l 240 565 "},"C":{"ha":833,"x_min":0,"x_max":0,"o":"m 790 333 b 436 -22 756 113 624 -22 b 50 492 190 -22 50 176 b 436 1008 50 810 190 1008 b 783 674 613 1008 743 883 l 639 665 b 435 879 608 807 533 879 b 193 492 279 879 193 740 b 435 107 193 244 279 107 b 647 340 543 107 619 185 l 790 333 "},"Ć":{"ha":833,"x_min":0,"x_max":0,"o":"m 790 333 b 436 -22 756 113 624 -22 b 50 492 190 -22 50 176 b 436 1008 50 810 190 1008 b 783 674 613 1008 743 883 l 639 665 b 435 879 608 807 533 879 b 193 492 279 879 193 740 b 435 107 193 244 279 107 b 647 340 543 107 619 185 l 790 333 m 469 1304 l 608 1304 l 490 1096 l 382 1096 "},"Č":{"ha":833,"x_min":0,"x_max":0,"o":"m 790 333 b 436 -22 756 113 624 -22 b 50 492 190 -22 50 176 b 436 1008 50 810 190 1008 b 783 674 613 1008 743 883 l 639 665 b 435 879 608 807 533 879 b 193 492 279 879 193 740 b 435 107 193 244 279 107 b 647 340 543 107 619 185 l 790 333 m 361 1263 l 436 1157 l 511 1263 l 640 1263 l 519 1096 l 353 1096 l 233 1263 "},"Ç":{"ha":833,"x_min":0,"x_max":0,"o":"m 790 333 b 460 -21 757 122 635 -11 l 435 -49 b 569 -178 513 -49 569 -103 b 428 -312 569 -254 506 -312 b 257 -215 360 -312 313 -281 l 322 -156 b 421 -225 342 -181 374 -225 b 483 -168 458 -225 483 -203 b 382 -119 483 -125 436 -106 l 340 -65 l 382 -19 b 50 492 169 8 50 200 b 436 1008 50 810 190 1008 b 783 674 613 1008 743 883 l 639 665 b 435 879 608 807 533 879 b 193 492 279 879 193 740 b 435 107 193 244 279 107 b 647 340 543 107 619 185 l 790 333 "},"Ĉ":{"ha":833,"x_min":0,"x_max":0,"o":"m 790 333 b 436 -22 756 113 624 -22 b 50 492 190 -22 50 176 b 436 1008 50 810 190 1008 b 783 674 613 1008 743 883 l 639 665 b 435 879 608 807 533 879 b 193 492 279 879 193 740 b 435 107 193 244 279 107 b 647 340 543 107 619 185 l 790 333 m 353 1263 l 519 1263 l 640 1096 l 511 1096 l 436 1201 l 361 1096 l 233 1096 "},"Ċ":{"ha":833,"x_min":0,"x_max":0,"o":"m 790 333 b 436 -22 756 113 624 -22 b 50 492 190 -22 50 176 b 436 1008 50 810 190 1008 b 783 674 613 1008 743 883 l 639 665 b 435 879 608 807 533 879 b 193 492 279 879 193 740 b 435 107 193 244 279 107 b 647 340 543 107 619 185 l 790 333 m 363 1236 l 508 1236 l 508 1092 l 363 1092 "},"D":{"ha":833,"x_min":0,"x_max":0,"o":"m 349 986 b 794 492 625 986 794 807 b 357 0 794 178 629 0 l 100 0 l 100 986 l 349 986 m 349 129 b 651 492 543 129 651 250 b 349 857 651 736 543 857 l 236 857 l 236 129 "},"Ð":{"ha":833,"x_min":0,"x_max":0,"o":"m 154 546 l 154 986 l 403 986 b 849 492 679 986 849 807 b 411 0 849 178 683 0 l 154 0 l 154 439 l -12 439 l -12 546 m 403 129 b 706 492 597 129 706 250 b 403 857 706 736 597 857 l 290 857 l 290 546 l 436 546 l 436 439 l 290 439 l 290 129 "},"Ď":{"ha":833,"x_min":0,"x_max":0,"o":"m 349 986 b 794 492 625 986 794 807 b 357 0 794 178 629 0 l 100 0 l 100 986 l 349 986 m 347 1263 l 422 1157 l 497 1263 l 626 1263 l 506 1096 l 339 1096 l 219 1263 m 349 129 b 651 492 543 129 651 250 b 349 857 651 736 543 857 l 236 857 l 236 129 "},"Đ":{"ha":833,"x_min":0,"x_max":0,"o":"m 154 546 l 154 986 l 403 986 b 849 492 679 986 849 807 b 411 0 849 178 683 0 l 154 0 l 154 439 l -12 439 l -12 546 m 403 129 b 706 492 597 129 706 250 b 403 857 706 736 597 857 l 290 857 l 290 546 l 436 546 l 436 439 l 290 439 l 290 129 "},"E":{"ha":833,"x_min":0,"x_max":0,"o":"m 746 986 l 746 857 l 254 857 l 254 558 l 729 558 l 729 431 l 254 431 l 254 129 l 757 129 l 757 0 l 118 0 l 118 986 "},"É":{"ha":833,"x_min":0,"x_max":0,"o":"m 746 986 l 746 857 l 254 857 l 254 558 l 729 558 l 729 431 l 254 431 l 254 129 l 757 129 l 757 0 l 118 0 l 118 986 m 471 1306 l 610 1306 l 492 1097 l 383 1097 "},"Ě":{"ha":833,"x_min":0,"x_max":0,"o":"m 746 986 l 746 857 l 254 857 l 254 558 l 729 558 l 729 431 l 254 431 l 254 129 l 757 129 l 757 0 l 118 0 l 118 986 m 364 1264 l 439 1158 l 514 1264 l 643 1264 l 522 1097 l 356 1097 l 236 1264 "},"Ê":{"ha":833,"x_min":0,"x_max":0,"o":"m 746 986 l 746 857 l 254 857 l 254 558 l 729 558 l 729 431 l 254 431 l 254 129 l 757 129 l 757 0 l 118 0 l 118 986 m 354 1264 l 521 1264 l 642 1097 l 513 1097 l 438 1203 l 363 1097 l 235 1097 "},"Ë":{"ha":833,"x_min":0,"x_max":0,"o":"m 746 986 l 746 857 l 254 857 l 254 558 l 729 558 l 729 431 l 254 431 l 254 129 l 757 129 l 757 0 l 118 0 l 118 986 m 232 1236 l 378 1236 l 378 1092 l 232 1092 m 497 1236 l 643 1236 l 643 1092 l 497 1092 "},"Ė":{"ha":833,"x_min":0,"x_max":0,"o":"m 746 986 l 746 857 l 254 857 l 254 558 l 729 558 l 729 431 l 254 431 l 254 129 l 757 129 l 757 0 l 118 0 l 118 986 m 365 1238 l 511 1238 l 511 1093 l 365 1093 "},"È":{"ha":833,"x_min":0,"x_max":0,"o":"m 746 986 l 746 857 l 254 857 l 254 558 l 729 558 l 729 431 l 254 431 l 254 129 l 757 129 l 757 0 l 118 0 l 118 986 m 406 1306 l 493 1097 l 385 1097 l 267 1306 "},"Ē":{"ha":833,"x_min":0,"x_max":0,"o":"m 746 986 l 746 857 l 254 857 l 254 558 l 729 558 l 729 431 l 254 431 l 254 129 l 757 129 l 757 0 l 118 0 l 118 986 m 257 1215 l 619 1215 l 619 1118 l 257 1118 "},"Ę":{"ha":833,"x_min":0,"x_max":0,"o":"m 746 986 l 746 857 l 254 857 l 254 558 l 729 558 l 729 431 l 254 431 l 254 129 l 757 129 l 757 0 l 744 0 l 704 -57 b 661 -147 685 -85 661 -119 b 707 -194 661 -174 681 -194 b 793 -165 732 -194 764 -179 l 793 -261 b 682 -300 760 -289 719 -300 b 557 -181 614 -299 557 -249 b 611 -54 557 -136 574 -93 l 660 0 l 118 0 l 118 986 "},"Ẽ":{"ha":833,"x_min":0,"x_max":0,"o":"m 746 986 l 746 857 l 254 857 l 254 558 l 729 558 l 729 431 l 254 431 l 254 129 l 757 129 l 757 0 l 118 0 l 118 986 m 204 1097 b 344 1281 206 1211 260 1281 b 444 1243 393 1281 421 1267 b 525 1189 474 1217 489 1189 b 579 1279 561 1189 579 1219 l 674 1279 b 532 1094 672 1168 618 1094 b 425 1142 478 1094 449 1117 b 353 1186 401 1164 383 1186 b 299 1097 318 1186 299 1158 l 204 1097 "},"Ə":{"ha":833,"x_min":0,"x_max":0,"o":"m 650 547 b 407 879 638 743 543 879 b 207 693 313 879 236 801 l 64 708 b 407 1008 118 890 249 1008 b 794 493 642 1008 794 797 b 407 -22 794 200 632 -22 b 40 476 192 -22 46 182 l 39 547 l 650 547 m 188 417 b 407 107 210 221 286 107 b 649 417 538 107 621 221 l 188 417 "},"Ʒ":{"ha":833,"x_min":0,"x_max":0,"o":"m 60 275 b 393 107 161 172 289 107 b 622 282 529 107 622 179 b 394 460 622 389 531 461 l 319 458 l 319 585 l 583 857 l 61 857 l 61 986 l 750 986 l 750 836 l 493 574 b 765 282 654 554 765 435 b 393 -22 765 103 615 -22 b 60 115 269 -22 142 31 l 60 275 "},"Ǯ":{"ha":833,"x_min":0,"x_max":0,"o":"m 60 275 b 393 107 161 172 289 107 b 622 282 529 107 622 179 b 394 460 622 389 531 461 l 319 458 l 319 585 l 583 857 l 61 857 l 61 986 l 750 986 l 750 836 l 493 574 b 765 282 654 554 765 435 b 393 -22 765 103 615 -22 b 60 115 269 -22 142 31 l 60 275 m 328 1263 l 403 1157 l 478 1263 l 607 1263 l 486 1096 l 319 1096 l 200 1263 "},"F":{"ha":833,"x_min":0,"x_max":0,"o":"m 742 986 l 742 857 l 265 857 l 265 546 l 717 546 l 717 419 l 265 419 l 265 0 l 128 0 l 128 986 "},"G":{"ha":833,"x_min":0,"x_max":0,"o":"m 685 0 l 668 135 b 425 -22 624 39 531 -22 b 47 492 194 -22 47 178 b 425 1008 47 807 194 1008 b 776 690 597 1008 732 882 l 633 681 b 426 879 604 799 524 879 b 190 492 275 879 190 738 b 426 107 190 247 275 107 b 643 376 549 107 633 224 l 424 376 l 424 501 l 774 501 l 774 0 "},"Ğ":{"ha":833,"x_min":0,"x_max":0,"o":"m 685 0 l 668 135 b 425 -22 624 39 531 -22 b 47 492 194 -22 47 178 b 425 1008 47 807 194 1008 b 776 690 597 1008 732 882 l 633 681 b 426 879 604 799 524 879 b 190 492 275 879 190 738 b 426 107 190 247 275 107 b 643 376 549 107 633 224 l 424 376 l 424 501 l 774 501 l 774 0 m 314 1275 b 415 1186 314 1225 358 1186 b 519 1275 474 1186 518 1225 l 618 1275 b 415 1097 617 1175 529 1097 b 214 1275 303 1097 215 1175 "},"Ǧ":{"ha":833,"x_min":0,"x_max":0,"o":"m 685 0 l 668 135 b 425 -22 624 39 531 -22 b 47 492 194 -22 47 178 b 425 1008 47 807 194 1008 b 776 690 597 1008 732 882 l 633 681 b 426 879 604 799 524 879 b 190 492 275 879 190 738 b 426 107 190 247 275 107 b 643 376 549 107 633 224 l 424 376 l 424 501 l 774 501 l 774 0 m 343 1263 l 418 1157 l 493 1263 l 622 1263 l 501 1096 l 335 1096 l 215 1263 "},"Ĝ":{"ha":833,"x_min":0,"x_max":0,"o":"m 685 0 l 668 135 b 425 -22 624 39 531 -22 b 47 492 194 -22 47 178 b 425 1008 47 807 194 1008 b 776 690 597 1008 732 882 l 633 681 b 426 879 604 799 524 879 b 190 492 275 879 190 738 b 426 107 190 247 275 107 b 643 376 549 107 633 224 l 424 376 l 424 501 l 774 501 l 774 0 m 333 1263 l 500 1263 l 621 1096 l 492 1096 l 417 1201 l 342 1096 l 214 1096 "},"Ģ":{"ha":833,"x_min":0,"x_max":0,"o":"m 685 0 l 668 135 b 425 -22 624 39 531 -22 b 47 492 194 -22 47 178 b 425 1008 47 807 194 1008 b 776 690 597 1008 732 882 l 633 681 b 426 879 604 799 524 879 b 190 492 275 879 190 738 b 426 107 190 247 275 107 b 643 376 549 107 633 224 l 424 376 l 424 501 l 774 501 l 774 0 m 350 -83 l 489 -83 l 371 -292 l 263 -292 "},"Ġ":{"ha":833,"x_min":0,"x_max":0,"o":"m 685 0 l 668 135 b 425 -22 624 39 531 -22 b 47 492 194 -22 47 178 b 425 1008 47 807 194 1008 b 776 690 597 1008 732 882 l 633 681 b 426 879 604 799 524 879 b 190 492 275 879 190 738 b 426 107 190 247 275 107 b 643 376 549 107 633 224 l 424 376 l 424 501 l 774 501 l 774 0 m 343 1236 l 489 1236 l 489 1092 l 343 1092 "},"Ḡ":{"ha":833,"x_min":0,"x_max":0,"o":"m 685 0 l 668 135 b 425 -22 624 39 531 -22 b 47 492 194 -22 47 178 b 425 1008 47 807 194 1008 b 776 690 597 1008 732 882 l 633 681 b 426 879 604 799 524 879 b 190 492 275 879 190 738 b 426 107 190 247 275 107 b 643 376 549 107 633 224 l 424 376 l 424 501 l 774 501 l 774 0 m 236 1214 l 599 1214 l 599 1117 l 236 1117 "},"Ǥ":{"ha":833,"x_min":0,"x_max":0,"o":"m 788 501 l 788 443 b 776 310 788 396 783 351 l 821 310 l 821 208 l 749 208 b 418 -22 692 61 576 -22 b 28 492 188 -22 28 201 b 418 1008 28 783 186 1008 b 782 690 601 1008 738 879 l 639 681 b 418 879 608 799 525 879 b 171 492 258 879 171 701 b 418 107 171 283 260 107 b 603 208 500 107 564 144 l 417 208 l 417 310 l 639 310 b 644 382 643 332 644 357 l 417 382 l 417 501 "},"H":{"ha":833,"x_min":0,"x_max":0,"o":"m 90 986 l 226 986 l 226 560 l 607 560 l 607 986 l 743 986 l 743 0 l 607 0 l 607 431 l 226 431 l 226 0 l 90 0 "},"Ħ":{"ha":833,"x_min":0,"x_max":0,"o":"m 258 986 l 258 849 l 575 849 l 575 986 l 711 986 l 711 849 l 801 849 l 801 718 l 711 718 l 711 0 l 575 0 l 575 417 l 258 417 l 258 0 l 122 0 l 122 718 l 32 718 l 32 849 l 122 849 l 122 986 m 575 546 l 575 718 l 258 718 l 258 546 "},"Ĥ":{"ha":833,"x_min":0,"x_max":0,"o":"m 90 986 l 226 986 l 226 560 l 607 560 l 607 986 l 743 986 l 743 0 l 607 0 l 607 431 l 226 431 l 226 0 l 90 0 m 332 1263 l 499 1263 l 619 1096 l 490 1096 l 415 1201 l 340 1096 l 213 1096 "},"I":{"ha":833,"x_min":0,"x_max":0,"o":"m 708 857 l 485 857 l 485 129 l 715 129 l 715 0 l 118 0 l 118 129 l 349 129 l 349 857 l 125 857 l 125 986 l 708 986 "},"Í":{"ha":833,"x_min":0,"x_max":0,"o":"m 708 857 l 485 857 l 485 129 l 715 129 l 715 0 l 118 0 l 118 129 l 349 129 l 349 857 l 125 857 l 125 986 l 708 986 m 450 1304 l 589 1304 l 471 1096 l 363 1096 "},"Î":{"ha":833,"x_min":0,"x_max":0,"o":"m 708 857 l 485 857 l 485 129 l 715 129 l 715 0 l 118 0 l 118 129 l 349 129 l 349 857 l 125 857 l 125 986 l 708 986 m 332 1263 l 499 1263 l 619 1096 l 490 1096 l 415 1201 l 340 1096 l 213 1096 "},"Ï":{"ha":833,"x_min":0,"x_max":0,"o":"m 708 857 l 485 857 l 485 129 l 715 129 l 715 0 l 118 0 l 118 129 l 349 129 l 349 857 l 125 857 l 125 986 l 708 986 m 210 1235 l 356 1235 l 356 1090 l 210 1090 m 475 1235 l 621 1235 l 621 1090 l 475 1090 "},"İ":{"ha":833,"x_min":0,"x_max":0,"o":"m 708 857 l 485 857 l 485 129 l 715 129 l 715 0 l 118 0 l 118 129 l 349 129 l 349 857 l 125 857 l 125 986 l 708 986 m 343 1236 l 489 1236 l 489 1092 l 343 1092 "},"Ì":{"ha":833,"x_min":0,"x_max":0,"o":"m 708 857 l 485 857 l 485 129 l 715 129 l 715 0 l 118 0 l 118 129 l 349 129 l 349 857 l 125 857 l 125 986 l 708 986 m 383 1304 l 471 1096 l 363 1096 l 244 1304 "},"Ī":{"ha":833,"x_min":0,"x_max":0,"o":"m 708 857 l 485 857 l 485 129 l 715 129 l 715 0 l 118 0 l 118 129 l 349 129 l 349 857 l 125 857 l 125 986 l 708 986 m 235 1214 l 597 1214 l 597 1117 l 235 1117 "},"Į":{"ha":833,"x_min":0,"x_max":0,"o":"m 708 857 l 485 857 l 485 129 l 715 129 l 715 0 l 717 0 l 676 -57 b 633 -147 657 -85 633 -119 b 679 -194 633 -174 653 -194 b 765 -165 704 -194 736 -179 l 765 -261 b 654 -300 732 -289 692 -300 b 529 -181 586 -299 529 -249 b 583 -54 529 -136 546 -93 l 632 0 l 118 0 l 118 129 l 349 129 l 349 857 l 125 857 l 125 986 l 708 986 "},"Ĩ":{"ha":833,"x_min":0,"x_max":0,"o":"m 708 857 l 485 857 l 485 129 l 715 129 l 715 0 l 118 0 l 118 129 l 349 129 l 349 857 l 125 857 l 125 986 l 708 986 m 182 1096 b 322 1279 183 1210 238 1279 b 422 1242 371 1279 399 1265 b 503 1188 451 1215 467 1188 b 557 1278 539 1188 557 1218 l 651 1278 b 510 1093 650 1167 596 1093 b 403 1140 456 1093 426 1115 b 331 1185 379 1163 361 1185 b 276 1096 296 1185 276 1157 l 182 1096 "},"J":{"ha":833,"x_min":0,"x_max":0,"o":"m 189 340 b 378 107 189 190 254 107 b 572 346 508 107 572 192 l 572 986 l 708 986 l 708 346 b 378 -22 708 118 588 -22 b 47 329 178 -22 49 121 l 189 340 "},"Ĵ":{"ha":833,"x_min":0,"x_max":0,"o":"m 189 340 b 378 107 189 190 254 107 b 572 346 508 107 572 192 l 572 986 l 708 986 l 708 346 b 378 -22 708 118 588 -22 b 47 329 178 -22 49 121 l 189 340 m 557 1263 l 724 1263 l 844 1096 l 715 1096 l 640 1201 l 565 1096 l 438 1096 "},"K":{"ha":833,"x_min":0,"x_max":0,"o":"m 208 986 l 208 571 l 599 986 l 769 986 l 386 564 l 794 0 l 631 0 l 292 464 l 208 379 l 208 0 l 72 0 l 72 986 "},"Ǩ":{"ha":833,"x_min":0,"x_max":0,"o":"m 208 986 l 208 571 l 599 986 l 769 986 l 386 564 l 794 0 l 631 0 l 292 464 l 208 379 l 208 0 l 72 0 l 72 986 m 325 1263 l 400 1157 l 475 1263 l 604 1263 l 483 1096 l 317 1096 l 197 1263 "},"Ķ":{"ha":833,"x_min":0,"x_max":0,"o":"m 208 986 l 208 571 l 599 986 l 769 986 l 386 564 l 794 0 l 631 0 l 292 464 l 208 379 l 208 0 l 72 0 l 72 986 m 333 -83 l 472 -83 l 354 -292 l 246 -292 "},"L":{"ha":833,"x_min":0,"x_max":0,"o":"m 124 986 l 260 986 l 260 129 l 767 129 l 767 0 l 124 0 "},"Ĺ":{"ha":833,"x_min":0,"x_max":0,"o":"m 124 986 l 260 986 l 260 129 l 767 129 l 767 0 l 124 0 m 224 1304 l 363 1304 l 244 1096 l 136 1096 "},"Ľ":{"ha":833,"x_min":0,"x_max":0,"o":"m 124 986 l 260 986 l 260 129 l 767 129 l 767 0 l 124 0 m 486 815 l 414 815 l 414 986 l 589 986 l 589 815 l 488 593 l 413 593 "},"Ļ":{"ha":833,"x_min":0,"x_max":0,"o":"m 124 986 l 260 986 l 260 129 l 767 129 l 767 0 l 124 0 m 379 -83 l 518 -83 l 400 -292 l 292 -292 "},"Ł":{"ha":833,"x_min":0,"x_max":0,"o":"m 147 597 l 147 986 l 283 986 l 283 661 l 413 722 l 465 610 l 283 525 l 283 129 l 790 129 l 790 0 l 147 0 l 147 461 l 15 399 l -37 511 "},"M":{"ha":833,"x_min":0,"x_max":0,"o":"m 286 986 l 417 308 l 547 986 l 753 986 l 753 0 l 617 0 l 617 813 l 471 69 l 363 69 l 217 811 l 217 0 l 81 0 l 81 986 "},"N":{"ha":833,"x_min":0,"x_max":0,"o":"m 282 986 l 594 197 l 594 986 l 732 986 l 732 0 l 539 0 l 239 758 l 239 0 l 101 0 l 101 986 "},"Ń":{"ha":833,"x_min":0,"x_max":0,"o":"m 282 986 l 594 197 l 594 986 l 732 986 l 732 0 l 539 0 l 239 758 l 239 0 l 101 0 l 101 986 m 464 1304 l 603 1304 l 485 1096 l 376 1096 "},"Ň":{"ha":833,"x_min":0,"x_max":0,"o":"m 282 986 l 594 197 l 594 986 l 732 986 l 732 0 l 539 0 l 239 758 l 239 0 l 101 0 l 101 986 m 357 1263 l 432 1157 l 507 1263 l 636 1263 l 515 1096 l 349 1096 l 229 1263 "},"Ņ":{"ha":833,"x_min":0,"x_max":0,"o":"m 282 986 l 594 197 l 594 986 l 732 986 l 732 0 l 539 0 l 239 758 l 239 0 l 101 0 l 101 986 m 378 -83 l 517 -83 l 399 -292 l 290 -292 "},"Ñ":{"ha":833,"x_min":0,"x_max":0,"o":"m 282 986 l 594 197 l 594 986 l 732 986 l 732 0 l 539 0 l 239 758 l 239 0 l 101 0 l 101 986 m 196 1096 b 336 1279 197 1210 251 1279 b 436 1242 385 1279 413 1265 b 517 1188 465 1215 481 1188 b 571 1278 553 1188 571 1218 l 665 1278 b 524 1093 664 1167 610 1093 b 417 1140 469 1093 440 1115 b 344 1185 393 1163 375 1185 b 290 1096 310 1185 290 1157 l 196 1096 "},"Ŋ":{"ha":833,"x_min":0,"x_max":0,"o":"m 282 986 l 594 197 l 594 986 l 732 986 l 732 -10 b 524 -208 732 -131 650 -208 l 378 -208 l 378 -87 l 508 -87 b 594 -10 565 -87 594 -60 l 594 0 l 539 0 l 239 758 l 239 0 l 101 0 l 101 986 "},"O":{"ha":833,"x_min":0,"x_max":0,"o":"m 417 -22 b 50 492 182 -22 50 167 b 417 1008 50 819 182 1008 b 783 492 651 1008 783 819 b 417 -22 783 167 651 -22 m 193 492 b 417 107 193 244 272 107 b 640 492 561 107 640 244 b 417 879 640 740 561 879 b 193 492 272 879 193 740 "},"Ó":{"ha":833,"x_min":0,"x_max":0,"o":"m 417 -22 b 50 492 182 -22 50 167 b 417 1008 50 819 182 1008 b 783 492 651 1008 783 819 b 417 -22 783 167 651 -22 m 193 492 b 417 107 193 244 272 107 b 640 492 561 107 640 244 b 417 879 640 740 561 879 b 193 492 272 879 193 740 m 450 1304 l 589 1304 l 471 1096 l 363 1096 "},"Ô":{"ha":833,"x_min":0,"x_max":0,"o":"m 417 -22 b 50 492 182 -22 50 167 b 417 1008 50 819 182 1008 b 783 492 651 1008 783 819 b 417 -22 783 167 651 -22 m 193 492 b 417 107 193 244 272 107 b 640 492 561 107 640 244 b 417 879 640 740 561 879 b 193 492 272 879 193 740 m 332 1263 l 499 1263 l 619 1096 l 490 1096 l 415 1201 l 340 1096 l 213 1096 "},"Ö":{"ha":833,"x_min":0,"x_max":0,"o":"m 417 -22 b 50 492 182 -22 50 167 b 417 1008 50 819 182 1008 b 783 492 651 1008 783 819 b 417 -22 783 167 651 -22 m 193 492 b 417 107 193 244 272 107 b 640 492 561 107 640 244 b 417 879 640 740 561 879 b 193 492 272 879 193 740 m 210 1235 l 356 1235 l 356 1090 l 210 1090 m 475 1235 l 621 1235 l 621 1090 l 475 1090 "},"Ò":{"ha":833,"x_min":0,"x_max":0,"o":"m 417 -22 b 50 492 182 -22 50 167 b 417 1008 50 819 182 1008 b 783 492 651 1008 783 819 b 417 -22 783 167 651 -22 m 193 492 b 417 107 193 244 272 107 b 640 492 561 107 640 244 b 417 879 640 740 561 879 b 193 492 272 879 193 740 m 383 1304 l 471 1096 l 363 1096 l 244 1304 "},"Ő":{"ha":833,"x_min":0,"x_max":0,"o":"m 417 -22 b 50 492 182 -22 50 167 b 417 1008 50 819 182 1008 b 783 492 651 1008 783 819 b 417 -22 783 167 651 -22 m 193 492 b 417 107 193 244 272 107 b 640 492 561 107 640 244 b 417 879 640 740 561 879 b 193 492 272 879 193 740 m 338 1304 l 476 1304 l 358 1096 l 250 1096 m 542 1304 l 681 1304 l 563 1096 l 454 1096 "},"Ō":{"ha":833,"x_min":0,"x_max":0,"o":"m 417 -22 b 50 492 182 -22 50 167 b 417 1008 50 819 182 1008 b 783 492 651 1008 783 819 b 417 -22 783 167 651 -22 m 193 492 b 417 107 193 244 272 107 b 640 492 561 107 640 244 b 417 879 640 740 561 879 b 193 492 272 879 193 740 m 235 1214 l 597 1214 l 597 1117 l 235 1117 "},"Ø":{"ha":833,"x_min":0,"x_max":0,"o":"m 417 -22 b 215 40 338 -22 269 -1 l 179 -22 l 50 -22 l 136 126 b 50 492 81 214 50 338 b 417 1008 50 819 182 1008 b 615 947 494 1008 561 988 l 651 1008 l 779 1008 l 694 863 b 783 492 753 775 783 650 b 417 -22 783 167 651 -22 m 193 492 b 222 272 193 404 203 331 l 546 828 b 417 879 511 861 468 879 b 193 492 272 879 193 740 m 286 160 b 417 107 319 125 364 107 b 640 492 561 107 640 244 b 610 717 640 582 631 657 l 286 160 "},"Õ":{"ha":833,"x_min":0,"x_max":0,"o":"m 417 -22 b 50 492 182 -22 50 167 b 417 1008 50 819 182 1008 b 783 492 651 1008 783 819 b 417 -22 783 167 651 -22 m 182 1096 b 322 1279 183 1210 238 1279 b 422 1242 371 1279 399 1265 b 503 1188 451 1215 467 1188 b 557 1278 539 1188 557 1218 l 651 1278 b 510 1093 650 1167 596 1093 b 403 1140 456 1093 426 1115 b 331 1185 379 1163 361 1185 b 276 1096 296 1185 276 1157 l 182 1096 m 193 492 b 417 107 193 244 272 107 b 640 492 561 107 640 244 b 417 879 640 740 561 879 b 193 492 272 879 193 740 "},"Œ":{"ha":833,"x_min":0,"x_max":0,"o":"m 815 857 l 592 857 l 592 557 l 806 557 l 806 432 l 592 432 l 592 129 l 822 129 l 822 0 l 457 0 l 457 44 b 297 -22 414 1 360 -22 b 10 492 115 -22 10 174 b 297 1008 10 813 115 1008 b 457 942 360 1008 414 985 l 457 986 l 815 986 m 149 492 b 297 107 149 250 189 107 b 444 492 406 107 444 250 b 297 879 444 736 406 879 b 149 492 189 879 149 736 "},"P":{"ha":833,"x_min":0,"x_max":0,"o":"m 428 986 b 775 682 643 986 775 869 b 428 374 775 492 643 374 l 257 374 l 257 0 l 119 0 l 119 986 l 428 986 m 421 503 b 632 682 561 503 632 565 b 421 857 632 796 561 857 l 257 857 l 257 503 "},"Þ":{"ha":833,"x_min":0,"x_max":0,"o":"m 118 0 l 118 986 l 254 986 l 254 808 l 439 808 b 789 511 660 808 789 697 b 439 207 789 321 660 207 l 254 207 l 254 0 m 438 336 b 646 511 575 336 646 396 b 438 679 646 622 575 679 l 254 679 l 254 336 "},"Q":{"ha":833,"x_min":0,"x_max":0,"o":"m 417 -22 b 50 492 182 -22 50 167 b 417 1008 50 819 182 1008 b 783 492 651 1008 783 819 b 649 67 783 297 736 153 l 757 -96 l 618 -96 l 553 3 b 417 -22 513 -14 467 -22 m 193 492 b 417 107 193 244 272 107 b 476 115 438 107 458 110 l 361 289 l 500 289 l 569 186 b 640 492 615 250 640 354 b 417 879 640 740 561 879 b 193 492 272 879 193 740 "},"R":{"ha":833,"x_min":0,"x_max":0,"o":"m 413 986 b 751 688 621 986 751 871 b 590 457 751 574 678 485 b 736 286 685 439 726 388 l 761 0 l 624 0 l 599 272 b 403 389 590 360 536 389 l 235 389 l 235 0 l 99 0 l 99 986 l 413 986 m 411 518 b 608 686 536 518 608 579 b 411 857 608 793 536 857 l 235 857 l 235 518 "},"Ŕ":{"ha":833,"x_min":0,"x_max":0,"o":"m 413 986 b 751 688 621 986 751 871 b 590 457 751 574 678 485 b 736 286 685 439 726 388 l 761 0 l 624 0 l 599 272 b 403 389 590 360 536 389 l 235 389 l 235 0 l 99 0 l 99 986 l 413 986 m 411 518 b 608 686 536 518 608 579 b 411 857 608 793 536 857 l 235 857 l 235 518 m 433 1304 l 572 1304 l 454 1096 l 346 1096 "},"Ř":{"ha":833,"x_min":0,"x_max":0,"o":"m 413 986 b 751 688 621 986 751 871 b 590 457 751 574 678 485 b 736 286 685 439 726 388 l 761 0 l 624 0 l 599 272 b 403 389 590 360 536 389 l 235 389 l 235 0 l 99 0 l 99 986 l 413 986 m 326 1263 l 401 1157 l 476 1263 l 606 1263 l 485 1096 l 318 1096 l 199 1263 m 411 518 b 608 686 536 518 608 579 b 411 857 608 793 536 857 l 235 857 l 235 518 "},"Ŗ":{"ha":833,"x_min":0,"x_max":0,"o":"m 413 986 b 751 688 621 986 751 871 b 590 457 751 574 678 485 b 736 286 685 439 726 388 l 761 0 l 624 0 l 599 272 b 403 389 590 360 536 389 l 235 389 l 235 0 l 99 0 l 99 986 l 413 986 m 411 518 b 608 686 536 518 608 579 b 411 857 608 793 536 857 l 235 857 l 235 518 m 375 -83 l 514 -83 l 396 -292 l 288 -292 "},"S":{"ha":833,"x_min":0,"x_max":0,"o":"m 203 328 b 450 113 228 199 314 113 b 632 256 556 113 633 163 b 381 451 632 349 551 404 b 83 731 174 506 83 593 b 399 1008 83 901 217 1008 b 756 692 596 1008 735 876 l 614 683 b 396 879 599 801 511 879 b 224 729 300 879 222 821 b 463 557 225 621 343 589 b 772 267 633 510 772 417 b 442 -17 772 82 613 -17 b 63 318 235 -17 78 115 l 203 328 "},"Ś":{"ha":833,"x_min":0,"x_max":0,"o":"m 203 328 b 450 113 228 199 314 113 b 632 256 556 113 633 163 b 381 451 632 349 551 404 b 83 731 174 506 83 593 b 399 1008 83 901 217 1008 b 756 692 596 1008 735 876 l 614 683 b 396 879 599 801 511 879 b 224 729 300 879 222 821 b 463 557 225 621 343 589 b 772 267 633 510 772 417 b 442 -17 772 82 613 -17 b 63 318 235 -17 78 115 l 203 328 m 450 1304 l 589 1304 l 471 1096 l 363 1096 "},"Ꞌ":{"ha":833,"x_min":0,"x_max":0,"o":"m 482 986 l 482 793 l 464 519 l 371 519 l 351 793 l 351 986 "},"Š":{"ha":833,"x_min":0,"x_max":0,"o":"m 203 328 b 450 113 228 199 314 113 b 632 256 556 113 633 163 b 381 451 632 349 551 404 b 83 731 174 506 83 593 b 399 1008 83 901 217 1008 b 756 692 596 1008 735 876 l 614 683 b 396 879 599 801 511 879 b 224 729 300 879 222 821 b 463 557 225 621 343 589 b 772 267 633 510 772 417 b 442 -17 772 82 613 -17 b 63 318 235 -17 78 115 l 203 328 m 343 1263 l 418 1157 l 493 1263 l 622 1263 l 501 1096 l 335 1096 l 215 1263 "},"Ş":{"ha":833,"x_min":0,"x_max":0,"o":"m 203 328 b 450 113 228 199 314 113 b 632 256 556 113 633 163 b 381 451 632 349 551 404 b 83 731 174 506 83 593 b 399 1008 83 901 217 1008 b 756 692 596 1008 735 876 l 614 683 b 396 879 599 801 511 879 b 224 729 300 879 222 821 b 463 557 225 621 343 589 b 772 267 633 510 772 417 b 446 -17 772 83 615 -15 l 417 -49 b 551 -178 494 -49 551 -103 b 410 -312 551 -254 488 -312 b 239 -215 342 -312 294 -281 l 304 -156 b 403 -225 324 -181 356 -225 b 465 -168 440 -225 465 -203 b 364 -119 465 -125 418 -106 l 322 -65 l 371 -11 b 63 318 200 15 76 139 l 203 328 "},"Ŝ":{"ha":833,"x_min":0,"x_max":0,"o":"m 203 328 b 450 113 228 199 314 113 b 632 256 556 113 633 163 b 381 451 632 349 551 404 b 83 731 174 506 83 593 b 399 1008 83 901 217 1008 b 756 692 596 1008 735 876 l 614 683 b 396 879 599 801 511 879 b 224 729 300 879 222 821 b 463 557 225 621 343 589 b 772 267 633 510 772 417 b 442 -17 772 82 613 -17 b 63 318 235 -17 78 115 l 203 328 m 333 1263 l 500 1263 l 621 1096 l 492 1096 l 417 1201 l 342 1096 l 214 1096 "},"Ș":{"ha":833,"x_min":0,"x_max":0,"o":"m 203 328 b 450 113 228 199 314 113 b 632 256 556 113 633 163 b 381 451 632 349 551 404 b 83 731 174 506 83 593 b 399 1008 83 901 217 1008 b 756 692 596 1008 735 876 l 614 683 b 396 879 599 801 511 879 b 224 729 300 879 222 821 b 463 557 225 621 343 589 b 772 267 633 510 772 417 b 442 -17 772 82 613 -17 b 63 318 235 -17 78 115 l 203 328 m 353 -83 l 492 -83 l 374 -292 l 265 -292 "},"ẞ":{"ha":833,"x_min":0,"x_max":0,"o":"m 446 129 b 660 301 579 129 660 197 b 419 478 660 414 568 479 l 286 476 l 286 606 l 569 857 l 333 857 b 181 689 235 857 181 799 l 181 0 l 44 0 l 44 689 b 333 986 44 875 153 986 l 742 986 l 742 842 l 454 586 b 801 306 663 583 801 472 b 446 0 801 124 664 0 l 272 0 l 272 129 l 446 129 "},"T":{"ha":833,"x_min":0,"x_max":0,"o":"m 778 857 l 485 857 l 485 0 l 349 0 l 349 857 l 56 857 l 56 986 l 778 986 "},"Ŧ":{"ha":833,"x_min":0,"x_max":0,"o":"m 778 857 l 485 857 l 485 526 l 668 526 l 668 419 l 485 419 l 485 0 l 349 0 l 349 419 l 164 419 l 164 526 l 349 526 l 349 857 l 56 857 l 56 986 l 778 986 "},"Ť":{"ha":833,"x_min":0,"x_max":0,"o":"m 778 857 l 485 857 l 485 0 l 349 0 l 349 857 l 56 857 l 56 986 l 778 986 m 342 1263 l 417 1157 l 492 1263 l 621 1263 l 500 1096 l 333 1096 l 214 1263 "},"Ţ":{"ha":833,"x_min":0,"x_max":0,"o":"m 778 857 l 485 857 l 485 0 l 460 0 l 414 -49 b 549 -178 492 -49 549 -103 b 407 -312 549 -254 485 -312 b 236 -215 339 -312 292 -281 l 301 -156 b 400 -225 321 -181 353 -225 b 463 -168 438 -225 463 -203 b 361 -119 463 -125 415 -106 l 319 -65 l 379 0 l 349 0 l 349 857 l 56 857 l 56 986 l 778 986 "},"Ț":{"ha":833,"x_min":0,"x_max":0,"o":"m 778 857 l 485 857 l 485 0 l 349 0 l 349 857 l 56 857 l 56 986 l 778 986 m 351 -83 l 490 -83 l 372 -292 l 264 -292 "},"U":{"ha":833,"x_min":0,"x_max":0,"o":"m 750 346 b 417 -22 750 118 629 -22 b 83 346 204 -22 83 118 l 83 988 l 219 988 l 219 342 b 417 107 219 193 285 107 b 614 342 549 107 614 193 l 614 988 l 750 988 l 750 346 "},"Ú":{"ha":833,"x_min":0,"x_max":0,"o":"m 750 346 b 417 -22 750 118 629 -22 b 83 346 204 -22 83 118 l 83 988 l 219 988 l 219 342 b 417 107 219 193 285 107 b 614 342 549 107 614 193 l 614 988 l 750 988 l 750 346 m 450 1304 l 589 1304 l 471 1096 l 363 1096 "},"Ŭ":{"ha":833,"x_min":0,"x_max":0,"o":"m 750 346 b 417 -22 750 118 629 -22 b 83 346 204 -22 83 118 l 83 988 l 219 988 l 219 342 b 417 107 219 193 285 107 b 614 342 549 107 614 193 l 614 988 l 750 988 l 750 346 m 315 1275 b 417 1186 315 1225 360 1186 b 521 1275 475 1186 519 1225 l 619 1275 b 417 1097 618 1175 531 1097 b 215 1275 304 1097 217 1175 "},"Û":{"ha":833,"x_min":0,"x_max":0,"o":"m 750 346 b 417 -22 750 118 629 -22 b 83 346 204 -22 83 118 l 83 988 l 219 988 l 219 342 b 417 107 219 193 285 107 b 614 342 549 107 614 193 l 614 988 l 750 988 l 750 346 m 332 1263 l 499 1263 l 619 1096 l 490 1096 l 415 1201 l 340 1096 l 213 1096 "},"Ü":{"ha":833,"x_min":0,"x_max":0,"o":"m 750 346 b 417 -22 750 118 629 -22 b 83 346 204 -22 83 118 l 83 988 l 219 988 l 219 342 b 417 107 219 193 285 107 b 614 342 549 107 614 193 l 614 988 l 750 988 l 750 346 m 210 1235 l 356 1235 l 356 1090 l 210 1090 m 475 1235 l 621 1235 l 621 1090 l 475 1090 "},"Ù":{"ha":833,"x_min":0,"x_max":0,"o":"m 750 346 b 417 -22 750 118 629 -22 b 83 346 204 -22 83 118 l 83 988 l 219 988 l 219 342 b 417 107 219 193 285 107 b 614 342 549 107 614 193 l 614 988 l 750 988 l 750 346 m 383 1304 l 471 1096 l 363 1096 l 244 1304 "},"Ű":{"ha":833,"x_min":0,"x_max":0,"o":"m 750 346 b 417 -22 750 118 629 -22 b 83 346 204 -22 83 118 l 83 988 l 219 988 l 219 342 b 417 107 219 193 285 107 b 614 342 549 107 614 193 l 614 988 l 750 988 l 750 346 m 338 1304 l 476 1304 l 358 1096 l 250 1096 m 542 1304 l 681 1304 l 563 1096 l 454 1096 "},"Ū":{"ha":833,"x_min":0,"x_max":0,"o":"m 750 346 b 417 -22 750 118 629 -22 b 83 346 204 -22 83 118 l 83 988 l 219 988 l 219 342 b 417 107 219 193 285 107 b 614 342 549 107 614 193 l 614 988 l 750 988 l 750 346 m 235 1214 l 597 1214 l 597 1117 l 235 1117 "},"Ų":{"ha":833,"x_min":0,"x_max":0,"o":"m 750 346 b 546 -1 750 169 678 46 l 507 -57 b 464 -147 488 -85 464 -119 b 510 -194 464 -174 483 -194 b 596 -165 535 -194 567 -179 l 596 -261 b 485 -300 563 -289 522 -300 b 360 -181 417 -299 360 -249 b 414 -54 360 -136 376 -93 l 443 -21 b 417 -22 435 -22 425 -22 b 83 346 204 -22 83 118 l 83 988 l 219 988 l 219 342 b 417 107 219 193 285 107 b 614 342 549 107 614 193 l 614 988 l 750 988 l 750 346 "},"Ů":{"ha":833,"x_min":0,"x_max":0,"o":"m 750 346 b 417 -22 750 118 629 -22 b 83 346 204 -22 83 118 l 83 988 l 219 988 l 219 342 b 417 107 219 193 285 107 b 614 342 549 107 614 193 l 614 988 l 750 988 l 750 346 m 272 1206 b 417 1350 272 1285 336 1350 b 560 1206 497 1350 560 1285 b 417 1063 560 1125 497 1063 b 272 1206 336 1063 272 1125 m 360 1206 b 417 1150 360 1175 385 1150 b 472 1206 449 1150 472 1175 b 417 1263 472 1238 449 1263 b 360 1206 385 1263 360 1238 "},"Ũ":{"ha":833,"x_min":0,"x_max":0,"o":"m 750 346 b 417 -22 750 118 629 -22 b 83 346 204 -22 83 118 l 83 988 l 219 988 l 219 342 b 417 107 219 193 285 107 b 614 342 549 107 614 193 l 614 988 l 750 988 l 750 346 m 182 1096 b 322 1279 183 1210 238 1279 b 422 1242 371 1279 399 1265 b 503 1188 451 1215 467 1188 b 557 1278 539 1188 557 1218 l 651 1278 b 510 1093 650 1167 596 1093 b 403 1140 456 1093 426 1115 b 331 1185 379 1163 361 1185 b 276 1096 296 1185 276 1157 l 182 1096 "},"V":{"ha":833,"x_min":0,"x_max":0,"o":"m 178 986 l 417 171 l 656 986 l 803 986 l 500 0 l 333 0 l 31 986 "},"W":{"ha":833,"x_min":0,"x_max":0,"o":"m 42 986 l 181 986 l 261 181 l 356 903 l 478 903 l 572 179 l 653 986 l 792 986 l 689 0 l 500 0 l 417 667 l 333 0 l 144 0 "},"Ẃ":{"ha":833,"x_min":0,"x_max":0,"o":"m 42 986 l 181 986 l 261 181 l 356 903 l 478 903 l 572 179 l 653 986 l 792 986 l 689 0 l 500 0 l 417 667 l 333 0 l 144 0 m 450 1304 l 589 1304 l 471 1096 l 363 1096 "},"Ŵ":{"ha":833,"x_min":0,"x_max":0,"o":"m 42 986 l 181 986 l 261 181 l 356 903 l 478 903 l 572 179 l 653 986 l 792 986 l 689 0 l 500 0 l 417 667 l 333 0 l 144 0 m 332 1263 l 499 1263 l 619 1096 l 490 1096 l 415 1201 l 340 1096 l 213 1096 "},"Ẅ":{"ha":833,"x_min":0,"x_max":0,"o":"m 42 986 l 181 986 l 261 181 l 356 903 l 478 903 l 572 179 l 653 986 l 792 986 l 689 0 l 500 0 l 417 667 l 333 0 l 144 0 m 210 1235 l 356 1235 l 356 1090 l 210 1090 m 475 1235 l 621 1235 l 621 1090 l 475 1090 "},"Ẁ":{"ha":833,"x_min":0,"x_max":0,"o":"m 42 986 l 181 986 l 261 181 l 356 903 l 478 903 l 572 179 l 653 986 l 792 986 l 689 0 l 500 0 l 417 667 l 333 0 l 144 0 m 383 1304 l 471 1096 l 363 1096 l 244 1304 "},"X":{"ha":833,"x_min":0,"x_max":0,"o":"m 764 986 l 503 494 l 767 0 l 607 0 l 415 390 l 224 0 l 67 0 l 331 496 l 69 986 l 229 986 l 418 603 l 607 986 "},"Y":{"ha":833,"x_min":0,"x_max":0,"o":"m 214 986 l 418 558 l 621 986 l 775 986 l 486 401 l 486 0 l 350 0 l 350 401 l 60 986 "},"Ý":{"ha":833,"x_min":0,"x_max":0,"o":"m 214 986 l 418 558 l 621 986 l 775 986 l 486 401 l 486 0 l 350 0 l 350 401 l 60 986 m 451 1304 l 590 1304 l 472 1096 l 364 1096 "},"Ŷ":{"ha":833,"x_min":0,"x_max":0,"o":"m 214 986 l 418 558 l 621 986 l 775 986 l 486 401 l 486 0 l 350 0 l 350 401 l 60 986 m 333 1263 l 500 1263 l 621 1096 l 492 1096 l 417 1201 l 342 1096 l 214 1096 "},"Ÿ":{"ha":833,"x_min":0,"x_max":0,"o":"m 214 986 l 418 558 l 621 986 l 775 986 l 486 401 l 486 0 l 350 0 l 350 401 l 60 986 m 211 1235 l 357 1235 l 357 1090 l 211 1090 m 476 1235 l 622 1235 l 622 1090 l 476 1090 "},"Ỳ":{"ha":833,"x_min":0,"x_max":0,"o":"m 214 986 l 418 558 l 621 986 l 775 986 l 486 401 l 486 0 l 350 0 l 350 401 l 60 986 m 385 1304 l 472 1096 l 364 1096 l 246 1304 "},"Ỹ":{"ha":833,"x_min":0,"x_max":0,"o":"m 214 986 l 418 558 l 621 986 l 775 986 l 486 401 l 486 0 l 350 0 l 350 401 l 60 986 m 183 1096 b 324 1279 185 1210 239 1279 b 424 1242 372 1279 400 1265 b 504 1188 453 1215 468 1188 b 558 1278 540 1188 558 1218 l 653 1278 b 511 1093 651 1167 597 1093 b 404 1140 457 1093 428 1115 b 332 1185 381 1163 363 1185 b 278 1096 297 1185 278 1157 l 183 1096 "},"Z":{"ha":833,"x_min":0,"x_max":0,"o":"m 228 129 l 767 129 l 767 0 l 65 0 l 65 138 l 593 857 l 90 857 l 90 986 l 756 986 l 756 847 "},"Ź":{"ha":833,"x_min":0,"x_max":0,"o":"m 228 129 l 767 129 l 767 0 l 65 0 l 65 138 l 593 857 l 90 857 l 90 986 l 756 986 l 756 847 m 450 1304 l 589 1304 l 471 1096 l 363 1096 "},"Ž":{"ha":833,"x_min":0,"x_max":0,"o":"m 228 129 l 767 129 l 767 0 l 65 0 l 65 138 l 593 857 l 90 857 l 90 986 l 756 986 l 756 847 m 342 1263 l 417 1157 l 492 1263 l 621 1263 l 500 1096 l 333 1096 l 214 1263 "},"Ż":{"ha":833,"x_min":0,"x_max":0,"o":"m 228 129 l 767 129 l 767 0 l 65 0 l 65 138 l 593 857 l 90 857 l 90 986 l 756 986 l 756 847 m 343 1236 l 489 1236 l 489 1092 l 343 1092 "},"a":{"ha":833,"x_min":0,"x_max":0,"o":"m 100 517 b 406 753 128 660 250 753 b 701 444 585 753 701 649 l 701 165 b 747 117 701 132 715 117 l 778 117 l 778 0 l 740 0 b 586 114 651 0 599 47 b 356 -17 557 44 471 -17 b 88 193 207 -17 88 61 b 369 419 88 344 201 389 l 569 460 b 404 629 567 574 503 629 b 240 507 319 629 257 579 l 100 517 m 228 196 b 372 99 228 143 274 99 b 571 311 485 100 571 178 l 571 344 l 413 317 b 228 196 308 299 226 289 "},"á":{"ha":833,"x_min":0,"x_max":0,"o":"m 100 517 b 406 753 128 660 250 753 b 701 444 585 753 701 649 l 701 165 b 747 117 701 132 715 117 l 778 117 l 778 0 l 740 0 b 586 114 651 0 599 47 b 356 -17 557 44 471 -17 b 88 193 207 -17 88 61 b 369 419 88 344 201 389 l 569 460 b 404 629 567 574 503 629 b 240 507 319 629 257 579 l 100 517 m 228 196 b 372 99 228 143 274 99 b 571 311 485 100 571 178 l 571 344 l 413 317 b 228 196 308 299 226 289 m 438 1054 l 576 1054 l 458 846 l 350 846 "},"ă":{"ha":833,"x_min":0,"x_max":0,"o":"m 100 517 b 406 753 128 660 250 753 b 701 444 585 753 701 649 l 701 165 b 747 117 701 132 715 117 l 778 117 l 778 0 l 740 0 b 586 114 651 0 599 47 b 356 -17 557 44 471 -17 b 88 193 207 -17 88 61 b 369 419 88 344 201 389 l 569 460 b 404 629 567 574 503 629 b 240 507 319 629 257 579 l 100 517 m 303 1025 b 404 936 303 975 347 936 b 508 1025 463 936 507 975 l 607 1025 b 404 847 606 925 518 847 b 203 1025 292 847 204 925 m 228 196 b 372 99 228 143 274 99 b 571 311 485 100 571 178 l 571 344 l 413 317 b 228 196 308 299 226 289 "},"ǎ":{"ha":833,"x_min":0,"x_max":0,"o":"m 100 517 b 406 753 128 660 250 753 b 701 444 585 753 701 649 l 701 165 b 747 117 701 132 715 117 l 778 117 l 778 0 l 740 0 b 586 114 651 0 599 47 b 356 -17 557 44 471 -17 b 88 193 207 -17 88 61 b 369 419 88 344 201 389 l 569 460 b 404 629 567 574 503 629 b 240 507 319 629 257 579 l 100 517 m 331 1013 l 406 907 l 481 1013 l 610 1013 l 489 846 l 322 846 l 203 1013 m 228 196 b 372 99 228 143 274 99 b 571 311 485 100 571 178 l 571 344 l 413 317 b 228 196 308 299 226 289 "},"â":{"ha":833,"x_min":0,"x_max":0,"o":"m 100 517 b 406 753 128 660 250 753 b 701 444 585 753 701 649 l 701 165 b 747 117 701 132 715 117 l 778 117 l 778 0 l 740 0 b 586 114 651 0 599 47 b 356 -17 557 44 471 -17 b 88 193 207 -17 88 61 b 369 419 88 344 201 389 l 569 460 b 404 629 567 574 503 629 b 240 507 319 629 257 579 l 100 517 m 321 1013 l 488 1013 l 608 846 l 479 846 l 404 951 l 329 846 l 201 846 m 228 196 b 372 99 228 143 274 99 b 571 311 485 100 571 178 l 571 344 l 413 317 b 228 196 308 299 226 289 "},"ä":{"ha":833,"x_min":0,"x_max":0,"o":"m 100 517 b 406 753 128 660 250 753 b 701 444 585 753 701 649 l 701 165 b 747 117 701 132 715 117 l 778 117 l 778 0 l 740 0 b 586 114 651 0 599 47 b 356 -17 557 44 471 -17 b 88 193 207 -17 88 61 b 369 419 88 344 201 389 l 569 460 b 404 629 567 574 503 629 b 240 507 319 629 257 579 l 100 517 m 199 985 l 344 985 l 344 840 l 199 840 m 228 196 b 372 99 228 143 274 99 b 571 311 485 100 571 178 l 571 344 l 413 317 b 228 196 308 299 226 289 m 464 985 l 610 985 l 610 840 l 464 840 "},"à":{"ha":833,"x_min":0,"x_max":0,"o":"m 100 517 b 406 753 128 660 250 753 b 701 444 585 753 701 649 l 701 165 b 747 117 701 132 715 117 l 778 117 l 778 0 l 740 0 b 586 114 651 0 599 47 b 356 -17 557 44 471 -17 b 88 193 207 -17 88 61 b 369 419 88 344 201 389 l 569 460 b 404 629 567 574 503 629 b 240 507 319 629 257 579 l 100 517 m 228 196 b 372 99 228 143 274 99 b 571 311 485 100 571 178 l 571 344 l 413 317 b 228 196 308 299 226 289 m 372 1054 l 460 846 l 351 846 l 233 1054 "},"ā":{"ha":833,"x_min":0,"x_max":0,"o":"m 100 517 b 406 753 128 660 250 753 b 701 444 585 753 701 649 l 701 165 b 747 117 701 132 715 117 l 778 117 l 778 0 l 740 0 b 586 114 651 0 599 47 b 356 -17 557 44 471 -17 b 88 193 207 -17 88 61 b 369 419 88 344 201 389 l 569 460 b 404 629 567 574 503 629 b 240 507 319 629 257 579 l 100 517 m 224 964 l 586 964 l 586 867 l 224 867 m 228 196 b 372 99 228 143 274 99 b 571 311 485 100 571 178 l 571 344 l 413 317 b 228 196 308 299 226 289 "},"ą":{"ha":833,"x_min":0,"x_max":0,"o":"m 100 517 b 406 753 128 660 250 753 b 701 444 585 753 701 649 l 701 165 b 747 117 701 132 715 117 l 778 117 l 778 0 l 775 0 l 738 -53 b 694 -143 718 -81 694 -115 b 740 -190 694 -169 714 -190 b 826 -161 765 -190 797 -175 l 826 -257 b 715 -296 793 -285 753 -296 b 590 -176 647 -294 590 -244 b 644 -50 590 -132 607 -89 l 693 4 l 697 4 b 586 114 635 17 596 58 b 356 -17 557 44 471 -17 b 88 193 207 -17 88 61 b 369 419 88 344 201 389 l 569 460 b 404 629 567 574 503 629 b 240 507 319 629 257 579 l 100 517 m 228 196 b 372 99 228 143 274 99 b 571 311 485 100 571 178 l 571 344 l 413 317 b 228 196 308 299 226 289 "},"å":{"ha":833,"x_min":0,"x_max":0,"o":"m 100 517 b 406 753 128 660 250 753 b 701 444 585 753 701 649 l 701 165 b 747 117 701 132 715 117 l 778 117 l 778 0 l 740 0 b 586 114 651 0 599 47 b 356 -17 557 44 471 -17 b 88 193 207 -17 88 61 b 369 419 88 344 201 389 l 569 460 b 404 629 567 574 503 629 b 240 507 319 629 257 579 l 100 517 m 228 196 b 372 99 228 143 274 99 b 571 311 485 100 571 178 l 571 344 l 413 317 b 228 196 308 299 226 289 m 261 956 b 406 1100 261 1035 325 1100 b 549 956 486 1100 549 1035 b 406 813 549 875 486 813 b 261 956 325 813 261 875 m 349 956 b 406 900 349 925 374 900 b 461 956 438 900 461 925 b 406 1013 461 988 438 1013 b 349 956 374 1013 349 988 "},"ã":{"ha":833,"x_min":0,"x_max":0,"o":"m 100 517 b 406 753 128 660 250 753 b 701 444 585 753 701 649 l 701 165 b 747 117 701 132 715 117 l 778 117 l 778 0 l 740 0 b 586 114 651 0 599 47 b 356 -17 557 44 471 -17 b 88 193 207 -17 88 61 b 369 419 88 344 201 389 l 569 460 b 404 629 567 574 503 629 b 240 507 319 629 257 579 l 100 517 m 169 846 b 310 1029 171 960 225 1029 b 410 992 358 1029 386 1015 b 490 938 439 965 454 938 b 544 1028 526 938 544 968 l 639 1028 b 497 843 638 917 583 843 b 390 890 443 843 414 865 b 318 935 367 913 349 935 b 264 846 283 935 264 907 l 169 846 m 228 196 b 372 99 228 143 274 99 b 571 311 485 100 571 178 l 571 344 l 413 317 b 228 196 308 299 226 289 "},"æ":{"ha":833,"x_min":0,"x_max":0,"o":"m 26 517 b 240 753 50 674 122 753 b 410 653 318 753 375 719 b 588 753 450 718 510 753 b 817 381 729 753 810 631 l 818 331 l 475 331 b 588 107 481 186 522 107 b 682 225 638 107 665 139 l 810 213 b 588 -17 776 51 711 -17 b 382 142 490 -17 419 39 b 204 -17 356 42 293 -14 b 17 196 101 -14 17 64 b 214 422 17 308 92 392 l 324 451 b 239 629 324 579 300 629 b 151 507 181 629 163 579 l 26 517 m 143 199 b 219 107 143 140 175 103 b 328 301 293 111 328 172 l 328 333 l 247 314 b 143 199 178 297 143 250 m 688 438 b 588 629 675 574 644 629 b 476 438 522 629 489 574 "},"b":{"ha":833,"x_min":0,"x_max":0,"o":"m 242 986 l 242 638 b 463 753 283 713 357 753 b 767 368 668 753 767 575 b 463 -17 767 161 668 -17 b 235 106 351 -17 275 29 l 231 0 l 108 0 l 108 986 m 229 368 b 428 107 229 233 289 107 b 628 368 569 107 628 231 b 428 635 628 510 569 635 b 229 368 289 635 229 507 "},"c":{"ha":833,"x_min":0,"x_max":0,"o":"m 610 479 b 435 629 594 572 519 629 b 233 368 307 629 233 531 b 435 107 233 206 307 107 b 615 268 524 107 599 167 l 756 260 b 435 -17 732 90 596 -17 b 94 368 228 -17 94 135 b 435 753 94 601 228 753 b 749 488 590 753 729 650 l 610 479 "},"ć":{"ha":833,"x_min":0,"x_max":0,"o":"m 610 479 b 435 629 594 572 519 629 b 233 368 307 629 233 531 b 435 107 233 206 307 107 b 615 268 524 107 599 167 l 756 260 b 435 -17 732 90 596 -17 b 94 368 228 -17 94 135 b 435 753 94 601 228 753 b 749 488 590 753 729 650 l 610 479 m 468 1054 l 607 1054 l 489 846 l 381 846 "},"č":{"ha":833,"x_min":0,"x_max":0,"o":"m 610 479 b 435 629 594 572 519 629 b 233 368 307 629 233 531 b 435 107 233 206 307 107 b 615 268 524 107 599 167 l 756 260 b 435 -17 732 90 596 -17 b 94 368 228 -17 94 135 b 435 753 94 601 228 753 b 749 488 590 753 729 650 l 610 479 m 360 1013 l 435 907 l 510 1013 l 639 1013 l 518 846 l 351 846 l 232 1013 "},"ç":{"ha":833,"x_min":0,"x_max":0,"o":"m 610 479 b 435 629 594 572 519 629 b 233 368 307 629 233 531 b 435 107 233 206 307 107 b 615 268 524 107 599 167 l 756 260 b 463 -15 733 100 611 -4 l 432 -49 b 567 -178 510 -49 567 -103 b 425 -312 567 -254 503 -312 b 254 -215 357 -312 310 -281 l 319 -156 b 418 -225 339 -181 371 -225 b 481 -168 456 -225 481 -203 b 379 -119 481 -125 433 -106 l 338 -65 l 385 -14 b 94 368 207 10 94 154 b 435 753 94 601 228 753 b 749 488 590 753 729 650 l 610 479 "},"ĉ":{"ha":833,"x_min":0,"x_max":0,"o":"m 610 479 b 435 629 594 572 519 629 b 233 368 307 629 233 531 b 435 107 233 206 307 107 b 615 268 524 107 599 167 l 756 260 b 435 -17 732 90 596 -17 b 94 368 228 -17 94 135 b 435 753 94 601 228 753 b 749 488 590 753 729 650 l 610 479 m 350 1013 l 517 1013 l 638 846 l 508 846 l 433 951 l 358 846 l 231 846 "},"ċ":{"ha":833,"x_min":0,"x_max":0,"o":"m 610 479 b 435 629 594 572 519 629 b 233 368 307 629 233 531 b 435 107 233 206 307 107 b 615 268 524 107 599 167 l 756 260 b 435 -17 732 90 596 -17 b 94 368 228 -17 94 135 b 435 753 94 601 228 753 b 749 488 590 753 729 650 l 610 479 m 361 986 l 507 986 l 507 842 l 361 842 "},"d":{"ha":833,"x_min":0,"x_max":0,"o":"m 725 0 l 603 0 l 599 106 b 371 -17 558 29 482 -17 b 67 368 165 -17 67 161 b 371 753 67 575 165 753 b 592 638 476 753 550 713 l 592 986 l 725 986 m 206 368 b 406 107 206 231 264 107 b 604 368 544 107 604 233 b 406 635 604 507 544 635 b 206 368 264 635 206 510 "},"ð":{"ha":833,"x_min":0,"x_max":0,"o":"m 419 658 b 622 522 511 650 583 601 b 522 793 619 632 583 725 l 332 721 l 297 811 l 436 863 b 240 922 381 894 315 915 l 275 1046 b 583 918 408 1031 510 985 l 719 969 l 754 882 l 651 843 b 606 65 829 594 751 196 b 368 -17 531 0 453 -25 b 54 346 167 0 36 149 b 419 658 71 556 215 676 m 196 336 b 369 106 181 204 254 118 b 604 367 496 94 592 204 b 410 533 588 467 508 525 b 196 336 293 544 204 463 "},"ď":{"ha":833,"x_min":0,"x_max":0,"o":"m 624 0 l 507 0 l 503 106 b 286 -17 464 29 392 -17 b -4 368 89 -17 -4 161 b 286 753 -4 575 89 753 b 496 638 386 753 457 713 l 496 986 l 624 986 m 128 368 b 318 107 128 231 183 107 b 508 368 451 107 508 233 b 318 635 508 507 451 635 b 128 368 183 635 128 510 m 746 815 l 675 815 l 675 986 l 847 986 l 847 815 l 747 593 l 674 593 "},"đ":{"ha":833,"x_min":0,"x_max":0,"o":"m 728 914 l 825 914 l 825 807 l 728 807 l 728 0 l 606 0 l 601 106 b 374 -17 561 29 485 -17 b 69 368 168 -17 69 161 b 374 753 69 575 168 753 b 594 638 479 753 553 713 l 594 807 l 442 807 l 442 914 l 594 914 l 594 986 l 728 986 m 208 368 b 408 107 208 231 267 107 b 607 368 547 107 607 233 b 408 635 607 507 547 635 b 208 368 267 635 208 510 "},"e":{"ha":833,"x_min":0,"x_max":0,"o":"m 86 368 b 428 753 86 601 221 753 b 754 381 594 753 743 643 l 754 331 l 229 331 b 428 107 239 189 310 107 b 601 225 503 107 569 150 l 743 213 b 428 -17 700 72 575 -17 b 86 368 221 -17 86 135 m 610 438 b 428 629 590 578 514 629 b 231 438 319 629 250 558 "},"é":{"ha":833,"x_min":0,"x_max":0,"o":"m 86 368 b 428 753 86 601 221 753 b 754 381 594 753 743 643 l 754 331 l 229 331 b 428 107 239 189 310 107 b 601 225 503 107 569 150 l 743 213 b 428 -17 700 72 575 -17 b 86 368 221 -17 86 135 m 610 438 b 428 629 590 578 514 629 b 231 438 319 629 250 558 m 461 1051 l 600 1051 l 482 843 l 374 843 "},"ě":{"ha":833,"x_min":0,"x_max":0,"o":"m 86 368 b 428 753 86 601 221 753 b 754 381 594 753 743 643 l 754 331 l 229 331 b 428 107 239 189 310 107 b 601 225 503 107 569 150 l 743 213 b 428 -17 700 72 575 -17 b 86 368 221 -17 86 135 m 353 1011 l 428 906 l 503 1011 l 632 1011 l 511 844 l 344 844 l 225 1011 m 610 438 b 428 629 590 578 514 629 b 231 438 319 629 250 558 "},"ê":{"ha":833,"x_min":0,"x_max":0,"o":"m 86 368 b 428 753 86 601 221 753 b 754 381 594 753 743 643 l 754 331 l 229 331 b 428 107 239 189 310 107 b 601 225 503 107 569 150 l 743 213 b 428 -17 700 72 575 -17 b 86 368 221 -17 86 135 m 343 1010 l 510 1010 l 631 843 l 501 843 l 426 949 l 351 843 l 224 843 m 610 438 b 428 629 590 578 514 629 b 231 438 319 629 250 558 "},"ë":{"ha":833,"x_min":0,"x_max":0,"o":"m 86 368 b 428 753 86 601 221 753 b 754 381 594 753 743 643 l 754 331 l 229 331 b 428 107 239 189 310 107 b 601 225 503 107 569 150 l 743 213 b 428 -17 700 72 575 -17 b 86 368 221 -17 86 135 m 221 982 l 367 982 l 367 838 l 221 838 m 610 438 b 428 629 590 578 514 629 b 231 438 319 629 250 558 m 486 982 l 632 982 l 632 838 l 486 838 "},"ė":{"ha":833,"x_min":0,"x_max":0,"o":"m 86 368 b 428 753 86 601 221 753 b 754 381 594 753 743 643 l 754 331 l 229 331 b 428 107 239 189 310 107 b 601 225 503 107 569 150 l 743 213 b 428 -17 700 72 575 -17 b 86 368 221 -17 86 135 m 610 438 b 428 629 590 578 514 629 b 231 438 319 629 250 558 m 354 983 l 500 983 l 500 839 l 354 839 "},"è":{"ha":833,"x_min":0,"x_max":0,"o":"m 86 368 b 428 753 86 601 221 753 b 754 381 594 753 743 643 l 754 331 l 229 331 b 428 107 239 189 310 107 b 601 225 503 107 569 150 l 743 213 b 428 -17 700 72 575 -17 b 86 368 221 -17 86 135 m 610 438 b 428 629 590 578 514 629 b 231 438 319 629 250 558 m 394 1051 l 482 843 l 374 843 l 256 1051 "},"ē":{"ha":833,"x_min":0,"x_max":0,"o":"m 86 368 b 428 753 86 601 221 753 b 754 381 594 753 743 643 l 754 331 l 229 331 b 428 107 239 189 310 107 b 601 225 503 107 569 150 l 743 213 b 428 -17 700 72 575 -17 b 86 368 221 -17 86 135 m 610 438 b 428 629 590 578 514 629 b 231 438 319 629 250 558 m 246 961 l 608 961 l 608 864 l 246 864 "},"ę":{"ha":833,"x_min":0,"x_max":0,"o":"m 86 368 b 428 753 86 601 221 753 b 754 381 594 753 743 643 l 754 331 l 229 331 b 428 107 239 189 310 107 b 601 225 503 107 569 150 l 743 213 b 533 0 711 107 632 31 l 493 -57 b 450 -147 474 -85 450 -119 b 496 -194 450 -174 469 -194 b 582 -165 521 -194 553 -179 l 582 -261 b 471 -300 549 -289 508 -300 b 346 -181 403 -299 346 -249 b 400 -54 346 -136 363 -93 l 433 -17 l 428 -17 b 86 368 221 -17 86 135 m 610 438 b 428 629 590 578 514 629 b 231 438 319 629 250 558 "},"ẽ":{"ha":833,"x_min":0,"x_max":0,"o":"m 86 368 b 428 753 86 601 221 753 b 754 381 594 753 743 643 l 754 331 l 229 331 b 428 107 239 189 310 107 b 601 225 503 107 569 150 l 743 213 b 428 -17 700 72 575 -17 b 86 368 221 -17 86 135 m 193 843 b 333 1026 194 957 249 1026 b 433 989 382 1026 410 1013 b 514 935 463 963 478 935 b 568 1025 550 935 568 965 l 663 1025 b 521 840 661 914 607 840 b 414 888 467 840 438 863 b 342 932 390 910 372 932 b 288 843 307 932 288 904 l 193 843 m 610 438 b 428 629 590 578 514 629 b 231 438 319 629 250 558 "},"ə":{"ha":833,"x_min":0,"x_max":0,"o":"m 747 368 b 406 -17 747 135 613 -17 b 79 356 239 -17 90 93 l 79 406 l 604 406 b 406 629 594 547 524 629 b 232 511 331 629 264 586 l 90 524 b 406 753 133 664 258 753 b 747 368 613 753 747 601 m 224 299 b 406 107 243 158 319 107 b 603 299 514 107 583 178 l 224 299 "},"ʒ":{"ha":833,"x_min":0,"x_max":0,"o":"m 60 25 b 393 -143 161 -78 289 -143 b 622 32 529 -143 622 -71 b 394 210 622 139 531 211 l 319 208 l 319 335 l 583 607 l 61 607 l 61 736 l 750 736 l 750 586 l 493 324 b 765 32 654 304 765 185 b 393 -272 765 -147 615 -272 b 60 -135 269 -272 142 -219 l 60 25 "},"ǯ":{"ha":833,"x_min":0,"x_max":0,"o":"m 60 25 b 393 -143 161 -78 289 -143 b 622 32 529 -143 622 -71 b 394 210 622 139 531 211 l 319 208 l 319 335 l 583 607 l 61 607 l 61 736 l 750 736 l 750 586 l 493 324 b 765 32 654 304 765 185 b 393 -272 765 -147 615 -272 b 60 -135 269 -272 142 -219 l 60 25 m 328 1013 l 403 907 l 478 1013 l 607 1013 l 486 846 l 319 846 l 200 1013 "},"f":{"ha":833,"x_min":0,"x_max":0,"o":"m 289 769 b 506 986 289 906 357 986 l 708 986 l 708 869 l 503 869 b 422 772 454 869 422 833 l 422 689 l 699 689 l 699 572 l 422 572 l 422 0 l 289 0 l 289 572 l 94 572 l 94 689 l 289 689 l 289 769 "},"g":{"ha":833,"x_min":0,"x_max":0,"o":"m 393 39 b 82 392 211 39 82 185 b 393 753 82 606 211 753 b 613 621 492 753 579 699 l 614 736 l 740 736 l 740 81 b 415 -225 739 -121 613 -225 b 104 -12 254 -225 138 -140 l 243 -3 b 415 -107 271 -68 331 -107 b 608 53 536 -107 607 -51 l 608 163 b 393 39 569 90 482 39 m 222 393 b 418 154 222 253 296 154 b 611 393 536 154 610 253 b 418 631 614 532 539 631 b 222 393 296 631 222 532 "},"ğ":{"ha":833,"x_min":0,"x_max":0,"o":"m 393 39 b 82 392 211 39 82 185 b 393 753 82 606 211 753 b 613 621 492 753 579 699 l 614 736 l 740 736 l 740 81 b 415 -225 739 -121 613 -225 b 104 -12 254 -225 138 -140 l 243 -3 b 415 -107 271 -68 331 -107 b 608 53 536 -107 607 -51 l 608 163 b 393 39 569 90 482 39 m 314 1025 b 415 936 314 975 358 936 b 519 1025 474 936 518 975 l 618 1025 b 415 847 617 925 529 847 b 214 1025 303 847 215 925 m 222 393 b 418 154 222 253 296 154 b 611 393 536 154 610 253 b 418 631 614 532 539 631 b 222 393 296 631 222 532 "},"ǧ":{"ha":833,"x_min":0,"x_max":0,"o":"m 393 39 b 82 392 211 39 82 185 b 393 753 82 606 211 753 b 613 621 492 753 579 699 l 614 736 l 740 736 l 740 81 b 415 -225 739 -121 613 -225 b 104 -12 254 -225 138 -140 l 243 -3 b 415 -107 271 -68 331 -107 b 608 53 536 -107 607 -51 l 608 163 b 393 39 569 90 482 39 m 343 1013 l 418 907 l 493 1013 l 622 1013 l 501 846 l 335 846 l 215 1013 m 222 393 b 418 154 222 253 296 154 b 611 393 536 154 610 253 b 418 631 614 532 539 631 b 222 393 296 631 222 532 "},"ĝ":{"ha":833,"x_min":0,"x_max":0,"o":"m 393 39 b 82 392 211 39 82 185 b 393 753 82 606 211 753 b 613 621 492 753 579 699 l 614 736 l 740 736 l 740 81 b 415 -225 739 -121 613 -225 b 104 -12 254 -225 138 -140 l 243 -3 b 415 -107 271 -68 331 -107 b 608 53 536 -107 607 -51 l 608 163 b 393 39 569 90 482 39 m 333 1013 l 500 1013 l 621 846 l 492 846 l 417 951 l 342 846 l 214 846 m 222 393 b 418 154 222 253 296 154 b 611 393 536 154 610 253 b 418 631 614 532 539 631 b 222 393 296 631 222 532 "},"ģ":{"ha":833,"x_min":0,"x_max":0,"o":"m 393 39 b 82 392 211 39 82 185 b 393 753 82 606 211 753 b 613 621 492 753 579 699 l 614 736 l 740 736 l 740 81 b 415 -225 739 -121 613 -225 b 104 -12 254 -225 138 -140 l 243 -3 b 415 -107 271 -68 331 -107 b 608 53 536 -107 607 -51 l 608 163 b 393 39 569 90 482 39 m 222 393 b 418 154 222 253 296 154 b 611 393 536 154 610 253 b 418 631 614 532 539 631 b 222 393 296 631 222 532 m 350 1019 l 451 1242 l 526 1242 l 453 1019 l 525 1019 l 525 849 l 350 849 "},"ġ":{"ha":833,"x_min":0,"x_max":0,"o":"m 393 39 b 82 392 211 39 82 185 b 393 753 82 606 211 753 b 613 621 492 753 579 699 l 614 736 l 740 736 l 740 81 b 415 -225 739 -121 613 -225 b 104 -12 254 -225 138 -140 l 243 -3 b 415 -107 271 -68 331 -107 b 608 53 536 -107 607 -51 l 608 163 b 393 39 569 90 482 39 m 222 393 b 418 154 222 253 296 154 b 611 393 536 154 610 253 b 418 631 614 532 539 631 b 222 393 296 631 222 532 m 344 986 l 490 986 l 490 842 l 344 842 "},"ḡ":{"ha":833,"x_min":0,"x_max":0,"o":"m 393 39 b 82 392 211 39 82 185 b 393 753 82 606 211 753 b 613 621 492 753 579 699 l 614 736 l 740 736 l 740 81 b 415 -225 739 -121 613 -225 b 104 -12 254 -225 138 -140 l 243 -3 b 415 -107 271 -68 331 -107 b 608 53 536 -107 607 -51 l 608 163 b 393 39 569 90 482 39 m 222 393 b 418 154 222 253 296 154 b 611 393 536 154 610 253 b 418 631 614 532 539 631 b 222 393 296 631 222 532 m 236 964 l 599 964 l 599 867 l 236 867 "},"ǥ":{"ha":833,"x_min":0,"x_max":0,"o":"m 392 39 b 81 392 210 39 81 185 b 392 753 81 606 210 753 b 611 621 490 753 578 699 l 613 736 l 739 736 l 739 442 l 810 442 l 810 335 l 739 335 l 739 81 b 414 -225 738 -121 611 -225 b 103 -12 253 -225 136 -140 l 242 -3 b 414 -107 269 -68 329 -107 b 607 53 535 -107 606 -51 l 607 163 b 392 39 568 90 481 39 m 221 393 b 417 154 221 253 294 154 b 604 335 518 154 586 226 l 410 335 l 410 442 l 607 442 b 417 631 593 554 522 631 b 221 393 294 631 221 532 "},"h":{"ha":833,"x_min":0,"x_max":0,"o":"m 271 986 l 271 639 b 483 753 314 717 396 753 b 726 474 647 753 726 632 l 726 0 l 593 0 l 593 432 b 449 633 593 564 551 633 b 271 432 340 633 271 564 l 271 0 l 138 0 l 138 986 "},"ħ":{"ha":833,"x_min":0,"x_max":0,"o":"m 275 986 l 275 915 l 414 915 l 414 807 l 275 807 l 275 639 b 488 753 318 717 400 753 b 731 474 651 753 731 632 l 731 0 l 597 0 l 597 432 b 453 633 597 564 556 633 b 275 432 344 633 275 564 l 275 0 l 142 0 l 142 807 l 29 807 l 29 915 l 142 915 l 142 986 "},"ĥ":{"ha":833,"x_min":0,"x_max":0,"o":"m 271 986 l 271 639 b 483 753 314 717 396 753 b 726 474 647 753 726 632 l 726 0 l 593 0 l 593 432 b 449 633 593 564 551 633 b 271 432 340 633 271 564 l 271 0 l 138 0 l 138 986 m 119 1263 l 286 1263 l 407 1096 l 278 1096 l 203 1201 l 128 1096 l 0 1096 "},"i":{"ha":833,"x_min":0,"x_max":0,"o":"m 532 117 l 778 117 l 778 0 l 113 0 l 113 117 l 399 117 l 399 619 l 139 619 l 139 736 l 532 736 m 386 986 l 532 986 l 532 842 l 386 842 "},"ı":{"ha":833,"x_min":0,"x_max":0,"o":"m 532 117 l 778 117 l 778 0 l 113 0 l 113 117 l 399 117 l 399 619 l 139 619 l 139 736 l 532 736 "},"í":{"ha":833,"x_min":0,"x_max":0,"o":"m 532 117 l 778 117 l 778 0 l 113 0 l 113 117 l 399 117 l 399 619 l 139 619 l 139 736 l 532 736 m 493 1054 l 632 1054 l 514 846 l 406 846 "},"î":{"ha":833,"x_min":0,"x_max":0,"o":"m 532 117 l 778 117 l 778 0 l 113 0 l 113 117 l 399 117 l 399 619 l 139 619 l 139 736 l 532 736 m 376 1013 l 543 1013 l 664 846 l 535 846 l 460 951 l 385 846 l 257 846 "},"ï":{"ha":833,"x_min":0,"x_max":0,"o":"m 532 117 l 778 117 l 778 0 l 113 0 l 113 117 l 399 117 l 399 619 l 139 619 l 139 736 l 532 736 m 253 985 l 399 985 l 399 840 l 253 840 m 518 985 l 664 985 l 664 840 l 518 840 "},"ì":{"ha":833,"x_min":0,"x_max":0,"o":"m 532 117 l 778 117 l 778 0 l 113 0 l 113 117 l 399 117 l 399 619 l 139 619 l 139 736 l 532 736 m 426 1054 l 514 846 l 406 846 l 288 1054 "},"ī":{"ha":833,"x_min":0,"x_max":0,"o":"m 532 117 l 778 117 l 778 0 l 113 0 l 113 117 l 399 117 l 399 619 l 139 619 l 139 736 l 532 736 m 279 964 l 642 964 l 642 867 l 279 867 "},"į":{"ha":833,"x_min":0,"x_max":0,"o":"m 532 117 l 778 117 l 778 0 l 738 -57 b 694 -147 718 -85 694 -119 b 740 -194 694 -174 714 -194 b 826 -165 765 -194 797 -179 l 826 -261 b 715 -300 793 -289 753 -300 b 590 -181 647 -299 590 -249 b 644 -54 590 -136 607 -93 l 693 0 l 113 0 l 113 117 l 399 117 l 399 619 l 139 619 l 139 736 l 532 736 m 386 986 l 532 986 l 532 842 l 386 842 "},"ĩ":{"ha":833,"x_min":0,"x_max":0,"o":"m 532 117 l 778 117 l 778 0 l 113 0 l 113 117 l 399 117 l 399 619 l 139 619 l 139 736 l 532 736 m 225 846 b 365 1029 226 960 281 1029 b 465 992 414 1029 442 1015 b 546 938 494 965 510 938 b 600 1028 582 938 600 968 l 694 1028 b 553 843 693 917 639 843 b 446 890 499 843 469 865 b 374 935 422 913 404 935 b 319 846 339 935 319 907 l 225 846 "},"j":{"ha":833,"x_min":0,"x_max":0,"o":"m 618 18 b 417 -208 618 -117 549 -208 l 156 -208 l 156 -92 l 400 -92 b 486 18 453 -92 486 -46 l 486 619 l 157 619 l 157 736 l 618 736 l 618 18 m 474 986 l 619 986 l 619 842 l 474 842 "},"ȷ":{"ha":833,"x_min":0,"x_max":0,"o":"m 618 18 b 417 -208 618 -117 549 -208 l 156 -208 l 156 -92 l 400 -92 b 486 18 453 -92 486 -46 l 486 619 l 157 619 l 157 736 l 618 736 l 618 18 "},"ĵ":{"ha":833,"x_min":0,"x_max":0,"o":"m 618 18 b 417 -208 618 -117 549 -208 l 156 -208 l 156 -92 l 400 -92 b 486 18 453 -92 486 -46 l 486 619 l 157 619 l 157 736 l 618 736 l 618 18 m 463 1013 l 629 1013 l 750 846 l 621 846 l 546 951 l 471 846 l 343 846 "},"k":{"ha":833,"x_min":0,"x_max":0,"o":"m 250 986 l 250 365 l 579 736 l 760 736 l 472 424 l 775 0 l 611 0 l 383 329 l 250 174 l 250 0 l 117 0 l 117 986 "},"ǩ":{"ha":833,"x_min":0,"x_max":0,"o":"m 250 986 l 250 365 l 579 736 l 760 736 l 472 424 l 775 0 l 611 0 l 383 329 l 250 174 l 250 0 l 117 0 l 117 986 m 108 1263 l 183 1157 l 258 1263 l 388 1263 l 267 1096 l 100 1096 l -19 1263 "},"ķ":{"ha":833,"x_min":0,"x_max":0,"o":"m 250 986 l 250 365 l 579 736 l 760 736 l 472 424 l 775 0 l 611 0 l 383 329 l 250 174 l 250 0 l 117 0 l 117 986 m 360 -83 l 499 -83 l 381 -292 l 272 -292 "},"l":{"ha":833,"x_min":0,"x_max":0,"o":"m 392 117 l 392 785 b 311 869 392 843 367 869 l 138 869 l 138 986 l 311 986 b 524 785 449 986 524 915 l 524 117 l 775 117 l 775 0 l 113 0 l 113 117 "},"ĺ":{"ha":833,"x_min":0,"x_max":0,"o":"m 392 117 l 392 785 b 311 869 392 843 367 869 l 138 869 l 138 986 l 311 986 b 524 785 449 986 524 915 l 524 117 l 775 117 l 775 0 l 113 0 l 113 117 m 490 1304 l 629 1304 l 511 1096 l 403 1096 "},"ľ":{"ha":833,"x_min":0,"x_max":0,"o":"m 388 117 l 388 785 b 307 869 388 843 363 869 l 133 869 l 133 986 l 307 986 b 519 785 444 986 519 915 l 519 117 l 771 117 l 771 0 l 108 0 l 108 117 m 683 815 l 611 815 l 611 986 l 786 986 l 786 815 l 685 593 l 610 593 "},"ļ":{"ha":833,"x_min":0,"x_max":0,"o":"m 392 117 l 392 785 b 311 869 392 843 367 869 l 138 869 l 138 986 l 311 986 b 524 785 449 986 524 915 l 524 117 l 775 117 l 775 0 l 113 0 l 113 117 m 390 -83 l 529 -83 l 411 -292 l 303 -292 "},"ł":{"ha":833,"x_min":0,"x_max":0,"o":"m 415 117 l 415 454 l 338 422 l 296 519 l 415 569 l 415 785 b 335 869 415 843 390 869 l 161 869 l 161 986 l 335 986 b 547 785 472 986 547 915 l 547 625 l 640 664 l 682 565 l 547 510 l 547 117 l 799 117 l 799 0 l 136 0 l 136 117 "},"m":{"ha":833,"x_min":0,"x_max":0,"o":"m 178 736 l 182 635 b 332 753 210 711 260 753 b 460 618 397 753 438 711 b 618 753 486 701 543 753 b 782 450 731 753 782 657 l 782 0 l 650 0 l 650 450 b 578 640 650 588 631 640 b 486 450 519 640 486 574 l 486 0 l 354 0 l 354 450 b 275 640 354 586 333 640 b 192 450 222 640 192 574 l 192 0 l 58 0 l 58 736 "},"n":{"ha":833,"x_min":0,"x_max":0,"o":"m 253 736 l 257 611 b 476 753 296 707 378 753 b 721 474 640 753 721 632 l 721 0 l 589 0 l 589 439 b 443 640 589 571 546 640 b 265 439 335 640 265 571 l 265 0 l 132 0 l 132 736 "},"ń":{"ha":833,"x_min":0,"x_max":0,"o":"m 253 736 l 257 611 b 476 753 296 707 378 753 b 721 474 640 753 721 632 l 721 0 l 589 0 l 589 439 b 443 640 589 571 546 640 b 265 439 335 640 265 571 l 265 0 l 132 0 l 132 736 m 458 1054 l 597 1054 l 479 846 l 371 846 "},"ň":{"ha":833,"x_min":0,"x_max":0,"o":"m 253 736 l 257 611 b 476 753 296 707 378 753 b 721 474 640 753 721 632 l 721 0 l 589 0 l 589 439 b 443 640 589 571 546 640 b 265 439 335 640 265 571 l 265 0 l 132 0 l 132 736 m 351 1013 l 426 907 l 501 1013 l 631 1013 l 510 846 l 343 846 l 224 1013 "},"ņ":{"ha":833,"x_min":0,"x_max":0,"o":"m 253 736 l 257 611 b 476 753 296 707 378 753 b 721 474 640 753 721 632 l 721 0 l 589 0 l 589 439 b 443 640 589 571 546 640 b 265 439 335 640 265 571 l 265 0 l 132 0 l 132 736 m 360 -83 l 499 -83 l 381 -292 l 272 -292 "},"ñ":{"ha":833,"x_min":0,"x_max":0,"o":"m 253 736 l 257 611 b 476 753 296 707 378 753 b 721 474 640 753 721 632 l 721 0 l 589 0 l 589 439 b 443 640 589 571 546 640 b 265 439 335 640 265 571 l 265 0 l 132 0 l 132 736 m 190 846 b 331 1029 192 960 246 1029 b 431 992 379 1029 407 1015 b 511 938 460 965 475 938 b 565 1028 547 938 565 968 l 660 1028 b 518 843 658 917 604 843 b 411 890 464 843 435 865 b 339 935 388 913 369 935 b 285 846 304 935 285 907 l 190 846 "},"ŋ":{"ha":833,"x_min":0,"x_max":0,"o":"m 253 736 l 257 611 b 476 753 296 707 378 753 b 721 474 640 753 721 632 l 721 -10 b 513 -208 721 -131 640 -208 l 394 -208 l 394 -99 l 501 -99 b 589 -10 556 -99 589 -64 l 589 439 b 443 640 589 571 546 640 b 265 439 335 640 265 571 l 265 0 l 132 0 l 132 736 "},"o":{"ha":833,"x_min":0,"x_max":0,"o":"m 417 -17 b 76 368 213 -17 76 136 b 417 753 76 600 213 753 b 757 368 621 753 757 600 b 417 -17 757 136 621 -17 m 215 368 b 417 107 215 206 289 107 b 618 368 544 107 618 206 b 417 629 618 531 544 629 b 215 368 289 629 215 531 "},"ó":{"ha":833,"x_min":0,"x_max":0,"o":"m 417 -17 b 76 368 213 -17 76 136 b 417 753 76 600 213 753 b 757 368 621 753 757 600 b 417 -17 757 136 621 -17 m 215 368 b 417 107 215 206 289 107 b 618 368 544 107 618 206 b 417 629 618 531 544 629 b 215 368 289 629 215 531 m 450 1054 l 589 1054 l 471 846 l 363 846 "},"ô":{"ha":833,"x_min":0,"x_max":0,"o":"m 417 -17 b 76 368 213 -17 76 136 b 417 753 76 600 213 753 b 757 368 621 753 757 600 b 417 -17 757 136 621 -17 m 332 1013 l 499 1013 l 619 846 l 490 846 l 415 951 l 340 846 l 213 846 m 215 368 b 417 107 215 206 289 107 b 618 368 544 107 618 206 b 417 629 618 531 544 629 b 215 368 289 629 215 531 "},"ö":{"ha":833,"x_min":0,"x_max":0,"o":"m 417 -17 b 76 368 213 -17 76 136 b 417 753 76 600 213 753 b 757 368 621 753 757 600 b 417 -17 757 136 621 -17 m 210 985 l 356 985 l 356 840 l 210 840 m 215 368 b 417 107 215 206 289 107 b 618 368 544 107 618 206 b 417 629 618 531 544 629 b 215 368 289 629 215 531 m 475 985 l 621 985 l 621 840 l 475 840 "},"ò":{"ha":833,"x_min":0,"x_max":0,"o":"m 417 -17 b 76 368 213 -17 76 136 b 417 753 76 600 213 753 b 757 368 621 753 757 600 b 417 -17 757 136 621 -17 m 215 368 b 417 107 215 206 289 107 b 618 368 544 107 618 206 b 417 629 618 531 544 629 b 215 368 289 629 215 531 m 383 1054 l 471 846 l 363 846 l 244 1054 "},"ő":{"ha":833,"x_min":0,"x_max":0,"o":"m 417 -17 b 76 368 213 -17 76 136 b 417 753 76 600 213 753 b 757 368 621 753 757 600 b 417 -17 757 136 621 -17 m 215 368 b 417 107 215 206 289 107 b 618 368 544 107 618 206 b 417 629 618 531 544 629 b 215 368 289 629 215 531 m 338 1054 l 476 1054 l 358 846 l 250 846 m 542 1054 l 681 1054 l 563 846 l 454 846 "},"ō":{"ha":833,"x_min":0,"x_max":0,"o":"m 417 -17 b 76 368 213 -17 76 136 b 417 753 76 600 213 753 b 757 368 621 753 757 600 b 417 -17 757 136 621 -17 m 215 368 b 417 107 215 206 289 107 b 618 368 544 107 618 206 b 417 629 618 531 544 629 b 215 368 289 629 215 531 m 235 964 l 597 964 l 597 867 l 235 867 "},"ø":{"ha":833,"x_min":0,"x_max":0,"o":"m 417 -17 b 210 51 336 -17 265 7 l 154 -17 l 26 -17 l 143 124 b 76 368 100 188 76 271 b 417 753 76 600 213 753 b 614 693 493 753 560 732 l 664 753 l 792 753 l 683 622 b 757 368 731 557 757 471 b 417 -17 757 136 621 -17 m 215 368 b 236 236 215 318 222 274 l 532 593 b 417 629 501 617 463 629 b 215 368 289 629 215 531 m 293 150 b 417 107 325 122 367 107 b 618 368 544 107 618 206 b 593 513 618 424 610 472 l 293 150 "},"õ":{"ha":833,"x_min":0,"x_max":0,"o":"m 417 -17 b 76 368 213 -17 76 136 b 417 753 76 600 213 753 b 757 368 621 753 757 600 b 417 -17 757 136 621 -17 m 182 846 b 322 1029 183 960 238 1029 b 422 992 371 1029 399 1015 b 503 938 451 965 467 938 b 557 1028 539 938 557 968 l 651 1028 b 510 843 650 917 596 843 b 403 890 456 843 426 865 b 331 935 379 913 361 935 b 276 846 296 935 276 907 l 182 846 m 215 368 b 417 107 215 206 289 107 b 618 368 544 107 618 206 b 417 629 618 531 544 629 b 215 368 289 629 215 531 "},"œ":{"ha":833,"x_min":0,"x_max":0,"o":"m 244 -17 b 14 368 103 -17 14 132 b 244 753 14 604 103 753 b 413 653 315 753 372 717 b 590 753 454 718 514 753 b 821 381 732 753 813 631 l 821 331 l 478 331 b 590 107 483 186 525 107 b 686 225 642 107 668 139 l 813 213 b 590 -17 779 51 714 -17 b 413 83 514 -17 454 18 b 244 -17 372 19 315 -17 m 139 368 b 244 107 139 206 181 107 b 350 368 310 107 350 206 b 244 629 350 531 310 629 b 139 368 181 629 139 531 m 690 438 b 585 629 682 565 646 629 b 481 438 525 629 490 565 "},"p":{"ha":833,"x_min":0,"x_max":0,"o":"m 107 736 l 229 736 l 233 625 b 456 753 275 707 350 753 b 767 368 668 753 767 575 b 456 -17 767 161 668 -17 b 240 103 356 -17 282 25 l 240 -208 l 107 -208 m 228 368 b 426 107 228 233 288 107 b 625 368 567 107 625 231 b 426 629 625 506 567 629 b 228 368 288 629 228 503 "},"þ":{"ha":833,"x_min":0,"x_max":0,"o":"m 150 986 l 150 653 b 361 753 190 717 261 753 b 678 368 574 753 678 575 b 361 -17 678 161 574 -17 b 150 81 264 -17 192 19 l 150 -208 l 0 -208 l 0 986 m 136 368 b 331 115 136 239 194 115 b 525 368 469 115 525 236 b 331 625 525 504 469 625 b 136 368 194 625 136 501 "},"q":{"ha":833,"x_min":0,"x_max":0,"o":"m 593 -208 l 593 103 b 378 -17 551 25 478 -17 b 67 368 165 -17 67 161 b 378 753 67 575 165 753 b 600 625 483 753 558 707 l 604 736 l 726 736 l 726 -208 m 208 368 b 407 107 208 231 267 107 b 606 368 546 107 606 233 b 407 629 606 503 546 629 b 208 368 267 629 208 506 "},"r":{"ha":833,"x_min":0,"x_max":0,"o":"m 414 597 b 597 736 440 692 500 736 l 747 736 l 747 619 l 601 619 b 442 435 492 619 442 557 l 442 117 l 676 117 l 676 0 l 119 0 l 119 117 l 308 117 l 308 619 l 119 619 l 119 736 l 404 736 "},"ŕ":{"ha":833,"x_min":0,"x_max":0,"o":"m 414 597 b 597 736 440 692 500 736 l 747 736 l 747 619 l 601 619 b 442 435 492 619 442 557 l 442 117 l 676 117 l 676 0 l 119 0 l 119 117 l 308 117 l 308 619 l 119 619 l 119 736 l 404 736 m 504 1054 l 643 1054 l 525 846 l 417 846 "},"ř":{"ha":833,"x_min":0,"x_max":0,"o":"m 414 597 b 597 736 440 692 500 736 l 747 736 l 747 619 l 601 619 b 442 435 492 619 442 557 l 442 117 l 676 117 l 676 0 l 119 0 l 119 117 l 308 117 l 308 619 l 119 619 l 119 736 l 404 736 m 397 1013 l 472 907 l 547 1013 l 676 1013 l 556 846 l 389 846 l 269 1013 "},"ŗ":{"ha":833,"x_min":0,"x_max":0,"o":"m 414 597 b 597 736 440 692 500 736 l 747 736 l 747 619 l 601 619 b 442 435 492 619 442 557 l 442 117 l 676 117 l 676 0 l 119 0 l 119 117 l 308 117 l 308 619 l 119 619 l 119 736 l 404 736 m 310 -83 l 449 -83 l 331 -292 l 222 -292 "},"s":{"ha":833,"x_min":0,"x_max":0,"o":"m 582 506 b 407 629 567 585 494 629 b 271 525 335 629 268 594 b 443 413 271 453 358 435 b 724 190 585 378 724 326 b 432 -17 724 46 585 -17 b 110 233 260 -17 119 81 l 249 242 b 432 107 261 158 336 107 b 583 197 507 107 583 126 b 407 303 583 269 489 283 b 132 521 267 336 132 389 b 419 753 131 668 264 753 b 718 514 574 753 694 660 l 582 506 "},"ś":{"ha":833,"x_min":0,"x_max":0,"o":"m 582 506 b 407 629 567 585 494 629 b 271 525 335 629 268 594 b 443 413 271 453 358 435 b 724 190 585 378 724 326 b 432 -17 724 46 585 -17 b 110 233 260 -17 119 81 l 249 242 b 432 107 261 158 336 107 b 583 197 507 107 583 126 b 407 303 583 269 489 283 b 132 521 267 336 132 389 b 419 753 131 668 264 753 b 718 514 574 753 694 660 l 582 506 m 453 1054 l 592 1054 l 474 846 l 365 846 "},"ꞌ":{"ha":833,"x_min":0,"x_max":0,"o":"m 482 986 l 482 793 l 464 519 l 371 519 l 351 793 l 351 986 "},"š":{"ha":833,"x_min":0,"x_max":0,"o":"m 582 506 b 407 629 567 585 494 629 b 271 525 335 629 268 594 b 443 413 271 453 358 435 b 724 190 585 378 724 326 b 432 -17 724 46 585 -17 b 110 233 260 -17 119 81 l 249 242 b 432 107 261 158 336 107 b 583 197 507 107 583 126 b 407 303 583 269 489 283 b 132 521 267 336 132 389 b 419 753 131 668 264 753 b 718 514 574 753 694 660 l 582 506 m 344 1013 l 419 907 l 494 1013 l 624 1013 l 503 846 l 336 846 l 217 1013 "},"ş":{"ha":833,"x_min":0,"x_max":0,"o":"m 582 506 b 407 629 567 585 494 629 b 271 525 335 629 268 594 b 443 413 271 453 358 435 b 724 190 585 378 724 326 b 447 -17 724 50 593 -12 l 417 -49 b 551 -178 494 -49 551 -103 b 410 -312 551 -254 488 -312 b 239 -215 342 -312 294 -281 l 304 -156 b 403 -225 324 -181 356 -225 b 465 -168 440 -225 465 -203 b 364 -119 465 -125 418 -106 l 322 -65 l 371 -12 b 110 233 228 8 118 99 l 249 242 b 432 107 261 158 336 107 b 583 197 507 107 583 126 b 407 303 583 269 489 283 b 132 521 267 336 132 389 b 419 753 131 668 264 753 b 718 514 574 753 694 660 l 582 506 "},"ŝ":{"ha":833,"x_min":0,"x_max":0,"o":"m 582 506 b 407 629 567 585 494 629 b 271 525 335 629 268 594 b 443 413 271 453 358 435 b 724 190 585 378 724 326 b 432 -17 724 46 585 -17 b 110 233 260 -17 119 81 l 249 242 b 432 107 261 158 336 107 b 583 197 507 107 583 126 b 407 303 583 269 489 283 b 132 521 267 336 132 389 b 419 753 131 668 264 753 b 718 514 574 753 694 660 l 582 506 m 335 1013 l 501 1013 l 622 846 l 493 846 l 418 951 l 343 846 l 215 846 "},"ș":{"ha":833,"x_min":0,"x_max":0,"o":"m 582 506 b 407 629 567 585 494 629 b 271 525 335 629 268 594 b 443 413 271 453 358 435 b 724 190 585 378 724 326 b 432 -17 724 46 585 -17 b 110 233 260 -17 119 81 l 249 242 b 432 107 261 158 336 107 b 583 197 507 107 583 126 b 407 303 583 269 489 283 b 132 521 267 336 132 389 b 419 753 131 668 264 753 b 718 514 574 753 694 660 l 582 506 m 354 -83 l 493 -83 l 375 -292 l 267 -292 "},"ß":{"ha":833,"x_min":0,"x_max":0,"o":"m 324 125 l 324 0 l 413 0 b 763 275 603 0 763 94 b 553 531 763 407 676 500 b 701 746 649 563 701 647 b 406 1003 701 899 578 1003 b 96 679 225 1003 96 886 l 96 0 l 232 0 l 232 682 b 403 878 232 811 301 878 b 564 733 497 878 564 818 b 397 581 564 643 494 578 l 338 582 l 338 456 l 397 457 b 622 288 519 460 622 406 b 408 125 622 178 522 125 "},"t":{"ha":833,"x_min":0,"x_max":0,"o":"m 426 931 l 426 736 l 715 736 l 715 619 l 426 619 l 426 217 b 522 117 426 154 460 117 l 714 117 l 714 0 l 514 0 b 294 211 360 0 294 82 l 294 619 l 85 619 l 85 736 l 294 736 l 294 931 "},"ŧ":{"ha":833,"x_min":0,"x_max":0,"o":"m 426 931 l 426 736 l 715 736 l 715 619 l 426 619 l 426 442 l 715 442 l 715 335 l 426 335 l 426 217 b 522 117 426 154 460 117 l 714 117 l 714 0 l 514 0 b 294 211 360 0 294 82 l 294 335 l 88 335 l 88 442 l 294 442 l 294 619 l 85 619 l 85 736 l 294 736 l 294 931 "},"ť":{"ha":833,"x_min":0,"x_max":0,"o":"m 426 931 l 426 736 l 715 736 l 715 619 l 426 619 l 426 217 b 522 117 426 154 460 117 l 714 117 l 714 0 l 514 0 b 294 211 360 0 294 82 l 294 619 l 85 619 l 85 736 l 294 736 l 294 931 m 579 1044 l 507 1044 l 507 1211 l 682 1211 l 682 1044 l 581 826 l 506 826 "},"ţ":{"ha":833,"x_min":0,"x_max":0,"o":"m 426 931 l 426 736 l 715 736 l 715 619 l 426 619 l 426 217 b 522 117 426 154 460 117 l 714 117 l 714 0 l 514 0 b 485 1 504 0 494 0 l 439 -49 b 574 -178 517 -49 574 -103 b 432 -312 574 -254 510 -312 b 261 -215 364 -312 317 -281 l 326 -156 b 425 -225 346 -181 378 -225 b 488 -168 463 -225 488 -203 b 386 -119 488 -125 440 -106 l 344 -65 l 417 14 b 294 211 332 43 294 113 l 294 619 l 85 619 l 85 736 l 294 736 l 294 931 "},"ț":{"ha":833,"x_min":0,"x_max":0,"o":"m 426 931 l 426 736 l 715 736 l 715 619 l 426 619 l 426 217 b 522 117 426 154 460 117 l 714 117 l 714 0 l 514 0 b 294 211 360 0 294 82 l 294 619 l 85 619 l 85 736 l 294 736 l 294 931 m 375 -83 l 514 -83 l 396 -292 l 288 -292 "},"u":{"ha":833,"x_min":0,"x_max":0,"o":"m 578 0 l 576 121 b 361 -17 538 28 457 -17 b 121 263 200 -17 121 104 l 121 736 l 254 736 l 254 297 b 396 96 254 165 297 96 b 571 297 501 96 571 165 l 571 736 l 703 736 l 703 0 "},"ú":{"ha":833,"x_min":0,"x_max":0,"o":"m 578 0 l 576 121 b 361 -17 538 28 457 -17 b 121 263 200 -17 121 104 l 121 736 l 254 736 l 254 297 b 396 96 254 165 297 96 b 571 297 501 96 571 165 l 571 736 l 703 736 l 703 0 m 442 1054 l 581 1054 l 463 846 l 354 846 "},"ŭ":{"ha":833,"x_min":0,"x_max":0,"o":"m 578 0 l 576 121 b 361 -17 538 28 457 -17 b 121 263 200 -17 121 104 l 121 736 l 254 736 l 254 297 b 396 96 254 165 297 96 b 571 297 501 96 571 165 l 571 736 l 703 736 l 703 0 m 307 1025 b 408 936 307 975 351 936 b 513 1025 467 936 511 975 l 611 1025 b 408 847 610 925 522 847 b 207 1025 296 847 208 925 "},"û":{"ha":833,"x_min":0,"x_max":0,"o":"m 578 0 l 576 121 b 361 -17 538 28 457 -17 b 121 263 200 -17 121 104 l 121 736 l 254 736 l 254 297 b 396 96 254 165 297 96 b 571 297 501 96 571 165 l 571 736 l 703 736 l 703 0 m 324 1013 l 490 1013 l 611 846 l 482 846 l 407 951 l 332 846 l 204 846 "},"ü":{"ha":833,"x_min":0,"x_max":0,"o":"m 578 0 l 576 121 b 361 -17 538 28 457 -17 b 121 263 200 -17 121 104 l 121 736 l 254 736 l 254 297 b 396 96 254 165 297 96 b 571 297 501 96 571 165 l 571 736 l 703 736 l 703 0 m 201 985 l 347 985 l 347 840 l 201 840 m 467 985 l 613 985 l 613 840 l 467 840 "},"ù":{"ha":833,"x_min":0,"x_max":0,"o":"m 578 0 l 576 121 b 361 -17 538 28 457 -17 b 121 263 200 -17 121 104 l 121 736 l 254 736 l 254 297 b 396 96 254 165 297 96 b 571 297 501 96 571 165 l 571 736 l 703 736 l 703 0 m 375 1054 l 463 846 l 354 846 l 236 1054 "},"ű":{"ha":833,"x_min":0,"x_max":0,"o":"m 578 0 l 576 121 b 361 -17 538 28 457 -17 b 121 263 200 -17 121 104 l 121 736 l 254 736 l 254 297 b 396 96 254 165 297 96 b 571 297 501 96 571 165 l 571 736 l 703 736 l 703 0 m 329 1054 l 468 1054 l 350 846 l 242 846 m 533 1054 l 672 1054 l 554 846 l 446 846 "},"ū":{"ha":833,"x_min":0,"x_max":0,"o":"m 578 0 l 576 121 b 361 -17 538 28 457 -17 b 121 263 200 -17 121 104 l 121 736 l 254 736 l 254 297 b 396 96 254 165 297 96 b 571 297 501 96 571 165 l 571 736 l 703 736 l 703 0 m 226 964 l 589 964 l 589 867 l 226 867 "},"ų":{"ha":833,"x_min":0,"x_max":0,"o":"m 704 0 l 664 -57 b 621 -147 644 -85 621 -119 b 667 -194 621 -174 640 -194 b 753 -165 692 -194 724 -179 l 753 -261 b 642 -300 719 -289 679 -300 b 517 -181 574 -299 517 -249 b 571 -54 517 -136 533 -93 l 619 0 l 578 0 l 576 121 b 361 -17 538 28 457 -17 b 121 263 200 -17 121 104 l 121 736 l 254 736 l 254 297 b 396 96 254 165 297 96 b 571 297 501 96 571 165 l 571 736 l 703 736 l 703 0 "},"ů":{"ha":833,"x_min":0,"x_max":0,"o":"m 578 0 l 576 121 b 361 -17 538 28 457 -17 b 121 263 200 -17 121 104 l 121 736 l 254 736 l 254 297 b 396 96 254 165 297 96 b 571 297 501 96 571 165 l 571 736 l 703 736 l 703 0 m 264 956 b 408 1100 264 1035 328 1100 b 551 956 489 1100 551 1035 b 408 813 551 875 489 813 b 264 956 328 813 264 875 m 351 956 b 408 900 351 925 376 900 b 464 956 440 900 464 925 b 408 1013 464 988 440 1013 b 351 956 376 1013 351 988 "},"ũ":{"ha":833,"x_min":0,"x_max":0,"o":"m 578 0 l 576 121 b 361 -17 538 28 457 -17 b 121 263 200 -17 121 104 l 121 736 l 254 736 l 254 297 b 396 96 254 165 297 96 b 571 297 501 96 571 165 l 571 736 l 703 736 l 703 0 m 174 846 b 314 1029 175 960 229 1029 b 414 992 363 1029 390 1015 b 494 938 443 965 458 938 b 549 1028 531 938 549 968 l 643 1028 b 501 843 642 917 588 843 b 394 890 447 843 418 865 b 322 935 371 913 353 935 b 268 846 288 935 268 907 l 174 846 "},"v":{"ha":833,"x_min":0,"x_max":0,"o":"m 499 0 l 335 0 l 68 736 l 210 736 l 417 142 l 622 736 l 765 736 "},"w":{"ha":833,"x_min":0,"x_max":0,"o":"m 579 193 l 672 736 l 810 736 l 663 0 l 513 0 l 417 433 l 321 0 l 171 0 l 24 736 l 161 736 l 254 193 l 351 639 l 482 639 "},"ẃ":{"ha":833,"x_min":0,"x_max":0,"o":"m 579 193 l 672 736 l 810 736 l 663 0 l 513 0 l 417 433 l 321 0 l 171 0 l 24 736 l 161 736 l 254 193 l 351 639 l 482 639 m 450 1054 l 589 1054 l 471 846 l 363 846 "},"ŵ":{"ha":833,"x_min":0,"x_max":0,"o":"m 579 193 l 672 736 l 810 736 l 663 0 l 513 0 l 417 433 l 321 0 l 171 0 l 24 736 l 161 736 l 254 193 l 351 639 l 482 639 m 332 1013 l 499 1013 l 619 846 l 490 846 l 415 951 l 340 846 l 213 846 "},"ẅ":{"ha":833,"x_min":0,"x_max":0,"o":"m 579 193 l 672 736 l 810 736 l 663 0 l 513 0 l 417 433 l 321 0 l 171 0 l 24 736 l 161 736 l 254 193 l 351 639 l 482 639 m 210 985 l 356 985 l 356 840 l 210 840 m 475 985 l 621 985 l 621 840 l 475 840 "},"ẁ":{"ha":833,"x_min":0,"x_max":0,"o":"m 579 193 l 672 736 l 810 736 l 663 0 l 513 0 l 417 433 l 321 0 l 171 0 l 24 736 l 161 736 l 254 193 l 351 639 l 482 639 m 383 1054 l 471 846 l 363 846 l 244 1054 "},"x":{"ha":833,"x_min":0,"x_max":0,"o":"m 753 736 l 499 376 l 765 0 l 603 0 l 417 272 l 229 0 l 67 0 l 336 378 l 81 736 l 243 736 l 417 481 l 589 736 "},"y":{"ha":833,"x_min":0,"x_max":0,"o":"m 214 736 l 425 150 l 628 736 l 769 736 l 474 -86 b 297 -208 444 -169 388 -208 l 201 -208 l 201 -93 l 281 -93 b 356 -40 319 -93 342 -78 l 381 22 l 339 22 l 72 736 "},"ý":{"ha":833,"x_min":0,"x_max":0,"o":"m 214 736 l 425 150 l 628 736 l 769 736 l 474 -86 b 297 -208 444 -169 388 -208 l 201 -208 l 201 -93 l 281 -93 b 356 -40 319 -93 342 -78 l 381 22 l 339 22 l 72 736 m 454 1054 l 593 1054 l 475 846 l 367 846 "},"ŷ":{"ha":833,"x_min":0,"x_max":0,"o":"m 214 736 l 425 150 l 628 736 l 769 736 l 474 -86 b 297 -208 444 -169 388 -208 l 201 -208 l 201 -93 l 281 -93 b 356 -40 319 -93 342 -78 l 381 22 l 339 22 l 72 736 m 338 1013 l 504 1013 l 625 846 l 496 846 l 421 951 l 346 846 l 218 846 "},"ÿ":{"ha":833,"x_min":0,"x_max":0,"o":"m 214 736 l 425 150 l 628 736 l 769 736 l 474 -86 b 297 -208 444 -169 388 -208 l 201 -208 l 201 -93 l 281 -93 b 356 -40 319 -93 342 -78 l 381 22 l 339 22 l 72 736 m 214 985 l 360 985 l 360 840 l 214 840 m 479 985 l 625 985 l 625 840 l 479 840 "},"ỳ":{"ha":833,"x_min":0,"x_max":0,"o":"m 214 736 l 425 150 l 628 736 l 769 736 l 474 -86 b 297 -208 444 -169 388 -208 l 201 -208 l 201 -93 l 281 -93 b 356 -40 319 -93 342 -78 l 381 22 l 339 22 l 72 736 m 388 1054 l 475 846 l 367 846 l 249 1054 "},"ỹ":{"ha":833,"x_min":0,"x_max":0,"o":"m 214 736 l 425 150 l 628 736 l 769 736 l 474 -86 b 297 -208 444 -169 388 -208 l 201 -208 l 201 -93 l 281 -93 b 356 -40 319 -93 342 -78 l 381 22 l 339 22 l 72 736 m 186 846 b 326 1029 188 960 242 1029 b 426 992 375 1029 403 1015 b 507 938 456 965 471 938 b 561 1028 543 938 561 968 l 656 1028 b 514 843 654 917 600 843 b 407 890 460 843 431 865 b 335 935 383 913 365 935 b 281 846 300 935 281 907 l 186 846 "},"z":{"ha":833,"x_min":0,"x_max":0,"o":"m 263 118 l 726 118 l 726 0 l 107 0 l 107 138 l 561 618 l 121 618 l 121 736 l 715 736 l 715 594 "},"ź":{"ha":833,"x_min":0,"x_max":0,"o":"m 263 118 l 726 118 l 726 0 l 107 0 l 107 138 l 561 618 l 121 618 l 121 736 l 715 736 l 715 594 m 451 1054 l 590 1054 l 472 846 l 364 846 "},"ž":{"ha":833,"x_min":0,"x_max":0,"o":"m 263 118 l 726 118 l 726 0 l 107 0 l 107 138 l 561 618 l 121 618 l 121 736 l 715 736 l 715 594 m 343 1013 l 418 907 l 493 1013 l 622 1013 l 501 846 l 335 846 l 215 1013 "},"ż":{"ha":833,"x_min":0,"x_max":0,"o":"m 263 118 l 726 118 l 726 0 l 107 0 l 107 138 l 561 618 l 121 618 l 121 736 l 715 736 l 715 594 m 344 986 l 490 986 l 490 842 l 344 842 "},"ª":{"ha":833,"x_min":0,"x_max":0,"o":"m 100 517 b 406 753 128 660 250 753 b 701 444 585 753 701 649 l 701 165 b 747 117 701 132 715 117 l 778 117 l 778 0 l 740 0 b 586 114 651 0 599 47 b 356 -17 557 44 471 -17 b 88 193 207 -17 88 61 b 369 419 88 344 201 389 l 569 460 b 404 629 567 574 503 629 b 240 507 319 629 257 579 l 100 517 m 228 196 b 372 99 228 143 274 99 b 571 311 485 100 571 178 l 571 344 l 413 317 b 228 196 308 299 226 289 "},"º":{"ha":833,"x_min":0,"x_max":0,"o":"m 417 -17 b 76 368 213 -17 76 136 b 417 753 76 600 213 753 b 757 368 621 753 757 600 b 417 -17 757 136 621 -17 m 215 368 b 417 107 215 206 289 107 b 618 368 544 107 618 206 b 417 629 618 531 544 629 b 215 368 289 629 215 531 "},"А":{"ha":833,"x_min":0,"x_max":0,"o":"m 332 986 l 501 986 l 800 0 l 660 0 l 585 260 l 249 260 l 174 0 l 33 0 m 550 379 l 417 836 l 283 379 "},"Б":{"ha":833,"x_min":0,"x_max":0,"o":"m 108 0 l 108 986 l 728 986 l 728 857 l 246 857 l 246 613 l 417 613 b 764 304 632 613 764 494 b 417 0 764 117 632 0 m 410 129 b 621 304 550 129 621 190 b 410 483 621 421 550 483 l 246 483 l 246 129 "},"В":{"ha":833,"x_min":0,"x_max":0,"o":"m 103 986 l 379 986 b 733 713 608 986 733 889 b 549 510 733 606 660 526 b 775 279 689 494 775 410 b 435 0 775 106 647 0 l 103 0 m 432 129 b 632 283 557 129 632 186 b 432 438 632 381 561 438 l 240 438 l 240 129 m 381 565 b 590 710 517 565 590 617 b 381 857 590 803 517 857 l 240 857 l 240 565 "},"Г":{"ha":833,"x_min":0,"x_max":0,"o":"m 768 986 l 768 857 l 271 857 l 271 0 l 135 0 l 135 986 "},"Ѓ":{"ha":833,"x_min":0,"x_max":0,"o":"m 768 986 l 768 857 l 271 857 l 271 0 l 135 0 l 135 986 m 485 1304 l 624 1304 l 506 1096 l 397 1096 "},"Ґ":{"ha":833,"x_min":0,"x_max":0,"o":"m 782 1201 l 782 857 l 271 857 l 271 0 l 135 0 l 135 986 l 646 986 l 646 1201 "},"Ғ":{"ha":833,"x_min":0,"x_max":0,"o":"m 768 986 l 768 857 l 271 857 l 271 521 l 601 521 l 601 390 l 271 390 l 271 0 l 135 0 l 135 390 l 26 390 l 26 521 l 135 521 l 135 986 "},"Д":{"ha":833,"x_min":0,"x_max":0,"o":"m 688 129 l 807 129 l 807 -208 l 671 -208 l 671 0 l 153 0 l 153 -208 l 17 -208 l 17 129 l 63 129 b 185 313 133 129 171 189 l 257 986 l 688 986 m 551 129 l 551 857 l 381 857 l 321 299 b 265 129 313 225 294 169 "},"Е":{"ha":833,"x_min":0,"x_max":0,"o":"m 746 986 l 746 857 l 254 857 l 254 558 l 729 558 l 729 431 l 254 431 l 254 129 l 757 129 l 757 0 l 118 0 l 118 986 "},"Ѐ":{"ha":833,"x_min":0,"x_max":0,"o":"m 746 986 l 746 857 l 254 857 l 254 558 l 729 558 l 729 431 l 254 431 l 254 129 l 757 129 l 757 0 l 118 0 l 118 986 m 406 1306 l 493 1097 l 385 1097 l 267 1306 "},"Ё":{"ha":833,"x_min":0,"x_max":0,"o":"m 746 986 l 746 857 l 254 857 l 254 558 l 729 558 l 729 431 l 254 431 l 254 129 l 757 129 l 757 0 l 118 0 l 118 986 m 232 1236 l 378 1236 l 378 1092 l 232 1092 m 497 1236 l 643 1236 l 643 1092 l 497 1092 "},"Ж":{"ha":833,"x_min":0,"x_max":0,"o":"m 485 986 l 485 528 l 668 986 l 813 986 l 615 493 l 825 0 l 681 0 l 485 460 l 485 0 l 349 0 l 349 460 l 153 0 l 8 0 l 218 493 l 21 986 l 165 986 l 349 528 l 349 986 "},"З":{"ha":833,"x_min":0,"x_max":0,"o":"m 432 588 b 611 746 510 586 611 628 b 417 879 611 826 532 879 b 221 757 310 879 232 831 l 78 765 b 419 1008 96 908 238 1008 b 753 750 613 1008 753 903 b 574 533 753 640 690 567 b 786 272 711 494 786 396 b 419 -22 786 100 632 -22 b 44 260 213 -22 53 90 l 186 268 b 417 107 194 169 290 107 b 644 282 553 107 644 176 b 432 461 644 407 535 463 l 333 460 l 333 589 l 432 588 "},"И":{"ha":833,"x_min":0,"x_max":0,"o":"m 732 0 l 594 0 l 594 758 l 294 0 l 101 0 l 101 986 l 239 986 l 239 197 l 551 986 l 732 986 "},"Й":{"ha":833,"x_min":0,"x_max":0,"o":"m 732 0 l 594 0 l 594 758 l 294 0 l 101 0 l 101 986 l 239 986 l 239 197 l 551 986 l 732 986 m 300 1275 b 401 1186 300 1225 344 1186 b 506 1275 460 1186 504 1225 l 604 1275 b 401 1097 603 1175 515 1097 b 200 1275 289 1097 201 1175 "},"К":{"ha":833,"x_min":0,"x_max":0,"o":"m 211 986 l 211 506 l 604 986 l 776 986 l 372 493 l 790 0 l 617 0 l 211 482 l 211 0 l 75 0 l 75 986 "},"Ќ":{"ha":833,"x_min":0,"x_max":0,"o":"m 211 986 l 211 506 l 604 986 l 776 986 l 372 493 l 790 0 l 617 0 l 211 482 l 211 0 l 75 0 l 75 986 m 443 1304 l 582 1304 l 464 1096 l 356 1096 "},"Л":{"ha":833,"x_min":0,"x_max":0,"o":"m 764 0 l 628 0 l 628 858 l 376 858 l 322 217 b 122 0 311 85 250 0 l 26 0 l 26 138 l 103 138 b 186 238 154 138 181 176 l 250 986 l 764 986 "},"М":{"ha":833,"x_min":0,"x_max":0,"o":"m 286 986 l 417 308 l 547 986 l 753 986 l 753 0 l 617 0 l 617 813 l 471 69 l 363 69 l 217 811 l 217 0 l 81 0 l 81 986 "},"Н":{"ha":833,"x_min":0,"x_max":0,"o":"m 90 986 l 226 986 l 226 560 l 607 560 l 607 986 l 743 986 l 743 0 l 607 0 l 607 431 l 226 431 l 226 0 l 90 0 "},"О":{"ha":833,"x_min":0,"x_max":0,"o":"m 417 -22 b 50 492 182 -22 50 167 b 417 1008 50 819 182 1008 b 783 492 651 1008 783 819 b 417 -22 783 167 651 -22 m 193 492 b 417 107 193 244 272 107 b 640 492 561 107 640 244 b 417 879 640 740 561 879 b 193 492 272 879 193 740 "},"П":{"ha":833,"x_min":0,"x_max":0,"o":"m 743 0 l 607 0 l 607 857 l 226 857 l 226 0 l 90 0 l 90 986 l 743 986 "},"Р":{"ha":833,"x_min":0,"x_max":0,"o":"m 428 986 b 775 682 643 986 775 869 b 428 374 775 492 643 374 l 257 374 l 257 0 l 119 0 l 119 986 l 428 986 m 421 503 b 632 682 561 503 632 565 b 421 857 632 796 561 857 l 257 857 l 257 503 "},"С":{"ha":833,"x_min":0,"x_max":0,"o":"m 790 333 b 436 -22 756 113 624 -22 b 50 492 190 -22 50 176 b 436 1008 50 810 190 1008 b 783 674 613 1008 743 883 l 639 665 b 435 879 608 807 533 879 b 193 492 279 879 193 740 b 435 107 193 244 279 107 b 647 340 543 107 619 185 l 790 333 "},"Т":{"ha":833,"x_min":0,"x_max":0,"o":"m 778 857 l 485 857 l 485 0 l 349 0 l 349 857 l 56 857 l 56 986 l 778 986 "},"У":{"ha":833,"x_min":0,"x_max":0,"o":"m 214 986 l 425 400 l 628 986 l 776 986 l 468 122 b 292 0 439 39 382 0 l 188 0 l 188 129 l 274 129 b 349 182 311 129 333 143 l 381 272 l 331 272 l 64 986 "},"Ў":{"ha":833,"x_min":0,"x_max":0,"o":"m 214 986 l 425 400 l 628 986 l 776 986 l 468 122 b 292 0 439 39 382 0 l 188 0 l 188 129 l 274 129 b 349 182 311 129 333 143 l 381 272 l 331 272 l 64 986 m 321 1275 b 422 1186 321 1225 365 1186 b 526 1275 481 1186 525 1225 l 625 1275 b 422 1097 624 1175 536 1097 b 221 1275 310 1097 222 1175 "},"Ф":{"ha":833,"x_min":0,"x_max":0,"o":"m 33 493 b 347 881 33 710 153 853 l 347 986 l 483 986 l 483 881 b 800 493 681 854 800 710 b 483 106 800 276 681 132 l 483 0 l 347 0 l 347 106 b 33 493 153 133 33 276 m 176 493 b 347 239 176 358 240 267 l 347 747 b 176 493 240 719 176 628 m 483 238 b 657 493 592 264 657 358 b 483 749 657 628 592 722 l 483 238 "},"Х":{"ha":833,"x_min":0,"x_max":0,"o":"m 764 986 l 503 494 l 767 0 l 607 0 l 415 390 l 224 0 l 67 0 l 331 496 l 69 986 l 229 986 l 418 603 l 607 986 "},"Ч":{"ha":833,"x_min":0,"x_max":0,"o":"m 600 0 l 600 460 b 351 331 556 382 461 331 b 69 644 185 331 69 451 l 69 986 l 206 986 l 206 661 b 361 461 206 538 272 461 b 600 663 499 461 600 543 l 600 986 l 736 986 l 736 0 "},"Ц":{"ha":833,"x_min":0,"x_max":0,"o":"m 588 986 l 724 986 l 724 129 l 814 129 l 814 -208 l 678 -208 l 678 0 l 71 0 l 71 986 l 207 986 l 207 129 l 588 129 "},"Ш":{"ha":833,"x_min":0,"x_max":0,"o":"m 69 986 l 206 986 l 206 129 l 351 129 l 351 986 l 482 986 l 482 129 l 628 129 l 628 986 l 764 986 l 764 0 l 69 0 "},"Щ":{"ha":833,"x_min":0,"x_max":0,"o":"m 44 986 l 179 986 l 179 129 l 324 129 l 324 986 l 453 986 l 453 129 l 597 129 l 597 986 l 733 986 l 733 129 l 814 129 l 814 -208 l 678 -208 l 678 0 l 44 0 "},"Џ":{"ha":833,"x_min":0,"x_max":0,"o":"m 485 0 l 485 -208 l 349 -208 l 349 0 l 90 0 l 90 986 l 226 986 l 226 129 l 607 129 l 607 986 l 743 986 l 743 0 "},"Ь":{"ha":833,"x_min":0,"x_max":0,"o":"m 119 0 l 119 986 l 257 986 l 257 613 l 428 613 b 775 304 643 613 775 494 b 428 0 775 117 643 0 m 421 129 b 632 304 561 129 632 190 b 421 483 632 421 561 483 l 257 483 l 257 129 "},"Ы":{"ha":833,"x_min":0,"x_max":0,"o":"m 43 986 l 181 986 l 181 613 l 238 613 b 579 304 456 613 579 500 b 238 0 579 111 456 0 l 43 0 m 238 129 b 436 304 371 129 436 189 b 238 483 436 422 371 483 l 181 483 l 181 129 m 654 986 l 790 986 l 790 0 l 654 0 "},"Ъ":{"ha":833,"x_min":0,"x_max":0,"o":"m 143 0 l 143 857 l 38 857 l 38 986 l 281 986 l 281 613 l 451 613 b 799 304 667 613 799 494 b 451 0 799 117 667 0 m 444 129 b 656 304 585 129 656 190 b 444 483 656 421 585 483 l 281 483 l 281 129 "},"Љ":{"ha":833,"x_min":0,"x_max":0,"o":"m 521 613 l 557 613 b 828 304 732 613 828 499 b 557 0 828 113 732 0 l 383 0 l 383 858 l 282 858 l 258 217 b 58 0 253 85 186 0 l 6 0 l 6 138 l 39 138 b 122 238 89 138 119 176 l 154 986 l 519 986 m 544 129 b 678 304 638 129 678 188 b 544 483 678 424 638 483 l 521 483 l 521 129 "},"Њ":{"ha":833,"x_min":0,"x_max":0,"o":"m 311 429 l 158 429 l 158 0 l 25 0 l 25 986 l 158 986 l 158 560 l 311 560 l 311 986 l 446 986 l 446 613 l 494 613 b 808 304 707 613 808 499 b 494 0 808 113 707 0 l 311 0 m 479 129 b 657 304 614 129 657 188 b 479 483 657 424 614 483 l 446 483 l 446 129 "},"Ѕ":{"ha":833,"x_min":0,"x_max":0,"o":"m 203 328 b 450 113 228 199 314 113 b 632 256 556 113 633 163 b 381 451 632 349 551 404 b 83 731 174 506 83 593 b 399 1008 83 901 217 1008 b 756 692 596 1008 735 876 l 614 683 b 396 879 599 801 511 879 b 224 729 300 879 222 821 b 463 557 225 621 343 589 b 772 267 633 510 772 417 b 442 -17 772 82 613 -17 b 63 318 235 -17 78 115 l 203 328 "},"Є":{"ha":833,"x_min":0,"x_max":0,"o":"m 475 426 l 194 426 b 417 107 208 221 286 107 b 629 346 529 107 603 192 l 774 346 b 417 -22 739 111 614 -22 b 50 492 182 -22 50 167 b 417 1008 50 819 182 1008 b 774 639 614 1008 738 875 l 629 639 b 417 879 603 793 529 879 b 194 557 285 879 208 764 l 475 557 "},"Э":{"ha":833,"x_min":0,"x_max":0,"o":"m 639 557 b 417 879 625 764 549 879 b 204 639 304 879 231 793 l 60 639 b 417 1008 96 875 219 1008 b 783 492 651 1008 783 819 b 417 -22 783 167 651 -22 b 60 346 219 -22 94 111 l 204 346 b 417 107 231 192 304 107 b 639 426 547 107 625 221 l 358 426 l 358 557 "},"І":{"ha":833,"x_min":0,"x_max":0,"o":"m 708 857 l 485 857 l 485 129 l 715 129 l 715 0 l 118 0 l 118 129 l 349 129 l 349 857 l 125 857 l 125 986 l 708 986 "},"Ї":{"ha":833,"x_min":0,"x_max":0,"o":"m 708 857 l 485 857 l 485 129 l 715 129 l 715 0 l 118 0 l 118 129 l 349 129 l 349 857 l 125 857 l 125 986 l 708 986 m 210 1235 l 356 1235 l 356 1090 l 210 1090 m 475 1235 l 621 1235 l 621 1090 l 475 1090 "},"Ј":{"ha":833,"x_min":0,"x_max":0,"o":"m 189 340 b 378 107 189 190 254 107 b 572 346 508 107 572 192 l 572 986 l 708 986 l 708 346 b 378 -22 708 118 588 -22 b 47 329 178 -22 49 121 l 189 340 "},"Ћ":{"ha":833,"x_min":0,"x_max":0,"o":"m 503 857 l 300 857 l 300 533 b 510 656 339 607 418 656 b 792 342 676 656 792 535 l 792 0 l 656 0 l 656 325 b 489 525 656 444 586 525 b 300 324 379 525 300 443 l 300 0 l 164 0 l 164 857 l 7 857 l 7 986 l 503 986 "},"Ю":{"ha":833,"x_min":0,"x_max":0,"o":"m 538 -22 b 272 428 364 -22 282 115 l 163 428 l 163 0 l 26 0 l 26 986 l 163 986 l 163 558 l 272 558 b 538 1008 282 871 365 1008 b 807 492 725 1008 807 851 b 538 -22 807 135 725 -22 m 413 492 b 538 107 413 215 447 107 b 667 492 631 107 667 215 b 538 879 667 769 631 879 b 413 492 447 879 413 769 "},"Я":{"ha":833,"x_min":0,"x_max":0,"o":"m 739 986 l 739 0 l 603 0 l 603 389 l 442 389 l 425 389 l 207 0 l 57 0 l 289 414 b 86 683 160 449 86 549 b 433 986 86 872 217 986 m 229 686 b 438 518 229 579 304 518 l 603 518 l 603 857 l 438 857 b 229 686 304 857 229 793 "},"Ђ":{"ha":833,"x_min":0,"x_max":0,"o":"m 503 857 l 300 857 l 300 536 b 504 656 338 608 414 656 b 819 333 690 656 819 525 b 431 0 819 128 669 0 l 431 129 b 676 332 585 129 676 208 b 493 525 676 451 606 525 b 300 321 379 525 300 442 l 300 0 l 164 0 l 164 857 l 7 857 l 7 986 l 503 986 "},"Ѣ":{"ha":833,"x_min":0,"x_max":0,"o":"m 151 0 l 151 735 l 22 735 l 22 857 l 151 857 l 151 986 l 289 986 l 289 857 l 517 857 l 517 735 l 289 735 l 289 613 l 460 613 b 807 304 675 613 807 494 b 460 0 807 117 675 0 m 453 129 b 664 304 593 129 664 190 b 453 483 664 421 593 483 l 289 483 l 289 129 "},"Ѫ":{"ha":833,"x_min":0,"x_max":0,"o":"m 746 986 l 746 857 l 564 538 b 700 388 622 529 668 483 l 832 0 l 689 0 l 581 325 b 504 408 560 389 539 408 l 485 408 l 485 0 l 349 0 l 349 408 l 329 408 b 251 325 293 408 271 389 l 144 0 l 1 0 l 132 388 b 269 538 164 483 211 531 l 88 857 l 88 986 m 417 554 l 589 857 l 244 857 "},"Ѳ":{"ha":833,"x_min":0,"x_max":0,"o":"m 417 -22 b 50 492 182 -22 50 167 b 417 1008 50 819 182 1008 b 783 492 651 1008 783 819 b 417 -22 783 167 651 -22 m 193 467 b 417 107 199 235 278 107 b 635 383 539 107 614 204 b 401 440 585 379 539 389 b 215 471 336 464 265 476 l 193 467 m 199 603 b 393 575 254 611 333 599 b 632 518 543 517 574 510 b 640 519 635 518 638 518 b 417 879 635 750 556 879 b 199 603 296 879 221 782 "},"Ѵ":{"ha":833,"x_min":0,"x_max":0,"o":"m 163 986 l 394 221 l 568 796 b 765 986 603 915 676 986 l 826 986 l 826 857 l 808 857 b 693 733 751 857 721 825 l 467 0 l 324 0 l 18 986 "},"Җ":{"ha":833,"x_min":0,"x_max":0,"o":"m 464 986 l 464 529 l 639 986 l 776 986 l 589 493 l 744 108 l 822 108 l 822 -208 l 688 -208 l 688 0 l 650 0 l 464 458 l 464 0 l 333 0 l 333 460 l 146 0 l 8 0 l 208 493 l 19 986 l 158 986 l 333 529 l 333 986 "},"Қ":{"ha":833,"x_min":0,"x_max":0,"o":"m 194 986 l 194 506 l 588 986 l 760 986 l 356 493 l 682 108 l 800 108 l 800 -208 l 664 -208 l 664 0 l 600 0 l 194 482 l 194 0 l 58 0 l 58 986 "},"Ң":{"ha":833,"x_min":0,"x_max":0,"o":"m 67 986 l 203 986 l 203 560 l 583 560 l 583 986 l 719 986 l 719 108 l 815 108 l 815 -208 l 679 -208 l 679 0 l 583 0 l 583 431 l 203 431 l 203 0 l 67 0 "},"Ү":{"ha":833,"x_min":0,"x_max":0,"o":"m 214 986 l 418 558 l 621 986 l 775 986 l 486 401 l 486 0 l 350 0 l 350 401 l 60 986 "},"Ұ":{"ha":833,"x_min":0,"x_max":0,"o":"m 213 986 l 417 558 l 619 986 l 774 986 l 501 435 l 735 435 l 735 306 l 485 306 l 485 0 l 349 0 l 349 306 l 129 306 l 129 435 l 332 435 l 58 986 "},"Ҳ":{"ha":833,"x_min":0,"x_max":0,"o":"m 761 986 l 500 494 l 706 108 l 808 108 l 808 -208 l 672 -208 l 672 0 l 604 0 l 413 390 l 221 0 l 64 0 l 328 496 l 67 986 l 226 986 l 415 603 l 604 986 "},"Ҷ":{"ha":833,"x_min":0,"x_max":0,"o":"m 47 986 l 183 986 l 183 661 b 339 461 183 538 250 461 b 578 663 476 461 578 543 l 578 986 l 714 986 l 714 108 l 813 108 l 813 -208 l 676 -208 l 676 0 l 578 0 l 578 460 b 329 331 533 382 439 331 b 47 644 163 331 47 451 "},"Һ":{"ha":833,"x_min":0,"x_max":0,"o":"m 233 986 l 233 526 b 482 656 278 604 372 656 b 764 342 649 656 764 535 l 764 0 l 628 0 l 628 325 b 472 525 628 449 561 525 b 233 324 335 525 233 443 l 233 0 l 97 0 l 97 986 "},"Ӏ":{"ha":833,"x_min":0,"x_max":0,"o":"m 708 857 l 485 857 l 485 129 l 715 129 l 715 0 l 118 0 l 118 129 l 349 129 l 349 857 l 125 857 l 125 986 l 708 986 "},"Ә":{"ha":833,"x_min":0,"x_max":0,"o":"m 650 547 b 407 879 638 743 543 879 b 207 693 313 879 236 801 l 64 708 b 407 1008 118 890 249 1008 b 794 493 642 1008 794 797 b 407 -22 794 200 632 -22 b 40 476 192 -22 46 182 l 39 547 l 650 547 m 188 417 b 407 107 210 221 286 107 b 649 417 538 107 621 221 l 188 417 "},"Ӣ":{"ha":833,"x_min":0,"x_max":0,"o":"m 732 0 l 594 0 l 594 758 l 294 0 l 101 0 l 101 986 l 239 986 l 239 197 l 551 986 l 732 986 m 221 1214 l 583 1214 l 583 1117 l 221 1117 "},"Ө":{"ha":833,"x_min":0,"x_max":0,"o":"m 417 -22 b 50 492 182 -22 50 167 b 417 1008 50 819 182 1008 b 783 492 651 1008 783 819 b 417 -22 783 167 651 -22 m 639 554 b 417 879 626 764 549 879 b 194 554 285 879 207 764 m 194 425 b 417 107 208 219 286 107 b 639 425 547 107 625 219 l 194 425 "},"Ӯ":{"ha":833,"x_min":0,"x_max":0,"o":"m 214 986 l 425 400 l 628 986 l 776 986 l 468 122 b 292 0 439 39 382 0 l 188 0 l 188 129 l 274 129 b 349 182 311 129 333 143 l 381 272 l 331 272 l 64 986 m 240 1214 l 603 1214 l 603 1117 l 240 1117 "},"а":{"ha":833,"x_min":0,"x_max":0,"o":"m 100 517 b 406 753 128 660 250 753 b 701 444 585 753 701 649 l 701 165 b 747 117 701 132 715 117 l 778 117 l 778 0 l 740 0 b 586 114 651 0 599 47 b 356 -17 557 44 471 -17 b 88 193 207 -17 88 61 b 369 419 88 344 201 389 l 569 460 b 404 629 567 574 503 629 b 240 507 319 629 257 579 l 100 517 m 228 196 b 372 99 228 143 274 99 b 571 311 485 100 571 178 l 571 344 l 413 317 b 228 196 308 299 226 289 "},"б":{"ha":833,"x_min":0,"x_max":0,"o":"m 221 328 b 422 549 222 460 304 549 b 618 328 538 549 618 460 b 417 101 618 193 536 101 b 221 328 299 101 218 193 m 76 435 b 179 89 76 285 111 161 b 418 -22 250 11 328 -22 b 757 328 613 -22 757 113 b 438 672 757 532 625 672 b 217 549 339 672 264 628 b 410 806 231 715 311 753 b 568 1057 528 865 568 939 l 435 1056 b 317 903 435 976 407 944 b 76 435 151 826 76 696 "},"в":{"ha":833,"x_min":0,"x_max":0,"o":"m 126 736 l 424 736 b 706 532 599 736 706 660 b 539 381 706 447 643 390 b 736 208 663 371 736 307 b 456 0 736 78 631 0 l 126 0 m 464 117 b 596 215 546 117 596 154 b 464 319 596 281 546 319 l 258 319 l 258 117 m 426 429 b 565 526 513 429 565 465 b 426 619 565 585 513 619 l 258 619 l 258 429 "},"г":{"ha":833,"x_min":0,"x_max":0,"o":"m 725 736 l 725 619 l 335 619 l 335 0 l 200 0 l 200 736 "},"ѓ":{"ha":833,"x_min":0,"x_max":0,"o":"m 725 736 l 725 619 l 335 619 l 335 0 l 200 0 l 200 736 m 496 1054 l 635 1054 l 517 846 l 408 846 "},"ґ":{"ha":833,"x_min":0,"x_max":0,"o":"m 588 736 l 588 951 l 725 951 l 725 619 l 335 619 l 335 0 l 200 0 l 200 736 "},"ғ":{"ha":833,"x_min":0,"x_max":0,"o":"m 725 736 l 725 619 l 335 619 l 335 425 l 489 425 l 489 308 l 335 308 l 335 0 l 200 0 l 200 308 l 56 308 l 56 425 l 200 425 l 200 736 "},"д":{"ha":833,"x_min":0,"x_max":0,"o":"m 689 117 l 807 117 l 807 -208 l 675 -208 l 675 0 l 160 0 l 158 -208 l 26 -208 l 26 117 l 88 117 b 190 253 146 117 178 161 l 256 736 l 689 736 m 557 117 l 557 619 l 374 619 l 321 243 b 276 117 314 192 299 149 "},"е":{"ha":833,"x_min":0,"x_max":0,"o":"m 86 368 b 428 753 86 601 221 753 b 754 381 594 753 743 643 l 754 331 l 229 331 b 428 107 239 189 310 107 b 601 225 503 107 569 150 l 743 213 b 428 -17 700 72 575 -17 b 86 368 221 -17 86 135 m 610 438 b 428 629 590 578 514 629 b 231 438 319 629 250 558 "},"ѐ":{"ha":833,"x_min":0,"x_max":0,"o":"m 86 368 b 428 753 86 601 221 753 b 754 381 594 753 743 643 l 754 331 l 229 331 b 428 107 239 189 310 107 b 601 225 503 107 569 150 l 743 213 b 428 -17 700 72 575 -17 b 86 368 221 -17 86 135 m 610 438 b 428 629 590 578 514 629 b 231 438 319 629 250 558 m 392 1051 l 479 843 l 371 843 l 253 1051 "},"ё":{"ha":833,"x_min":0,"x_max":0,"o":"m 86 368 b 428 753 86 601 221 753 b 754 381 594 753 743 643 l 754 331 l 229 331 b 428 107 239 189 310 107 b 601 225 503 107 569 150 l 743 213 b 428 -17 700 72 575 -17 b 86 368 221 -17 86 135 m 218 982 l 364 982 l 364 838 l 218 838 m 610 438 b 428 629 590 578 514 629 b 231 438 319 629 250 558 m 483 982 l 629 982 l 629 838 l 483 838 "},"ж":{"ha":833,"x_min":0,"x_max":0,"o":"m 483 736 l 483 389 l 663 736 l 811 736 l 617 368 l 821 0 l 672 0 l 483 347 l 483 0 l 350 0 l 350 347 l 161 0 l 13 0 l 217 368 l 22 736 l 171 736 l 350 389 l 350 736 "},"з":{"ha":833,"x_min":0,"x_max":0,"o":"m 424 446 b 560 543 506 444 560 482 b 414 632 560 597 503 632 b 272 550 332 632 278 600 l 129 557 b 415 753 143 678 253 753 b 699 547 589 753 699 674 b 550 396 699 476 643 421 b 724 203 658 365 724 294 b 415 -17 724 68 604 -17 b 104 214 231 -17 111 72 l 243 219 b 415 107 249 150 314 107 b 585 213 519 107 585 147 b 424 332 585 288 521 333 l 351 331 l 351 447 l 424 446 "},"и":{"ha":833,"x_min":0,"x_max":0,"o":"m 710 0 l 578 0 l 578 519 l 282 0 l 125 0 l 125 736 l 257 736 l 257 206 l 560 736 l 710 736 "},"й":{"ha":833,"x_min":0,"x_max":0,"o":"m 710 0 l 578 0 l 578 519 l 282 0 l 125 0 l 125 736 l 257 736 l 257 206 l 560 736 l 710 736 m 317 1025 b 418 936 317 975 361 936 b 522 1025 476 936 521 975 l 621 1025 b 418 847 619 925 532 847 b 217 1025 306 847 218 925 "},"ѝ":{"ha":833,"x_min":0,"x_max":0,"o":"m 710 0 l 578 0 l 578 519 l 282 0 l 125 0 l 125 736 l 257 736 l 257 206 l 560 736 l 710 736 m 385 1054 l 472 846 l 364 846 l 246 1054 "},"к":{"ha":833,"x_min":0,"x_max":0,"o":"m 251 736 l 251 379 l 581 736 l 760 736 l 415 368 l 776 0 l 594 0 l 251 358 l 251 0 l 117 0 l 117 736 "},"ќ":{"ha":833,"x_min":0,"x_max":0,"o":"m 251 736 l 251 379 l 581 736 l 760 736 l 415 368 l 776 0 l 594 0 l 251 358 l 251 0 l 117 0 l 117 736 m 449 1054 l 588 1054 l 469 846 l 361 846 "},"л":{"ha":833,"x_min":0,"x_max":0,"o":"m 740 0 l 608 0 l 608 619 l 350 619 l 307 204 b 122 0 293 69 232 0 l 35 0 l 35 128 l 94 128 b 175 228 142 128 168 161 l 231 736 l 740 736 "},"м":{"ha":833,"x_min":0,"x_max":0,"o":"m 224 736 l 424 161 l 622 736 l 786 736 l 786 0 l 654 0 l 654 447 l 496 0 l 350 0 l 188 453 l 179 0 l 47 0 l 58 736 "},"н":{"ha":833,"x_min":0,"x_max":0,"o":"m 251 736 l 251 425 l 582 425 l 582 736 l 717 736 l 717 0 l 582 0 l 582 308 l 251 308 l 251 0 l 117 0 l 117 736 "},"о":{"ha":833,"x_min":0,"x_max":0,"o":"m 417 -17 b 76 368 213 -17 76 136 b 417 753 76 600 213 753 b 757 368 621 753 757 600 b 417 -17 757 136 621 -17 m 215 368 b 417 107 215 206 289 107 b 618 368 544 107 618 206 b 417 629 618 531 544 629 b 215 368 289 629 215 531 "},"п":{"ha":833,"x_min":0,"x_max":0,"o":"m 718 0 l 585 0 l 585 619 l 249 619 l 249 0 l 115 0 l 115 736 l 718 736 "},"р":{"ha":833,"x_min":0,"x_max":0,"o":"m 107 736 l 229 736 l 233 625 b 456 753 275 707 350 753 b 767 368 668 753 767 575 b 456 -17 767 161 668 -17 b 240 103 356 -17 282 25 l 240 -208 l 107 -208 m 228 368 b 426 107 228 233 288 107 b 625 368 567 107 625 231 b 426 629 625 506 567 629 b 228 368 288 629 228 503 "},"с":{"ha":833,"x_min":0,"x_max":0,"o":"m 610 479 b 435 629 594 572 519 629 b 233 368 307 629 233 531 b 435 107 233 206 307 107 b 615 268 524 107 599 167 l 756 260 b 435 -17 732 90 596 -17 b 94 368 228 -17 94 135 b 435 753 94 601 228 753 b 749 488 590 753 729 650 l 610 479 "},"т":{"ha":833,"x_min":0,"x_max":0,"o":"m 744 617 l 485 617 l 485 0 l 350 0 l 350 617 l 90 617 l 90 736 l 744 736 "},"у":{"ha":833,"x_min":0,"x_max":0,"o":"m 214 736 l 425 150 l 628 736 l 769 736 l 474 -86 b 297 -208 444 -169 388 -208 l 201 -208 l 201 -93 l 281 -93 b 356 -40 319 -93 342 -78 l 381 22 l 339 22 l 72 736 "},"ў":{"ha":833,"x_min":0,"x_max":0,"o":"m 214 736 l 425 150 l 628 736 l 769 736 l 474 -86 b 297 -208 444 -169 388 -208 l 201 -208 l 201 -93 l 281 -93 b 356 -40 319 -93 342 -78 l 381 22 l 339 22 l 72 736 m 319 1025 b 421 936 319 975 364 936 b 525 1025 479 936 524 975 l 624 1025 b 421 847 622 925 535 847 b 219 1025 308 847 221 925 "},"ф":{"ha":833,"x_min":0,"x_max":0,"o":"m 28 372 b 350 707 28 556 154 685 l 350 986 l 483 986 l 483 707 b 806 372 679 683 806 554 b 483 38 806 190 679 61 l 483 -208 l 350 -208 l 350 38 b 28 372 154 60 28 189 m 168 372 b 350 165 168 261 236 186 l 350 579 b 168 372 236 558 168 483 m 483 165 b 664 372 597 186 664 263 b 483 579 664 482 597 558 l 483 165 "},"х":{"ha":833,"x_min":0,"x_max":0,"o":"m 753 736 l 499 376 l 765 0 l 603 0 l 417 272 l 229 0 l 67 0 l 336 378 l 81 736 l 243 736 l 417 481 l 589 736 "},"ч":{"ha":833,"x_min":0,"x_max":0,"o":"m 581 0 l 581 346 b 367 219 543 269 464 219 b 92 533 197 219 92 340 l 92 736 l 225 736 l 225 544 b 381 342 225 421 285 342 b 581 546 501 342 581 421 l 581 736 l 713 736 l 713 0 "},"ц":{"ha":833,"x_min":0,"x_max":0,"o":"m 579 736 l 713 736 l 713 117 l 813 117 l 813 -208 l 681 -208 l 681 0 l 110 0 l 110 736 l 243 736 l 243 117 l 579 117 "},"ш":{"ha":833,"x_min":0,"x_max":0,"o":"m 71 736 l 203 736 l 203 117 l 351 117 l 351 736 l 482 736 l 482 117 l 629 117 l 629 736 l 763 736 l 763 0 l 71 0 "},"щ":{"ha":833,"x_min":0,"x_max":0,"o":"m 68 736 l 199 736 l 199 117 l 346 117 l 346 736 l 475 736 l 475 117 l 621 117 l 621 736 l 753 736 l 753 117 l 819 117 l 819 -208 l 688 -208 l 688 0 l 68 0 "},"џ":{"ha":833,"x_min":0,"x_max":0,"o":"m 483 0 l 483 -208 l 350 -208 l 350 0 l 115 0 l 115 736 l 249 736 l 249 117 l 585 117 l 585 736 l 718 736 l 718 0 "},"ь":{"ha":833,"x_min":0,"x_max":0,"o":"m 108 736 l 240 736 l 240 467 l 435 467 b 751 232 636 467 751 382 b 435 0 751 85 636 0 l 108 0 m 428 118 b 611 233 550 118 611 156 b 428 350 611 313 550 350 l 240 350 l 240 118 "},"ы":{"ha":833,"x_min":0,"x_max":0,"o":"m 44 736 l 176 736 l 176 467 l 272 467 b 589 232 478 467 589 385 b 272 0 589 82 478 0 l 44 0 m 267 118 b 450 233 390 118 450 154 b 267 351 450 313 390 351 l 176 351 l 176 118 m 657 736 l 789 736 l 789 0 l 657 0 "},"ъ":{"ha":833,"x_min":0,"x_max":0,"o":"m 132 619 l 14 619 l 14 736 l 264 736 l 264 467 l 458 467 b 775 232 660 467 775 382 b 458 0 775 85 660 0 l 132 0 m 451 118 b 635 233 574 118 635 156 b 451 350 635 313 574 350 l 264 350 l 264 118 "},"љ":{"ha":833,"x_min":0,"x_max":0,"o":"m 372 619 l 269 619 l 229 204 b 44 0 215 69 154 0 l 6 0 l 6 128 l 17 128 b 97 228 63 128 90 161 l 149 736 l 506 736 l 506 467 l 574 467 b 829 232 738 467 829 383 b 574 0 829 83 738 0 l 372 0 m 576 118 b 693 233 650 118 693 160 b 576 351 693 308 650 351 l 506 351 l 506 118 "},"њ":{"ha":833,"x_min":0,"x_max":0,"o":"m 158 736 l 158 435 l 358 435 l 358 736 l 492 736 l 492 467 l 560 467 b 815 232 724 467 815 383 b 560 0 815 83 724 0 l 358 0 l 358 314 l 158 314 l 158 0 l 26 0 l 26 736 m 561 118 b 678 233 636 118 678 160 b 561 351 678 308 636 351 l 492 351 l 492 118 "},"ѕ":{"ha":833,"x_min":0,"x_max":0,"o":"m 582 506 b 407 629 567 585 494 629 b 271 525 335 629 268 594 b 443 413 271 453 358 435 b 724 190 585 378 724 326 b 432 -17 724 46 585 -17 b 110 233 260 -17 119 81 l 249 242 b 432 107 261 158 336 107 b 583 197 507 107 583 126 b 407 303 583 269 489 283 b 132 521 267 336 132 389 b 419 753 131 668 264 753 b 718 514 574 753 694 660 l 582 506 "},"є":{"ha":833,"x_min":0,"x_max":0,"o":"m 750 258 b 422 -17 715 88 590 -17 b 81 368 218 -17 81 135 b 422 753 81 601 218 753 b 751 475 592 753 717 646 l 610 475 b 422 629 583 572 517 629 b 224 428 311 629 240 554 l 457 428 l 457 308 l 224 308 b 422 107 240 182 311 107 b 608 258 515 107 582 163 l 750 258 "},"э":{"ha":833,"x_min":0,"x_max":0,"o":"m 225 258 b 411 107 251 163 318 107 b 610 308 522 107 593 182 l 376 308 l 376 428 l 610 428 b 411 629 593 554 522 629 b 224 475 317 629 250 572 l 82 475 b 411 753 117 646 242 753 b 753 368 615 753 753 601 b 411 -17 753 135 615 -17 b 83 258 243 -17 118 88 l 225 258 "},"і":{"ha":833,"x_min":0,"x_max":0,"o":"m 532 117 l 778 117 l 778 0 l 113 0 l 113 117 l 399 117 l 399 619 l 139 619 l 139 736 l 532 736 m 386 986 l 532 986 l 532 842 l 386 842 "},"ї":{"ha":833,"x_min":0,"x_max":0,"o":"m 532 117 l 778 117 l 778 0 l 113 0 l 113 117 l 399 117 l 399 619 l 139 619 l 139 736 l 532 736 m 253 985 l 399 985 l 399 840 l 253 840 m 518 985 l 664 985 l 664 840 l 518 840 "},"ј":{"ha":833,"x_min":0,"x_max":0,"o":"m 618 18 b 417 -208 618 -117 549 -208 l 156 -208 l 156 -92 l 400 -92 b 486 18 453 -92 486 -46 l 486 619 l 157 619 l 157 736 l 618 736 l 618 18 m 474 986 l 619 986 l 619 842 l 474 842 "},"ћ":{"ha":833,"x_min":0,"x_max":0,"o":"m 275 986 l 275 915 l 414 915 l 414 807 l 275 807 l 275 639 b 488 753 318 717 400 753 b 731 474 651 753 731 632 l 731 0 l 597 0 l 597 432 b 453 633 597 564 556 633 b 275 432 344 633 275 564 l 275 0 l 142 0 l 142 807 l 29 807 l 29 915 l 142 915 l 142 986 "},"ю":{"ha":833,"x_min":0,"x_max":0,"o":"m 517 -17 b 238 310 351 -17 253 99 l 157 310 l 157 0 l 25 0 l 25 736 l 157 736 l 157 426 l 238 426 b 517 753 253 638 351 753 b 797 368 697 753 797 615 b 517 -17 797 121 697 -17 m 374 368 b 517 107 374 200 424 107 b 660 368 608 107 660 200 b 517 629 660 536 608 629 b 374 368 424 629 374 536 "},"я":{"ha":833,"x_min":0,"x_max":0,"o":"m 708 0 l 576 0 l 576 279 l 424 279 l 261 0 l 108 0 l 286 303 b 126 510 183 343 126 418 b 424 736 126 656 233 736 l 708 736 m 267 507 b 421 394 267 436 322 394 l 576 394 l 576 621 l 421 621 b 267 507 322 621 267 581 "},"ђ":{"ha":833,"x_min":0,"x_max":0,"o":"m 268 986 l 268 915 l 414 915 l 414 807 l 268 807 l 268 629 b 483 753 308 713 390 753 b 721 474 629 753 721 644 l 721 10 b 529 -208 721 -124 654 -208 l 453 -208 l 453 -92 l 507 -92 b 589 10 557 -92 589 -53 l 589 421 b 446 622 589 554 542 622 b 268 421 339 622 268 550 l 268 0 l 136 0 l 136 807 l 29 807 l 29 915 l 136 915 l 136 986 "},"ѣ":{"ha":833,"x_min":0,"x_max":0,"o":"m 176 735 l 13 735 l 13 853 l 176 853 l 176 986 l 308 986 l 308 853 l 472 853 l 472 735 l 308 735 l 308 494 l 486 494 b 811 246 693 494 811 404 b 486 0 811 89 693 0 l 176 0 m 489 118 b 672 247 606 118 672 164 b 489 379 672 331 606 379 l 308 379 l 308 118 "},"ѫ":{"ha":833,"x_min":0,"x_max":0,"o":"m 775 736 l 775 619 l 568 400 b 708 289 629 390 686 354 l 814 0 l 667 0 l 592 235 b 504 293 575 282 547 293 l 483 293 l 483 0 l 349 0 l 349 293 l 328 293 b 242 235 285 293 257 282 l 167 0 l 18 0 l 125 289 b 267 400 149 354 206 392 l 60 619 l 60 736 m 417 403 l 621 619 l 213 619 "},"ѳ":{"ha":833,"x_min":0,"x_max":0,"o":"m 417 -17 b 76 368 213 -17 76 136 b 417 753 76 600 213 753 b 757 368 621 753 757 600 b 417 -17 757 136 621 -17 m 217 339 b 417 107 225 194 297 107 b 606 261 514 107 579 164 l 601 261 b 396 314 553 258 522 258 b 242 344 340 339 283 347 b 217 339 233 343 225 342 m 225 461 b 388 435 272 467 335 458 b 583 379 514 376 535 375 b 618 386 596 381 607 382 b 417 629 613 538 539 629 b 225 461 315 629 249 568 "},"ѵ":{"ha":833,"x_min":0,"x_max":0,"o":"m 807 617 l 793 617 b 664 515 732 617 689 583 l 475 0 l 318 0 l 50 736 l 192 736 l 396 151 l 538 556 b 776 736 578 672 663 736 l 807 736 "},"җ":{"ha":833,"x_min":0,"x_max":0,"o":"m 479 736 l 479 390 l 657 736 l 804 736 l 611 368 l 757 103 l 821 103 l 821 -208 l 689 -208 l 689 0 l 667 0 l 479 347 l 479 0 l 347 0 l 347 347 l 160 0 l 13 0 l 215 368 l 22 736 l 169 736 l 347 390 l 347 736 "},"қ":{"ha":833,"x_min":0,"x_max":0,"o":"m 251 736 l 251 379 l 581 736 l 760 736 l 415 368 l 675 103 l 786 103 l 786 -208 l 654 -208 l 654 0 l 594 0 l 251 358 l 251 0 l 117 0 l 117 736 "},"ң":{"ha":833,"x_min":0,"x_max":0,"o":"m 249 736 l 249 425 l 579 425 l 579 736 l 714 736 l 714 103 l 806 103 l 806 -208 l 674 -208 l 674 0 l 579 0 l 579 308 l 249 308 l 249 0 l 114 0 l 114 736 "},"ү":{"ha":833,"x_min":0,"x_max":0,"o":"m 483 4 l 483 -208 l 350 -208 l 350 4 l 69 736 l 213 736 l 417 165 l 621 736 l 764 736 "},"ұ":{"ha":833,"x_min":0,"x_max":0,"o":"m 504 60 l 653 60 l 653 -57 l 483 -57 l 483 -208 l 350 -208 l 350 -57 l 179 -57 l 179 60 l 329 60 l 69 736 l 213 736 l 417 165 l 621 736 l 764 736 "},"ҳ":{"ha":833,"x_min":0,"x_max":0,"o":"m 753 736 l 499 376 l 693 103 l 796 103 l 796 -208 l 664 -208 l 664 0 l 603 0 l 417 272 l 229 0 l 67 0 l 336 378 l 81 736 l 243 736 l 417 481 l 589 736 "},"ҷ":{"ha":833,"x_min":0,"x_max":0,"o":"m 90 736 l 224 736 l 224 544 b 378 342 224 421 282 342 b 576 546 497 342 576 421 l 576 736 l 707 736 l 707 103 l 807 103 l 807 -208 l 675 -208 l 675 0 l 576 0 l 576 346 b 364 219 539 269 460 219 b 90 533 196 219 90 340 "},"һ":{"ha":833,"x_min":0,"x_max":0,"o":"m 271 986 l 271 639 b 483 753 314 717 396 753 b 726 474 647 753 726 632 l 726 0 l 593 0 l 593 432 b 449 633 593 564 551 633 b 271 432 340 633 271 564 l 271 0 l 138 0 l 138 986 "},"ӏ":{"ha":833,"x_min":0,"x_max":0,"o":"m 708 857 l 485 857 l 485 129 l 715 129 l 715 0 l 118 0 l 118 129 l 349 129 l 349 857 l 125 857 l 125 986 l 708 986 "},"ә":{"ha":833,"x_min":0,"x_max":0,"o":"m 747 368 b 406 -17 747 135 613 -17 b 79 356 239 -17 90 93 l 79 406 l 604 406 b 406 629 594 547 524 629 b 232 511 331 629 264 586 l 90 524 b 406 753 133 664 258 753 b 747 368 613 753 747 601 m 224 299 b 406 107 243 158 319 107 b 603 299 514 107 583 178 l 224 299 "},"ӣ":{"ha":833,"x_min":0,"x_max":0,"o":"m 710 0 l 578 0 l 578 519 l 282 0 l 125 0 l 125 736 l 257 736 l 257 206 l 560 736 l 710 736 m 236 964 l 599 964 l 599 867 l 236 867 "},"ө":{"ha":833,"x_min":0,"x_max":0,"o":"m 417 -17 b 76 368 213 -17 76 136 b 417 753 76 600 213 753 b 757 368 621 753 757 600 b 417 -17 757 136 621 -17 m 218 310 b 417 107 235 182 306 107 b 615 310 528 107 599 182 l 218 310 m 615 426 b 417 629 599 554 528 629 b 218 426 306 629 235 554 "},"ӯ":{"ha":833,"x_min":0,"x_max":0,"o":"m 214 736 l 425 150 l 628 736 l 769 736 l 474 -86 b 297 -208 444 -169 388 -208 l 201 -208 l 201 -93 l 281 -93 b 356 -40 319 -93 342 -78 l 381 22 l 339 22 l 72 736 m 239 964 l 601 964 l 601 867 l 239 867 "},"Λ":{"ha":833,"x_min":0,"x_max":0,"o":"m 332 986 l 501 986 l 800 0 l 660 0 l 417 836 l 174 0 l 33 0 "},"Ω":{"ha":833,"x_min":0,"x_max":0,"o":"m 417 879 b 156 508 263 879 156 726 b 364 131 156 301 246 136 l 364 0 l 14 0 l 14 129 l 204 129 b 13 519 89 204 13 364 b 417 1008 13 806 181 1008 b 821 519 653 1008 821 806 b 629 129 821 364 744 204 l 818 129 l 818 0 l 469 0 l 469 131 b 678 508 586 136 678 301 b 417 879 678 726 571 879 "},"λ":{"ha":833,"x_min":0,"x_max":0,"o":"m 717 0 b 501 186 601 0 544 51 l 404 497 l 214 0 l 74 0 l 344 689 l 311 793 b 225 871 296 843 275 871 l 142 871 l 142 986 l 228 986 b 444 800 344 986 403 935 l 635 193 b 719 115 650 144 669 115 l 769 115 l 769 0 l 717 0 "},"π":{"ha":833,"x_min":0,"x_max":0,"o":"m 808 736 l 808 619 l 671 619 l 671 214 b 763 117 671 153 703 117 l 807 117 l 807 0 l 764 0 b 539 217 606 0 539 82 l 539 619 l 299 619 l 299 0 l 167 0 l 167 619 l 22 619 l 22 736 "},"ℇ":{"ha":833,"x_min":0,"x_max":0,"o":"m 785 126 b 425 -22 713 39 567 -22 b 67 272 211 -22 67 100 b 276 532 67 400 140 493 b 100 750 161 565 100 640 b 425 1008 100 903 232 1008 b 754 871 550 1008 681 953 l 665 763 b 428 883 608 833 510 883 b 242 744 313 883 242 829 b 428 582 242 628 339 581 l 499 583 l 499 461 l 428 463 b 208 283 294 465 208 394 b 428 103 208 176 294 103 b 700 238 519 103 632 156 l 785 126 "},"⁄":{"ha":833,"x_min":0,"x_max":0,"o":"m 143 0 l 18 0 l 690 986 l 815 986 "},"½":{"ha":833,"x_min":0,"x_max":0,"o":"m 436 381 b 624 557 449 488 522 557 b 790 400 722 557 790 493 b 663 215 790 335 744 269 l 624 190 b 533 83 574 157 536 119 l 794 83 l 794 0 l 426 0 b 588 269 426 86 450 179 l 632 299 b 700 400 681 329 700 361 b 624 474 700 443 667 474 b 526 376 571 474 538 439 l 436 381 m 242 354 l 358 354 l 169 0 l 53 0 m 67 861 l 100 861 b 225 988 181 861 225 907 l 297 988 l 297 449 l 204 449 l 204 799 l 67 797 m 657 986 l 775 986 l 586 631 l 468 631 "},"⅓":{"ha":833,"x_min":0,"x_max":0,"o":"m 606 328 b 692 397 654 328 692 364 b 611 474 692 439 656 474 b 526 417 565 474 531 447 l 436 422 b 611 557 447 499 524 557 b 782 413 708 557 782 493 b 689 290 782 360 750 308 b 803 142 754 271 803 210 b 613 -22 803 50 719 -22 b 417 135 506 -22 422 46 l 507 139 b 614 61 511 96 558 61 b 710 149 668 61 710 100 b 606 243 710 201 665 243 l 571 243 l 571 328 l 606 328 m 242 354 l 358 354 l 169 0 l 53 0 m 65 861 l 99 861 b 224 988 179 861 224 907 l 296 988 l 296 449 l 203 449 l 203 799 l 65 797 m 657 986 l 775 986 l 586 631 l 468 631 "},"⅔":{"ha":833,"x_min":0,"x_max":0,"o":"m 611 328 b 697 397 660 328 697 364 b 617 474 697 439 661 474 b 532 417 571 474 536 447 l 442 422 b 617 557 453 499 529 557 b 788 413 714 557 788 493 b 694 290 788 360 756 308 b 808 142 760 271 808 210 b 618 -22 808 50 725 -22 b 422 135 511 -22 428 46 l 513 139 b 619 61 517 96 564 61 b 715 149 674 61 715 100 b 611 243 715 201 671 243 l 576 243 l 576 328 l 611 328 m 25 451 b 186 721 25 538 49 631 l 231 750 b 299 851 279 781 299 813 b 222 925 299 894 265 925 b 125 828 169 925 136 890 l 35 832 b 222 1008 47 939 121 1008 b 389 851 321 1008 389 944 b 261 667 389 786 343 721 l 222 642 b 132 535 172 608 135 571 l 393 535 l 393 451 l 25 451 m 242 354 l 358 354 l 169 0 l 53 0 m 657 986 l 775 986 l 586 631 l 468 631 "},"¼":{"ha":833,"x_min":0,"x_max":0,"o":"m 735 186 l 793 186 l 793 103 l 735 103 l 735 0 l 643 0 l 643 103 l 386 103 l 386 181 l 657 539 l 735 539 m 242 354 l 358 354 l 169 0 l 53 0 m 65 861 l 99 861 b 224 988 179 861 224 907 l 296 988 l 296 449 l 203 449 l 203 799 l 65 797 m 657 986 l 775 986 l 586 631 l 468 631 m 643 186 l 643 379 l 499 186 "},"¾":{"ha":833,"x_min":0,"x_max":0,"o":"m 211 779 b 297 849 260 779 297 815 b 217 925 297 890 261 925 b 132 868 171 925 136 899 l 42 874 b 217 1008 53 950 129 1008 b 388 864 314 1008 388 944 b 294 742 388 811 356 760 b 408 593 360 722 408 661 b 218 429 408 501 325 429 b 22 586 111 429 28 497 l 113 590 b 219 513 117 547 164 513 b 315 600 274 513 315 551 b 211 694 315 653 271 694 l 176 694 l 176 779 l 211 779 m 242 354 l 358 354 l 169 0 l 53 0 m 386 181 l 657 539 l 735 539 l 735 186 l 793 186 l 793 103 l 735 103 l 735 0 l 643 0 l 643 103 l 386 103 m 657 986 l 775 986 l 586 631 l 468 631 m 643 186 l 643 379 l 499 186 "},"⅕":{"ha":833,"x_min":0,"x_max":0,"o":"m 744 457 l 535 457 l 518 325 b 608 361 544 350 572 361 b 782 171 710 361 782 279 b 592 -22 782 57 703 -22 b 404 132 490 -22 413 42 l 497 136 b 594 61 506 92 547 61 b 689 171 649 61 689 107 b 594 281 689 231 649 281 b 501 226 563 281 529 272 l 414 226 l 457 540 l 744 540 m 242 354 l 358 354 l 169 0 l 53 0 m 65 861 l 99 861 b 224 988 179 861 224 907 l 296 988 l 296 449 l 203 449 l 203 799 l 65 797 m 657 986 l 775 986 l 586 631 l 468 631 "},"⅛":{"ha":833,"x_min":0,"x_max":0,"o":"m 597 -22 b 400 143 485 -22 400 42 b 507 290 400 211 439 264 b 426 404 456 311 426 349 b 597 554 426 490 501 554 b 768 404 694 554 768 490 b 688 290 768 349 739 311 b 794 143 754 263 794 211 b 597 -22 794 42 710 -22 m 242 354 l 358 354 l 169 0 l 53 0 m 65 861 l 99 861 b 224 988 179 861 224 907 l 296 988 l 296 449 l 203 449 l 203 799 l 65 797 m 657 986 l 775 986 l 586 631 l 468 631 m 493 149 b 597 61 493 96 536 61 b 701 149 658 61 701 96 b 597 244 701 206 658 244 b 493 149 536 244 493 206 m 519 401 b 597 324 519 356 551 324 b 675 401 643 324 675 356 b 597 471 675 442 643 471 b 519 401 551 471 519 442 "},"⅜":{"ha":833,"x_min":0,"x_max":0,"o":"m 597 -22 b 400 143 485 -22 400 42 b 507 290 400 211 439 264 b 426 404 456 311 426 349 b 597 554 426 490 501 554 b 768 404 694 554 768 490 b 688 290 768 349 739 311 b 794 143 754 263 794 211 b 597 -22 794 42 710 -22 m 121 583 b 218 508 129 539 171 508 b 313 618 272 508 313 554 b 218 728 313 678 272 728 b 125 674 186 728 153 719 l 38 674 l 81 988 l 368 988 l 368 904 l 158 904 l 142 772 b 232 808 168 797 196 808 b 406 618 333 808 406 726 b 215 425 406 504 326 425 b 28 579 114 425 36 489 m 242 354 l 358 354 l 169 0 l 53 0 m 657 986 l 775 986 l 586 631 l 468 631 m 493 149 b 597 61 493 96 536 61 b 701 149 658 61 701 96 b 597 244 701 206 658 244 b 493 149 536 244 493 206 m 519 401 b 597 324 519 356 551 324 b 675 401 643 324 675 356 b 597 471 675 442 643 471 b 519 401 551 471 519 442 "},"⅝":{"ha":833,"x_min":0,"x_max":0,"o":"m 597 -22 b 400 143 485 -22 400 42 b 507 290 400 211 439 264 b 426 404 456 311 426 349 b 597 554 426 490 501 554 b 768 404 694 554 768 490 b 688 290 768 349 739 311 b 794 143 754 263 794 211 b 597 -22 794 42 710 -22 m 113 590 b 219 513 117 547 164 513 b 315 600 274 513 315 551 b 211 694 315 653 271 694 l 176 694 l 176 779 l 211 779 b 297 849 260 779 297 815 b 217 925 297 890 261 925 b 132 868 171 925 136 899 l 42 874 b 217 1008 53 950 129 1008 b 388 864 314 1008 388 944 b 294 742 388 811 356 760 b 408 593 360 722 408 661 b 218 429 408 501 325 429 b 22 586 111 429 28 497 m 242 354 l 358 354 l 169 0 l 53 0 m 657 986 l 775 986 l 586 631 l 468 631 m 493 149 b 597 61 493 96 536 61 b 701 149 658 61 701 96 b 597 244 701 206 658 244 b 493 149 536 244 493 206 m 519 401 b 597 324 519 356 551 324 b 675 401 643 324 675 356 b 597 471 675 442 643 471 b 519 401 551 471 519 442 "},"⅞":{"ha":833,"x_min":0,"x_max":0,"o":"m 460 986 l 460 919 b 281 447 351 783 281 624 l 190 447 b 353 903 190 611 250 771 l 76 903 l 76 986 m 242 354 l 358 354 l 169 0 l 53 0 m 400 143 b 507 290 400 211 439 264 b 426 404 456 311 426 349 b 597 554 426 490 501 554 b 768 404 694 554 768 490 b 688 290 768 349 739 311 b 794 143 754 263 794 211 b 597 -22 794 42 710 -22 b 400 143 485 -22 400 42 m 657 986 l 775 986 l 586 631 l 468 631 m 493 149 b 597 61 493 96 536 61 b 701 149 658 61 701 96 b 597 244 701 206 658 244 b 493 149 536 244 493 206 m 519 401 b 597 324 519 356 551 324 b 675 401 643 324 675 356 b 597 471 675 442 643 471 b 519 401 551 471 519 442 "},"₀":{"ha":833,"x_min":0,"x_max":0,"o":"m 417 -21 b 206 267 286 -21 206 90 b 417 557 206 444 286 557 b 628 267 547 557 628 444 b 417 -21 628 90 547 -21 m 296 267 b 307 169 296 229 300 196 l 482 447 b 417 471 464 463 442 471 b 296 267 340 471 296 399 m 351 89 b 417 65 369 74 392 65 b 538 267 493 65 538 139 b 526 368 538 306 533 340 l 351 89 "},"₁":{"ha":833,"x_min":0,"x_max":0,"o":"m 281 413 b 406 539 361 413 406 458 l 478 539 l 478 0 l 385 0 l 385 350 l 247 349 l 247 413 l 281 413 "},"₂":{"ha":833,"x_min":0,"x_max":0,"o":"m 232 381 b 419 557 244 488 318 557 b 586 400 518 557 586 493 b 458 215 586 335 540 269 l 419 190 b 329 83 369 157 332 119 l 590 83 l 590 0 l 222 0 b 383 269 222 86 246 179 l 428 299 b 496 400 476 329 496 361 b 419 474 496 443 463 474 b 322 376 367 474 333 439 l 232 381 "},"₃":{"ha":833,"x_min":0,"x_max":0,"o":"m 411 328 b 497 397 460 328 497 364 b 417 474 497 439 461 474 b 332 417 371 474 336 447 l 242 422 b 417 557 253 499 329 557 b 588 413 514 557 588 493 b 494 290 588 360 556 308 b 608 142 560 271 608 210 b 418 -22 608 50 525 -22 b 222 135 311 -22 228 46 l 313 139 b 419 61 317 96 364 61 b 515 149 474 61 515 100 b 411 243 515 201 471 243 l 376 243 l 376 328 l 411 328 "},"₄":{"ha":833,"x_min":0,"x_max":0,"o":"m 533 186 l 592 186 l 592 103 l 533 103 l 533 0 l 442 0 l 442 103 l 185 103 l 185 181 l 456 539 l 533 539 m 442 186 l 442 379 l 297 186 "},"₅":{"ha":833,"x_min":0,"x_max":0,"o":"m 569 457 l 360 457 l 343 325 b 433 361 369 350 397 361 b 607 171 535 361 607 279 b 417 -22 607 57 528 -22 b 229 132 315 -22 238 42 l 322 136 b 419 61 331 92 372 61 b 514 171 474 61 514 107 b 419 281 514 231 474 281 b 326 226 388 281 354 272 l 239 226 l 282 540 l 569 540 "},"₆":{"ha":833,"x_min":0,"x_max":0,"o":"m 517 414 b 435 471 504 450 474 471 b 317 310 365 471 328 396 b 436 367 344 344 383 367 b 606 174 531 367 606 289 b 418 -22 606 54 525 -22 b 229 233 292 -22 229 96 b 433 554 229 401 290 554 b 604 422 511 554 581 506 l 517 414 m 328 174 b 421 61 326 108 365 61 b 513 174 478 61 513 108 b 422 283 513 238 481 283 b 328 174 369 283 329 238 "},"₇":{"ha":833,"x_min":0,"x_max":0,"o":"m 614 538 l 614 471 b 435 -1 506 335 435 175 l 344 -1 b 507 454 344 163 404 322 l 231 454 l 231 538 "},"₈":{"ha":833,"x_min":0,"x_max":0,"o":"m 417 -22 b 219 143 304 -22 219 42 b 326 290 219 211 258 264 b 246 404 275 311 246 349 b 417 554 246 490 321 554 b 588 404 514 554 588 490 b 507 290 588 349 558 311 b 614 143 574 263 614 211 b 417 -22 614 42 529 -22 m 313 149 b 417 61 313 96 356 61 b 521 149 478 61 521 96 b 417 244 521 206 478 244 b 313 149 356 244 313 206 m 339 401 b 417 324 339 356 371 324 b 494 401 463 324 494 356 b 417 471 494 442 463 471 b 339 401 371 471 339 442 "},"₉":{"ha":833,"x_min":0,"x_max":0,"o":"m 322 118 b 404 61 335 82 365 61 b 522 224 467 61 511 122 b 403 165 496 188 456 165 b 233 358 308 165 233 243 b 421 554 233 478 314 554 b 610 299 546 554 610 436 b 406 -22 610 103 529 -22 b 235 110 328 -22 258 26 l 322 118 m 326 358 b 417 249 326 294 358 249 b 511 358 468 249 510 294 b 418 471 513 424 472 471 b 326 358 361 471 326 424 "},"⁰":{"ha":833,"x_min":0,"x_max":0,"o":"m 417 431 b 206 718 286 431 206 542 b 417 1008 206 896 286 1008 b 628 718 547 1008 628 896 b 417 431 628 542 547 431 m 296 718 b 307 621 296 681 300 647 l 482 899 b 417 922 464 914 442 922 b 296 718 340 922 296 850 m 351 540 b 417 517 369 525 392 517 b 538 718 493 517 538 590 b 526 819 538 757 533 792 l 351 540 "},"¹":{"ha":833,"x_min":0,"x_max":0,"o":"m 281 861 b 406 988 361 861 406 907 l 478 988 l 478 449 l 385 449 l 385 799 l 247 797 l 247 861 l 281 861 "},"²":{"ha":833,"x_min":0,"x_max":0,"o":"m 232 832 b 419 1008 244 939 318 1008 b 586 851 518 1008 586 944 b 458 667 586 786 540 721 l 419 642 b 329 535 369 608 332 571 l 590 535 l 590 451 l 222 451 b 383 721 222 538 246 631 l 428 750 b 496 851 476 781 496 813 b 419 925 496 894 463 925 b 322 828 367 925 333 890 l 232 832 "},"³":{"ha":833,"x_min":0,"x_max":0,"o":"m 411 779 b 497 849 460 779 497 815 b 417 925 497 890 461 925 b 332 868 371 925 336 899 l 242 874 b 417 1008 253 950 329 1008 b 588 864 514 1008 588 944 b 494 742 588 811 556 760 b 608 593 560 722 608 661 b 418 429 608 501 525 429 b 222 586 311 429 228 497 l 313 590 b 419 513 317 547 364 513 b 515 600 474 513 515 551 b 411 694 515 653 471 694 l 376 694 l 376 779 l 411 779 "},"⁴":{"ha":833,"x_min":0,"x_max":0,"o":"m 533 635 l 592 635 l 592 551 l 533 551 l 533 449 l 442 449 l 442 551 l 185 551 l 185 629 l 456 988 l 533 988 m 442 635 l 442 828 l 297 635 "},"⁵":{"ha":833,"x_min":0,"x_max":0,"o":"m 569 904 l 360 904 l 343 772 b 433 808 369 797 397 808 b 607 618 535 808 607 726 b 417 425 607 504 528 425 b 229 579 315 425 238 489 l 322 583 b 419 508 331 539 372 508 b 514 618 474 508 514 554 b 419 728 514 678 474 728 b 326 674 388 728 354 719 l 239 674 l 282 988 l 569 988 "},"⁶":{"ha":833,"x_min":0,"x_max":0,"o":"m 517 868 b 435 925 504 904 474 925 b 317 764 365 925 328 850 b 436 821 344 799 383 821 b 606 628 531 821 606 743 b 418 432 606 508 525 432 b 229 688 292 432 229 550 b 433 1008 229 856 290 1008 b 604 876 511 1008 581 960 l 517 868 m 328 628 b 421 515 326 563 365 515 b 513 628 478 515 513 563 b 422 738 513 692 481 738 b 328 628 369 738 329 692 "},"⁷":{"ha":833,"x_min":0,"x_max":0,"o":"m 614 986 l 614 919 b 435 447 506 783 435 624 l 344 447 b 507 903 344 611 404 771 l 231 903 l 231 986 "},"⁸":{"ha":833,"x_min":0,"x_max":0,"o":"m 417 432 b 219 597 304 432 219 496 b 326 744 219 665 258 718 b 246 858 275 765 246 803 b 417 1008 246 944 321 1008 b 588 858 514 1008 588 944 b 507 744 588 803 558 765 b 614 597 574 717 614 665 b 417 432 614 496 529 432 m 313 603 b 417 515 313 550 356 515 b 521 603 478 515 521 550 b 417 699 521 660 478 699 b 313 603 356 699 313 660 m 339 856 b 417 778 339 810 371 778 b 494 856 463 778 494 810 b 417 925 494 896 463 925 b 339 856 371 925 339 896 "},"⁹":{"ha":833,"x_min":0,"x_max":0,"o":"m 322 572 b 404 515 335 536 365 515 b 522 678 467 515 511 576 b 403 619 496 642 456 619 b 233 813 308 619 233 697 b 421 1008 233 932 314 1008 b 610 753 546 1008 610 890 b 406 432 610 557 529 432 b 235 564 328 432 258 481 l 322 572 m 326 813 b 417 703 326 749 358 703 b 511 813 468 703 510 749 b 418 925 513 878 472 925 b 326 813 361 925 326 878 "}," ":{"ha":833,"x_min":0,"x_max":0,"o":""},"。":{"ha":833,"x_min":0,"x_max":0,"o":"m 418 -158 b 232 25 315 -158 232 -76 b 418 211 232 128 315 211 b 601 25 519 211 601 128 b 418 -158 601 -76 519 -158 m 338 25 b 418 -54 338 -18 375 -54 b 496 25 461 -54 496 -18 b 418 107 496 68 461 107 b 338 25 375 107 338 68 "},".":{"ha":833,"x_min":0,"x_max":0,"o":"m 504 171 l 504 0 l 329 0 l 329 171 "},",":{"ha":833,"x_min":0,"x_max":0,"o":"m 403 -222 l 328 -222 l 401 0 l 329 0 l 329 171 l 504 171 l 504 0 "},":":{"ha":833,"x_min":0,"x_max":0,"o":"m 504 171 l 504 0 l 329 0 l 329 171 m 329 647 l 504 647 l 504 476 l 329 476 "},";":{"ha":833,"x_min":0,"x_max":0,"o":"m 507 647 l 507 476 l 332 476 l 332 647 m 406 0 l 333 0 l 333 171 l 508 171 l 508 0 l 407 -222 l 332 -222 "},"…":{"ha":833,"x_min":0,"x_max":0,"o":"m 242 171 l 242 0 l 67 0 l 67 171 m 328 171 l 503 171 l 503 0 l 328 0 m 592 171 l 767 171 l 767 0 l 592 0 "},"!":{"ha":833,"x_min":0,"x_max":0,"o":"m 485 986 l 485 674 b 461 296 485 547 468 421 l 372 296 b 349 674 365 421 349 547 l 349 986 m 329 171 l 504 171 l 504 0 l 329 0 "},"¡":{"ha":833,"x_min":0,"x_max":0,"o":"m 349 88 b 372 465 349 214 365 340 l 461 465 b 485 88 468 340 485 214 l 485 -225 l 349 -225 l 349 88 m 329 761 l 504 761 l 504 590 l 329 590 "},"?":{"ha":833,"x_min":0,"x_max":0,"o":"m 336 296 b 454 556 336 397 365 483 b 594 729 531 615 594 644 b 411 879 596 817 522 879 b 217 686 307 879 232 804 l 74 694 b 406 1008 92 881 225 1008 b 738 729 601 1008 738 894 b 567 481 738 636 685 560 b 467 296 494 433 467 371 l 336 296 m 314 171 l 489 171 l 489 0 l 314 0 "},"¿":{"ha":833,"x_min":0,"x_max":0,"o":"m 493 488 b 375 228 493 386 464 300 b 235 54 299 168 235 139 b 418 -96 233 -33 307 -96 b 613 97 522 -96 597 -21 l 756 89 b 424 -225 738 -97 604 -225 b 92 54 228 -225 92 -111 b 263 303 92 147 144 224 b 363 488 335 350 363 413 l 493 488 m 340 783 l 515 783 l 515 613 l 340 613 "},"·":{"ha":833,"x_min":0,"x_max":0,"o":"m 504 496 l 504 325 l 329 325 l 329 496 "},"•":{"ha":833,"x_min":0,"x_max":0,"o":"m 417 232 b 261 388 331 232 261 301 b 417 540 261 474 331 540 b 572 388 503 540 572 474 b 417 232 572 301 503 232 "},"*":{"ha":833,"x_min":0,"x_max":0,"o":"m 718 658 l 501 660 l 608 476 l 521 428 l 417 608 l 313 428 l 225 479 l 332 660 l 115 658 l 115 760 l 332 758 l 225 939 l 314 989 l 417 804 l 519 989 l 608 938 l 501 758 l 718 760 "},"〃":{"ha":833,"x_min":0,"x_max":0,"o":"m 311 390 l 214 390 l 300 668 l 438 668 m 482 668 l 621 668 l 494 390 l 396 390 "},"#":{"ha":833,"x_min":0,"x_max":0,"o":"m 178 265 l 65 265 l 82 378 l 197 378 l 238 610 l 119 610 l 136 722 l 257 722 l 303 985 l 419 986 l 374 722 l 549 722 l 594 985 l 710 986 l 664 722 l 767 722 l 750 610 l 644 610 l 604 378 l 713 378 l 696 265 l 583 265 l 538 0 l 424 0 l 469 265 l 293 265 l 247 0 l 132 0 m 489 378 l 529 610 l 354 610 l 314 378 "},"/":{"ha":833,"x_min":0,"x_max":0,"o":"m 554 1060 l 689 1060 l 278 -125 l 143 -125 "},"\\":{"ha":833,"x_min":0,"x_max":0,"o":"m 556 -125 l 144 1060 l 279 1060 l 690 -125 "},"＆":{"ha":833,"x_min":0,"x_max":0,"o":"m 382 1007 b 132 779 253 1018 132 924 b 225 546 132 708 161 628 b 36 264 115 464 36 411 b 388 -17 38 83 178 -17 b 617 58 478 -17 563 11 l 663 0 l 821 0 l 701 149 b 789 432 754 215 789 324 l 653 444 b 615 254 657 376 646 296 l 410 517 b 588 726 504 578 565 653 b 382 1007 629 868 519 993 m 175 263 b 306 444 174 347 247 406 l 529 160 b 382 106 501 126 446 106 b 175 263 258 107 176 167 m 268 771 b 374 876 267 831 314 881 b 464 771 429 872 464 829 b 332 615 464 713 413 653 b 268 771 288 676 268 728 "},"＊":{"ha":833,"x_min":0,"x_max":0,"o":"m 718 658 l 501 660 l 608 476 l 521 428 l 417 608 l 313 428 l 225 479 l 332 660 l 115 658 l 115 760 l 332 758 l 225 939 l 314 989 l 417 804 l 519 989 l 608 938 l 501 758 l 718 760 "},"＠":{"ha":833,"x_min":0,"x_max":0,"o":"m 614 682 l 589 361 b 621 207 582 260 590 207 b 697 451 668 207 690 279 b 464 879 707 708 613 879 b 136 417 282 879 146 688 b 554 57 122 51 319 -75 l 599 -42 b 26 417 311 -215 10 -25 b 467 986 38 751 222 986 b 807 458 679 986 817 772 b 492 224 793 53 522 47 b 354 113 465 157 410 113 b 197 403 243 113 176 233 b 407 694 215 574 303 694 b 504 635 453 694 489 671 l 508 682 m 313 407 b 382 206 301 288 329 206 b 483 407 433 206 472 288 b 418 611 496 528 472 611 b 313 407 367 611 325 528 "},"＼":{"ha":833,"x_min":0,"x_max":0,"o":"m 556 -125 l 144 1060 l 279 1060 l 690 -125 "},"：":{"ha":833,"x_min":0,"x_max":0,"o":"m 504 171 l 504 0 l 329 0 l 329 171 m 329 647 l 504 647 l 504 476 l 329 476 "},"，":{"ha":833,"x_min":0,"x_max":0,"o":"m 403 -222 l 328 -222 l 401 0 l 329 0 l 329 171 l 504 171 l 504 0 "},"！":{"ha":833,"x_min":0,"x_max":0,"o":"m 485 986 l 485 674 b 461 296 485 547 468 421 l 372 296 b 349 674 365 421 349 547 l 349 986 m 329 171 l 504 171 l 504 0 l 329 0 "},"＃":{"ha":833,"x_min":0,"x_max":0,"o":"m 169 265 l 57 265 l 74 378 l 189 378 l 229 610 l 111 610 l 128 722 l 249 722 l 294 985 l 411 986 l 365 722 l 540 722 l 586 985 l 701 986 l 656 722 l 758 722 l 742 610 l 636 610 l 596 378 l 704 378 l 688 265 l 575 265 l 529 0 l 415 0 l 461 265 l 285 265 l 239 0 l 124 0 m 481 378 l 521 610 l 346 610 l 306 378 "},"％":{"ha":833,"x_min":0,"x_max":0,"o":"m 714 1008 l 128 -17 l -14 -17 l 574 1008 m -42 747 b 132 988 -42 883 21 988 b 307 747 243 988 307 883 b 132 508 307 613 243 508 b -42 747 21 508 -42 613 m 68 747 b 132 615 68 661 92 615 b 197 747 174 615 197 661 b 132 879 197 833 174 879 b 68 747 92 879 68 833 m 413 240 b 588 479 413 375 476 479 b 761 240 697 479 761 375 b 588 0 761 104 697 0 b 413 240 476 0 413 104 m 524 240 b 588 108 524 154 546 108 b 653 240 628 108 653 154 b 588 372 653 326 628 372 b 524 240 546 372 524 326 "},"．":{"ha":833,"x_min":0,"x_max":0,"o":"m 504 163 l 504 -8 l 329 -8 l 329 163 "},"？":{"ha":833,"x_min":0,"x_max":0,"o":"m 347 296 b 465 556 347 397 376 483 b 606 729 542 615 606 644 b 422 879 607 817 533 879 b 228 686 318 879 243 804 l 85 694 b 417 1008 103 881 236 1008 b 749 729 613 1008 749 894 b 578 481 749 636 696 560 b 478 296 506 433 478 371 l 347 296 m 325 171 l 500 171 l 500 0 l 325 0 "},"＂":{"ha":833,"x_min":0,"x_max":0,"o":"m 835 986 l 835 874 l 803 529 l 710 529 l 703 986 m 460 986 l 590 986 l 585 529 l 492 529 l 460 874 "},"＇":{"ha":833,"x_min":0,"x_max":0,"o":"m 483 986 l 483 876 l 465 529 l 372 529 l 353 876 l 353 986 "},"；":{"ha":833,"x_min":0,"x_max":0,"o":"m 507 647 l 507 476 l 332 476 l 332 647 m 406 0 l 333 0 l 333 171 l 508 171 l 508 0 l 407 -222 l 332 -222 "},"／":{"ha":833,"x_min":0,"x_max":0,"o":"m 554 1060 l 689 1060 l 278 -125 l 143 -125 "},"＿":{"ha":833,"x_min":0,"x_max":0,"o":"m 746 -58 l 746 -181 l 88 -181 l 88 -58 "},"-":{"ha":833,"x_min":0,"x_max":0,"o":"m 649 499 l 649 375 l 185 375 l 185 499 "},"­":{"ha":833,"x_min":0,"x_max":0,"o":"m 649 500 l 649 376 l 185 376 l 185 500 "},"–":{"ha":833,"x_min":0,"x_max":0,"o":"m 724 481 l 724 358 l 110 358 l 110 481 "},"—":{"ha":833,"x_min":0,"x_max":0,"o":"m 778 481 l 778 358 l 56 358 l 56 481 "},"_":{"ha":833,"x_min":0,"x_max":0,"o":"m 746 -58 l 746 -181 l 88 -181 l 88 -58 "},"〜":{"ha":833,"x_min":0,"x_max":0,"o":"m 419 529 b 250 589 356 569 299 589 b 8 433 156 589 58 531 l 96 346 b 250 461 142 419 196 461 b 414 397 292 461 346 440 b 583 338 478 357 535 338 b 825 493 678 338 776 396 l 738 581 b 583 465 692 507 638 465 b 419 529 542 465 488 486 "},"－":{"ha":833,"x_min":0,"x_max":0,"o":"m 803 481 l 803 358 l 31 358 l 31 481 "},"(":{"ha":833,"x_min":0,"x_max":0,"o":"m 626 1069 b 626 -125 324 699 324 246 l 511 -125 b 511 1069 175 235 175 710 l 626 1069 "},")":{"ha":833,"x_min":0,"x_max":0,"o":"m 322 1069 b 322 -125 658 710 658 235 l 207 -125 b 207 1069 510 246 510 699 l 322 1069 "},"{":{"ha":833,"x_min":0,"x_max":0,"o":"m 129 531 b 347 707 290 528 347 576 l 347 818 b 613 1069 347 967 454 1069 l 686 1069 l 686 947 b 475 818 532 953 475 914 l 475 699 b 299 468 475 575 401 485 l 299 464 b 475 231 404 446 475 356 l 475 111 b 686 -18 475 15 532 -22 l 686 -140 l 613 -140 b 347 110 454 -140 347 -39 l 347 222 b 129 399 347 353 290 401 l 129 531 "},"}":{"ha":833,"x_min":0,"x_max":0,"o":"m 704 399 b 486 222 543 401 486 353 l 486 110 b 221 -140 486 -39 379 -140 l 147 -140 l 147 -18 b 358 111 301 -22 358 15 l 358 231 b 535 464 358 356 429 446 l 535 468 b 358 699 432 485 358 575 l 358 818 b 147 947 358 914 301 953 l 147 1069 l 221 1069 b 486 818 379 1069 486 967 l 486 707 b 704 531 486 576 543 528 l 704 399 "},"[":{"ha":833,"x_min":0,"x_max":0,"o":"m 646 1069 l 646 947 l 358 947 l 358 -3 l 646 -3 l 646 -125 l 229 -125 l 229 1069 "},"]":{"ha":833,"x_min":0,"x_max":0,"o":"m 604 -125 l 188 -125 l 188 -3 l 475 -3 l 475 947 l 188 947 l 188 1069 l 604 1069 "},"〈":{"ha":833,"x_min":0,"x_max":0,"o":"m 608 1140 l 360 492 l 608 -158 l 482 -158 l 235 492 l 482 1140 "},"〉":{"ha":833,"x_min":0,"x_max":0,"o":"m 599 492 l 351 -158 l 225 -158 l 474 492 l 225 1140 l 351 1140 "},"【":{"ha":833,"x_min":0,"x_max":0,"o":"m 638 1146 b 638 -87 392 749 392 311 l 253 -87 l 253 1146 l 638 1146 "},"】":{"ha":833,"x_min":0,"x_max":0,"o":"m 581 -87 l 196 -87 b 196 1146 442 311 442 749 l 581 1146 "},"｛":{"ha":833,"x_min":0,"x_max":0,"o":"m 129 531 b 347 707 290 528 347 576 l 347 818 b 613 1069 347 967 454 1069 l 686 1069 l 686 947 b 475 818 532 953 475 914 l 475 699 b 299 468 475 575 401 485 l 299 464 b 475 231 404 446 475 356 l 475 111 b 686 -18 475 15 532 -22 l 686 -140 l 613 -140 b 347 110 454 -140 347 -39 l 347 222 b 129 399 347 353 290 401 l 129 531 "},"｝":{"ha":833,"x_min":0,"x_max":0,"o":"m 704 399 b 486 222 543 401 486 353 l 486 110 b 221 -140 486 -39 379 -140 l 147 -140 l 147 -18 b 358 111 301 -22 358 15 l 358 231 b 535 464 358 356 429 446 l 535 468 b 358 699 432 485 358 575 l 358 818 b 147 947 358 914 301 953 l 147 1069 l 221 1069 b 486 818 379 1069 486 967 l 486 707 b 704 531 486 576 543 528 l 704 399 "},"「":{"ha":833,"x_min":0,"x_max":0,"o":"m 236 1147 l 658 1147 l 658 1031 l 357 1031 l 357 326 l 236 326 "},"」":{"ha":833,"x_min":0,"x_max":0,"o":"m 597 -143 l 175 -143 l 175 -26 l 476 -26 l 476 678 l 597 678 "},"《":{"ha":833,"x_min":0,"x_max":0,"o":"m 479 1140 l 231 492 l 479 -158 l 353 -158 l 106 492 l 353 1140 m 601 1140 l 728 1140 l 479 492 l 728 -158 l 601 -158 l 354 492 "},"》":{"ha":833,"x_min":0,"x_max":0,"o":"m 728 492 l 481 -158 l 354 -158 l 603 492 l 354 1140 l 481 1140 m 354 492 l 106 1140 l 232 1140 l 479 492 l 232 -158 l 106 -158 "},"〔":{"ha":833,"x_min":0,"x_max":0,"o":"m 665 1096 l 361 824 l 361 158 l 668 -118 l 590 -203 l 242 111 l 242 871 l 588 1181 "},"〕":{"ha":833,"x_min":0,"x_max":0,"o":"m 592 871 l 592 111 l 243 -203 l 165 -118 l 472 158 l 472 824 l 168 1096 l 246 1181 "},"『":{"ha":833,"x_min":0,"x_max":0,"o":"m 236 1147 l 657 1147 l 657 925 l 458 925 l 458 324 l 236 324 m 401 381 l 401 982 l 600 982 l 600 1090 l 293 1090 l 293 381 "},"』":{"ha":833,"x_min":0,"x_max":0,"o":"m 597 -140 l 176 -140 l 176 82 l 375 82 l 375 683 l 597 683 m 540 -83 l 540 626 l 432 626 l 432 25 l 233 25 l 233 -83 "},"〖":{"ha":833,"x_min":0,"x_max":0,"o":"m 638 1146 b 638 -87 390 749 390 311 l 253 -87 l 253 1146 l 638 1146 m 529 -26 b 529 1085 343 344 343 717 l 317 1085 l 317 -26 "},"〗":{"ha":833,"x_min":0,"x_max":0,"o":"m 581 -87 l 196 -87 b 196 1146 443 311 443 749 l 581 1146 m 517 -26 l 517 1085 l 304 1085 b 304 -26 490 717 490 344 "},"［":{"ha":833,"x_min":0,"x_max":0,"o":"m 654 1069 l 654 947 l 367 947 l 367 -3 l 654 -3 l 654 -125 l 238 -125 l 238 1069 "},"］":{"ha":833,"x_min":0,"x_max":0,"o":"m 615 -125 l 199 -125 l 199 -3 l 486 -3 l 486 947 l 199 947 l 199 1069 l 615 1069 "},"（":{"ha":833,"x_min":0,"x_max":0,"o":"m 626 1069 b 626 -125 324 699 324 246 l 511 -125 b 511 1069 175 235 175 710 l 626 1069 "},"）":{"ha":833,"x_min":0,"x_max":0,"o":"m 335 1069 b 335 -125 671 710 671 235 l 219 -125 b 219 1069 522 246 522 699 l 335 1069 "},"‚":{"ha":833,"x_min":0,"x_max":0,"o":"m 411 -222 l 336 -222 l 410 0 l 338 0 l 338 171 l 513 171 l 513 0 "},"„":{"ha":833,"x_min":0,"x_max":0,"o":"m 285 -222 l 210 -222 l 283 0 l 211 0 l 211 171 l 386 171 l 386 0 m 522 0 l 450 0 l 450 171 l 625 171 l 625 0 l 524 -222 l 449 -222 "},"“":{"ha":833,"x_min":0,"x_max":0,"o":"m 549 986 l 624 986 l 550 764 l 622 764 l 622 593 l 447 593 l 447 764 m 208 764 l 310 986 l 385 986 l 311 764 l 383 764 l 383 593 l 208 593 "},"”":{"ha":833,"x_min":0,"x_max":0,"o":"m 285 593 l 210 593 l 283 815 l 211 815 l 211 986 l 386 986 l 386 815 m 522 815 l 450 815 l 450 986 l 625 986 l 625 815 l 524 593 l 449 593 "},"‘":{"ha":833,"x_min":0,"x_max":0,"o":"m 421 986 l 496 986 l 422 764 l 494 764 l 494 593 l 319 593 l 319 764 "},"’":{"ha":833,"x_min":0,"x_max":0,"o":"m 411 593 l 336 593 l 410 815 l 338 815 l 338 986 l 513 986 l 513 815 "},"«":{"ha":833,"x_min":0,"x_max":0,"o":"m 450 661 l 214 383 l 450 106 l 292 106 l 96 339 l 96 428 l 292 661 m 383 428 l 579 661 l 738 661 l 501 383 l 738 106 l 579 106 l 383 339 "},"»":{"ha":833,"x_min":0,"x_max":0,"o":"m 738 428 l 738 339 l 542 106 l 383 106 l 619 383 l 383 661 l 542 661 m 332 383 l 96 661 l 254 661 l 450 428 l 450 339 l 254 106 l 96 106 "},"‹":{"ha":833,"x_min":0,"x_max":0,"o":"m 615 661 l 379 383 l 615 106 l 457 106 l 261 339 l 261 428 l 457 661 "},"›":{"ha":833,"x_min":0,"x_max":0,"o":"m 572 428 l 572 339 l 376 106 l 218 106 l 454 383 l 218 661 l 376 661 "},"\"":{"ha":833,"x_min":0,"x_max":0,"o":"m 604 986 l 604 874 l 572 529 l 479 529 l 472 986 m 229 986 l 360 986 l 354 529 l 261 529 l 229 874 "},"'":{"ha":833,"x_min":0,"x_max":0,"o":"m 482 986 l 482 876 l 464 529 l 371 529 l 351 876 l 351 986 "},"ƒ":{"ha":833,"x_min":0,"x_max":0,"o":"m 72 115 l 213 115 b 297 194 261 115 292 143 l 343 611 l 172 611 l 172 729 l 357 729 l 364 796 b 578 986 378 919 451 986 l 728 986 l 728 871 l 579 871 b 493 793 529 871 499 843 l 486 729 l 728 729 l 728 611 l 472 611 l 425 189 b 211 -1 411 65 338 -3 l 72 0 "},"฿":{"ha":833,"x_min":0,"x_max":0,"o":"m 450 1118 l 450 983 b 733 713 633 964 733 869 b 549 510 733 606 660 526 b 775 279 689 494 775 410 b 450 0 775 110 653 6 l 450 -126 l 343 -126 l 343 0 l 103 0 l 103 986 l 343 986 l 343 1118 m 343 129 l 343 438 l 240 438 l 240 129 m 343 565 l 343 857 l 240 857 l 240 565 m 450 129 b 632 283 564 135 632 190 b 450 438 632 376 568 432 l 450 129 m 450 571 b 590 710 542 586 590 633 b 450 851 590 786 542 836 l 450 571 "},"@":{"ha":833,"x_min":0,"x_max":0,"o":"m 614 682 l 589 361 b 621 207 582 260 590 207 b 697 451 668 207 690 279 b 464 879 707 708 613 879 b 136 417 282 879 146 688 b 554 57 122 51 319 -75 l 599 -42 b 26 417 311 -215 10 -25 b 467 986 38 751 222 986 b 807 458 679 986 817 772 b 492 224 793 53 522 47 b 354 113 465 157 410 113 b 197 403 243 113 176 233 b 407 694 215 574 303 694 b 504 635 453 694 489 671 l 508 682 m 313 407 b 382 206 301 288 329 206 b 483 407 433 206 472 288 b 418 611 496 528 472 611 b 313 407 367 611 325 528 "},"&":{"ha":833,"x_min":0,"x_max":0,"o":"m 382 1007 b 132 779 253 1018 132 924 b 225 546 132 708 161 628 b 36 264 115 464 36 411 b 388 -17 38 83 178 -17 b 617 58 478 -17 563 11 l 663 0 l 821 0 l 701 149 b 789 432 754 215 789 324 l 653 444 b 615 254 657 376 646 296 l 410 517 b 588 726 504 578 565 653 b 382 1007 629 868 519 993 m 175 263 b 306 444 174 347 247 406 l 529 160 b 382 106 501 126 446 106 b 175 263 258 107 176 167 m 268 771 b 374 876 267 831 314 881 b 464 771 429 872 464 829 b 332 615 464 713 413 653 b 268 771 288 676 268 728 "},"¶":{"ha":833,"x_min":0,"x_max":0,"o":"m 713 0 l 594 0 l 594 881 l 497 881 l 497 0 l 378 0 l 378 426 b 54 706 179 431 54 538 b 392 986 54 878 185 986 l 713 986 "},"§":{"ha":833,"x_min":0,"x_max":0,"o":"m 585 700 b 410 824 571 778 508 824 b 272 733 331 824 271 788 b 446 622 272 681 311 656 b 726 385 651 572 726 510 b 617 233 726 317 689 265 b 722 63 699 190 722 132 b 431 -146 722 -75 582 -146 b 107 106 260 -146 121 -43 l 247 114 b 431 -22 260 29 332 -22 b 583 71 522 -22 583 14 b 408 189 583 122 535 158 b 129 396 214 233 133 290 b 253 576 128 469 164 535 b 132 726 174 613 132 661 b 424 947 132 868 263 947 b 722 708 549 947 701 860 l 585 700 m 268 411 b 432 303 268 358 310 315 b 586 394 525 303 586 338 b 406 500 586 474 478 500 b 268 411 326 500 268 464 "},"©":{"ha":833,"x_min":0,"x_max":0,"o":"m 415 -17 b 6 496 172 -17 6 193 b 415 1008 6 799 172 1008 b 826 496 658 1008 826 799 b 415 -17 826 193 658 -17 m 106 496 b 415 85 106 243 225 85 b 726 496 606 85 726 243 b 415 907 726 750 606 907 b 106 496 225 907 106 750 m 185 494 b 424 810 185 686 279 810 b 643 599 533 810 629 729 l 542 592 b 424 708 531 668 486 708 b 286 494 331 708 286 631 b 424 282 286 360 331 282 b 546 410 488 282 533 325 l 647 403 b 424 181 631 265 538 181 b 185 494 279 181 185 303 "},"®":{"ha":833,"x_min":0,"x_max":0,"o":"m 407 843 b 563 726 503 843 563 799 b 483 622 563 675 533 636 l 576 469 l 490 469 l 408 611 l 356 611 l 356 469 l 279 469 l 279 843 l 407 843 m 67 658 b 417 1008 67 851 222 1008 b 767 658 611 1008 767 851 b 417 306 767 464 611 306 b 67 658 222 306 67 464 m 150 658 b 417 390 150 511 271 390 b 683 658 563 390 683 511 b 417 924 683 804 563 924 b 150 658 271 924 150 804 m 414 675 b 486 728 460 675 486 694 b 414 778 486 760 460 778 l 356 778 l 356 675 "},"℗":{"ha":833,"x_min":0,"x_max":0,"o":"m 426 843 b 583 726 522 843 583 799 b 429 611 583 653 528 611 l 376 611 l 376 469 l 300 469 l 300 843 l 426 843 m 67 658 b 417 1008 67 851 222 1008 b 767 658 611 1008 767 851 b 417 306 767 464 611 306 b 67 658 222 306 67 464 m 150 658 b 417 390 150 511 271 390 b 683 658 563 390 683 511 b 417 924 683 804 563 924 b 150 658 271 924 150 804 m 435 675 b 507 728 479 675 507 694 b 435 778 507 760 479 778 l 375 778 l 375 675 "},"™":{"ha":833,"x_min":0,"x_max":0,"o":"m 332 986 l 332 904 l 219 904 l 219 499 l 132 499 l 132 904 l 21 904 l 21 986 m 372 986 l 471 986 l 589 619 l 707 986 l 804 986 l 804 499 l 717 499 l 717 744 l 635 499 l 542 499 l 460 747 l 460 499 l 372 499 "},"°":{"ha":833,"x_min":0,"x_max":0,"o":"m 417 529 b 200 746 299 529 200 626 b 417 963 200 864 299 963 b 633 746 535 963 633 864 b 417 529 633 626 535 529 m 311 746 b 417 639 311 688 358 639 b 522 746 475 639 522 688 b 417 853 522 804 475 853 b 311 746 358 853 311 804 "},"′":{"ha":833,"x_min":0,"x_max":0,"o":"m 403 568 l 303 568 l 390 1026 l 529 1026 "},"″":{"ha":833,"x_min":0,"x_max":0,"o":"m 288 568 l 188 568 l 275 1026 l 414 1026 m 508 1026 l 647 1026 l 521 568 l 421 568 "},"|":{"ha":833,"x_min":0,"x_max":0,"o":"m 482 1069 l 482 -125 l 351 -125 l 351 1069 "},"¦":{"ha":833,"x_min":0,"x_max":0,"o":"m 479 986 l 479 493 l 354 493 l 354 986 m 354 285 l 479 285 l 479 -208 l 354 -208 "},"†":{"ha":833,"x_min":0,"x_max":0,"o":"m 481 986 l 481 735 l 694 735 l 694 618 l 481 618 l 481 0 l 356 0 l 356 618 l 139 618 l 139 735 l 356 735 l 356 986 "},"‡":{"ha":833,"x_min":0,"x_max":0,"o":"m 478 986 l 478 735 l 694 735 l 694 618 l 478 618 l 478 142 l 696 142 l 696 24 l 478 24 l 478 -208 l 353 -208 l 353 24 l 139 24 l 139 142 l 353 142 l 353 618 l 138 618 l 138 735 l 353 735 l 353 986 "},"№":{"ha":833,"x_min":0,"x_max":0,"o":"m 167 986 l 326 326 l 326 986 l 450 986 l 450 0 l 293 0 l 131 665 l 131 0 l 7 0 l 7 986 m 492 442 b 660 681 492 589 563 681 b 829 442 757 681 829 589 b 660 201 829 296 757 201 b 492 442 563 201 492 296 m 514 117 l 807 117 l 807 0 l 514 0 m 603 442 b 660 310 603 360 626 310 b 719 442 694 310 719 360 b 660 574 719 524 694 574 b 603 442 626 574 603 524 "},"␣":{"ha":833,"x_min":0,"x_max":0,"o":"m 167 0 l 167 -151 l 667 -151 l 667 0 l 782 0 l 782 -265 l 51 -265 l 51 0 "},"␌":{"ha":833,"x_min":0,"x_max":0,"o":"m 744 557 l 744 486 l 532 486 l 532 358 l 732 358 l 732 288 l 532 288 l 532 99 l 461 99 l 461 557 m 110 875 l 393 875 l 393 804 l 182 804 l 182 676 l 381 676 l 381 606 l 182 606 l 182 417 l 110 417 "},"⌧":{"ha":833,"x_min":0,"x_max":0,"o":"m 814 986 l 814 0 l 19 0 l 19 986 m 713 101 l 713 885 l 121 885 l 121 101 m 292 697 l 418 572 l 542 696 l 621 617 l 497 493 l 622 367 l 542 286 l 417 413 l 292 288 l 213 367 l 338 492 l 211 617 "},"⌫":{"ha":833,"x_min":0,"x_max":0,"o":"m 822 986 l 822 0 l 219 0 l 6 490 l 219 986 m 288 101 l 721 101 l 721 885 l 288 885 l 117 492 m 331 694 l 453 571 l 575 693 l 653 614 l 532 493 l 654 369 l 575 289 l 451 413 l 331 290 l 251 369 l 374 492 l 250 614 "},"⌦":{"ha":833,"x_min":0,"x_max":0,"o":"m 828 490 l 614 0 l 11 0 l 11 986 l 614 986 m 546 101 l 717 492 l 546 885 l 113 885 l 113 101 m 301 493 l 181 614 l 258 693 l 381 571 l 503 694 l 583 614 l 461 492 l 582 369 l 503 290 l 382 413 l 258 289 l 179 369 "},"⏎":{"ha":833,"x_min":0,"x_max":0,"o":"m 710 363 l 710 869 l 608 869 l 608 464 l 326 464 l 326 592 l 157 413 l 326 235 l 326 363 m 415 846 l 415 579 l 494 579 l 494 986 l 825 986 l 825 249 l 415 249 l 415 -21 l 6 414 "},"␋":{"ha":833,"x_min":0,"x_max":0,"o":"m 761 486 l 631 486 l 631 99 l 557 99 l 557 486 l 426 486 l 426 557 l 761 557 m 149 875 l 250 531 l 351 875 l 428 875 l 288 417 l 213 417 l 72 875 "},"¢":{"ha":833,"x_min":0,"x_max":0,"o":"m 610 479 b 493 619 599 550 551 600 l 449 107 b 615 268 531 113 600 172 l 756 260 b 438 -17 732 92 597 -15 l 428 -126 l 322 -126 l 333 -3 b 94 368 185 39 94 175 b 399 751 94 588 213 735 l 410 874 l 515 874 l 504 746 b 749 488 629 721 732 625 l 610 479 m 233 368 b 344 128 233 249 274 164 l 388 624 b 233 368 289 603 233 510 "},"¤":{"ha":833,"x_min":0,"x_max":0,"o":"m 415 131 b 257 179 357 131 301 149 l 150 74 l 76 147 l 182 254 b 133 413 151 299 133 354 b 183 572 133 472 151 526 l 76 679 l 150 753 l 257 646 b 415 694 303 676 357 694 b 574 646 474 694 529 676 l 682 753 l 756 679 l 649 571 b 697 413 679 526 697 471 b 649 254 697 354 679 300 l 756 147 l 682 74 l 575 181 b 415 131 529 149 475 131 m 249 413 b 415 246 249 321 324 246 b 582 413 506 246 582 321 b 415 579 582 504 506 579 b 249 413 324 579 249 504 "},"$":{"ha":833,"x_min":0,"x_max":0,"o":"m 207 328 b 368 126 226 228 282 154 l 368 456 b 88 731 174 510 88 597 b 368 1007 88 890 204 994 l 368 1118 l 475 1118 l 475 1003 b 760 692 633 974 742 853 l 618 683 b 475 867 607 774 551 842 l 475 554 b 776 267 642 507 776 414 b 475 -15 776 93 635 -6 l 475 -126 l 368 -126 l 368 -10 b 67 318 200 18 81 142 l 207 328 m 228 729 b 368 586 229 651 290 613 l 368 876 b 228 729 288 865 226 810 m 475 113 b 636 256 569 119 638 168 b 475 422 636 331 585 381 l 475 113 "},"€":{"ha":833,"x_min":0,"x_max":0,"o":"m 76 644 b 450 1008 115 872 246 1008 b 797 674 626 1008 757 883 l 653 665 b 449 879 622 807 547 879 b 221 644 329 879 250 796 l 525 644 l 510 539 l 208 539 b 207 492 207 524 207 508 b 208 431 207 471 207 450 l 497 431 l 482 325 l 224 325 b 449 107 256 183 332 107 b 661 340 557 107 633 185 l 804 333 b 450 -22 769 113 638 -22 b 79 325 251 -22 121 108 l 13 325 l 13 431 l 65 431 b 64 492 64 450 64 471 b 65 539 64 508 64 524 l 13 539 l 13 644 "},"₴":{"ha":833,"x_min":0,"x_max":0,"o":"m 29 435 l 804 435 l 804 328 l 231 328 b 207 261 215 307 207 283 b 399 113 206 175 285 113 b 615 251 499 113 582 168 l 765 240 b 404 -17 726 85 589 -17 b 67 261 203 -17 67 97 b 81 328 67 283 71 308 l 29 328 m 29 646 l 588 646 b 618 725 610 668 618 693 b 429 879 621 814 543 879 b 231 726 340 879 269 822 l 85 739 b 413 1008 124 901 250 1008 b 760 726 626 1008 760 899 b 736 646 760 700 751 669 l 804 646 l 804 539 l 29 539 "},"₽":{"ha":833,"x_min":0,"x_max":0,"o":"m 456 986 b 803 682 671 986 803 869 b 456 374 803 492 671 374 l 285 374 l 285 267 l 406 267 l 406 160 l 285 160 l 285 0 l 147 0 l 147 160 l 43 160 l 43 267 l 147 267 l 147 986 l 456 986 m 449 503 b 660 682 589 503 660 565 b 449 857 660 796 589 857 l 285 857 l 285 503 "},"₹":{"ha":833,"x_min":0,"x_max":0,"o":"m 49 379 l 49 508 l 319 508 b 522 628 433 508 501 550 l 49 628 l 49 736 l 524 736 b 319 857 504 817 436 857 l 49 857 l 49 986 l 783 986 l 783 881 l 606 881 b 669 736 639 842 661 793 l 783 736 l 783 628 l 668 628 b 325 379 643 472 517 379 l 232 379 l 653 0 l 465 0 "},"₪":{"ha":833,"x_min":0,"x_max":0,"o":"m 379 986 b 586 778 506 986 586 906 l 586 215 l 463 215 l 463 781 b 378 867 463 833 429 867 l 153 867 l 153 0 l 28 0 l 28 986 l 379 986 m 246 771 l 369 771 l 369 119 l 596 119 b 681 206 649 119 681 153 l 681 986 l 806 986 l 806 208 b 597 0 806 81 725 0 l 246 0 "},"£":{"ha":833,"x_min":0,"x_max":0,"o":"m 454 1008 b 778 765 650 1008 756 890 l 624 756 b 460 879 603 832 538 879 b 296 713 371 879 294 810 b 335 543 297 669 314 615 l 574 543 l 574 433 l 354 433 b 188 133 364 310 311 189 l 763 133 l 763 4 l 61 0 l 61 133 b 218 386 163 190 217 275 b 217 433 218 400 217 417 l 60 433 l 60 543 l 196 543 l 186 572 b 154 735 167 632 154 688 b 454 1008 154 892 286 1008 "},"¥":{"ha":833,"x_min":0,"x_max":0,"o":"m 214 986 l 418 558 l 621 986 l 775 986 l 538 506 l 711 506 l 711 393 l 486 393 l 486 306 l 711 306 l 711 193 l 486 193 l 486 0 l 350 0 l 350 193 l 125 193 l 125 306 l 350 306 l 350 393 l 125 393 l 125 506 l 299 506 l 60 986 "},"+":{"ha":833,"x_min":0,"x_max":0,"o":"m 356 485 l 356 754 l 478 754 l 478 485 l 747 485 l 747 363 l 478 363 l 478 93 l 356 93 l 356 363 l 86 363 l 86 485 "},"−":{"ha":833,"x_min":0,"x_max":0,"o":"m 747 514 l 747 392 l 86 392 l 86 514 "},"×":{"ha":833,"x_min":0,"x_max":0,"o":"m 447 472 l 638 663 l 724 576 l 533 386 l 724 196 l 638 108 l 447 300 l 256 108 l 169 196 l 360 386 l 169 576 l 256 663 "},"÷":{"ha":833,"x_min":0,"x_max":0,"o":"m 747 514 l 747 392 l 86 392 l 86 514 m 326 190 b 417 279 326 240 367 279 b 507 190 467 279 507 240 b 417 100 507 140 467 100 b 326 190 367 100 326 140 m 326 728 b 417 817 326 778 367 817 b 507 728 467 817 507 778 b 417 638 507 678 467 638 b 326 728 367 638 326 678 "},"=":{"ha":833,"x_min":0,"x_max":0,"o":"m 724 638 l 724 515 l 110 515 l 110 638 m 110 325 l 724 325 l 724 203 l 110 203 "},"≠":{"ha":833,"x_min":0,"x_max":0,"o":"m 588 771 l 547 638 l 724 638 l 724 515 l 510 515 l 451 325 l 724 325 l 724 203 l 415 203 l 371 58 l 247 58 l 292 203 l 110 203 l 110 325 l 328 325 l 386 515 l 110 515 l 110 638 l 424 638 l 464 771 "},">":{"ha":833,"x_min":0,"x_max":0,"o":"m 735 513 l 735 344 l 100 67 l 100 201 l 618 429 l 100 656 l 100 790 "},"<":{"ha":833,"x_min":0,"x_max":0,"o":"m 733 656 l 215 429 l 733 201 l 733 67 l 99 344 l 99 513 l 733 790 "},"≥":{"ha":833,"x_min":0,"x_max":0,"o":"m 747 122 l 747 0 l 86 0 l 86 122 m 86 381 l 615 517 l 86 651 l 86 781 l 747 601 l 747 432 l 86 253 "},"≤":{"ha":833,"x_min":0,"x_max":0,"o":"m 747 0 l 86 0 l 86 122 l 747 122 m 86 601 l 747 781 l 747 651 l 218 517 l 747 381 l 747 253 l 86 432 "},"±":{"ha":833,"x_min":0,"x_max":0,"o":"m 746 165 l 746 43 l 74 43 l 74 165 m 74 575 l 349 575 l 349 750 l 471 750 l 471 575 l 746 575 l 746 453 l 471 453 l 471 278 l 349 278 l 349 453 l 74 453 "},"≈":{"ha":833,"x_min":0,"x_max":0,"o":"m 110 432 b 294 678 110 578 181 678 b 436 606 364 678 403 643 b 532 533 465 568 488 533 b 603 665 581 533 603 586 l 724 665 b 539 421 724 521 654 421 b 392 500 464 421 426 460 b 301 565 364 535 343 565 b 231 432 253 565 231 513 l 110 432 m 110 129 b 294 374 110 274 181 374 b 422 319 354 374 392 350 b 532 229 460 276 481 229 b 603 363 581 229 603 283 l 724 363 b 539 117 724 218 654 117 b 388 201 460 117 422 160 b 301 261 361 235 339 261 b 231 129 253 261 231 210 l 110 129 "},"~":{"ha":833,"x_min":0,"x_max":0,"o":"m 528 449 b 603 600 575 449 603 507 l 732 600 b 529 328 732 479 681 328 b 304 476 372 328 386 476 b 229 325 257 476 229 418 l 100 325 b 303 597 100 446 151 597 b 528 449 449 597 443 449 "},"¬":{"ha":833,"x_min":0,"x_max":0,"o":"m 668 482 l 668 132 l 551 132 l 551 365 l 125 365 l 125 482 "},"^":{"ha":833,"x_min":0,"x_max":0,"o":"m 417 863 l 282 460 l 151 460 l 335 986 l 499 986 l 682 460 l 551 460 "},"∞":{"ha":833,"x_min":0,"x_max":0,"o":"m 363 376 b 214 478 326 435 267 476 b 128 376 163 478 128 436 b 214 275 128 317 163 275 b 363 376 267 275 326 317 m 10 376 b 210 597 10 499 94 597 b 417 460 288 597 371 546 b 626 596 464 546 546 596 b 822 376 739 597 822 499 b 626 156 822 254 739 156 b 417 293 550 156 461 203 b 210 156 371 203 285 156 b 10 376 94 156 10 254 m 469 376 b 621 275 508 315 568 274 b 704 376 669 276 704 318 b 621 476 704 433 669 475 b 469 376 568 478 510 436 "},"∫":{"ha":833,"x_min":0,"x_max":0,"o":"m 153 -87 l 224 -90 b 307 -12 272 -92 301 -62 l 396 796 b 613 986 410 919 486 989 l 690 985 l 679 865 l 611 868 b 525 790 561 871 531 840 l 436 -18 b 219 -208 422 -142 347 -211 l 142 -207 "},"∆":{"ha":833,"x_min":0,"x_max":0,"o":"m 333 986 l 501 986 l 814 189 l 814 0 l 19 0 l 19 189 m 713 121 l 417 869 l 122 121 "},"∏":{"ha":833,"x_min":0,"x_max":0,"o":"m 813 864 l 668 864 l 668 -208 l 542 -208 l 542 864 l 297 864 l 297 -208 l 171 -208 l 171 864 l 21 864 l 21 986 l 813 986 "},"∑":{"ha":833,"x_min":0,"x_max":0,"o":"m 761 986 l 761 857 l 250 857 l 492 493 l 250 129 l 761 129 l 761 0 l 93 0 l 93 131 l 336 493 l 93 856 l 93 986 "},"√":{"ha":833,"x_min":0,"x_max":0,"o":"m 814 868 l 529 868 l 322 -208 l 160 -208 l 21 467 l 147 467 l 239 14 l 425 986 l 814 986 "},"∂":{"ha":833,"x_min":0,"x_max":0,"o":"m 419 658 b 622 522 511 650 583 601 b 240 922 615 749 474 901 l 275 1046 b 606 65 882 979 814 251 b 368 -17 531 0 453 -25 b 54 346 167 0 36 149 b 419 658 71 556 215 676 m 196 336 b 369 106 181 204 254 118 b 604 367 496 94 592 204 b 410 533 588 467 508 525 b 196 336 293 544 204 463 "},"µ":{"ha":833,"x_min":0,"x_max":0,"o":"m 585 0 l 585 115 b 403 -17 551 32 482 -17 b 263 69 339 -17 285 15 l 263 -208 l 129 -208 l 129 736 l 263 736 l 263 297 b 403 96 263 164 308 96 b 578 297 513 96 578 174 l 578 736 l 711 736 l 711 0 "},"%":{"ha":833,"x_min":0,"x_max":0,"o":"m 771 1008 l 185 -17 l 43 -17 l 631 1008 m 15 747 b 189 988 15 883 78 988 b 364 747 300 988 364 883 b 189 508 364 613 300 508 b 15 747 78 508 15 613 m 125 747 b 189 615 125 661 149 615 b 254 747 231 615 254 661 b 189 879 254 833 231 879 b 125 747 149 879 125 833 m 469 240 b 644 479 469 375 533 479 b 818 240 754 479 818 375 b 644 0 818 104 754 0 b 469 240 533 0 469 104 m 581 240 b 644 108 581 154 603 108 b 710 240 685 108 710 154 b 644 372 710 326 685 372 b 581 240 603 372 581 326 "},"‰":{"ha":833,"x_min":0,"x_max":0,"o":"m 654 1008 l 131 -17 l 6 -17 l 529 1008 m 15 769 b 172 988 15 892 72 988 b 331 769 274 988 331 892 b 172 551 331 647 274 551 b 15 769 72 551 15 647 m 115 769 b 172 650 115 692 135 650 b 232 769 210 650 232 692 b 172 889 232 849 210 889 b 115 769 135 889 115 849 m 325 217 b 474 436 325 340 382 436 b 578 372 518 436 554 413 b 681 436 601 413 636 436 b 829 217 772 436 829 340 b 681 0 829 94 772 0 b 578 64 636 0 601 24 b 474 0 554 24 518 0 b 325 217 382 0 325 94 m 424 217 b 482 97 424 139 444 97 b 540 217 519 97 540 139 b 482 338 540 296 519 338 b 424 217 444 338 424 296 m 615 217 b 672 97 615 139 633 97 b 732 217 708 97 732 139 b 672 338 732 296 708 338 b 615 217 633 338 615 296 "},"↑":{"ha":833,"x_min":0,"x_max":0,"o":"m 792 589 l 792 424 l 478 736 l 478 25 l 356 25 l 356 739 l 42 425 l 42 590 l 417 964 "},"↗":{"ha":833,"x_min":0,"x_max":0,"o":"m 742 456 l 625 339 l 624 781 l 121 278 l 35 365 l 539 869 l 96 869 l 213 986 l 742 986 "},"→":{"ha":833,"x_min":0,"x_max":0,"o":"m 464 76 l 297 75 l 596 375 l 22 375 l 22 499 l 597 499 l 299 799 l 464 799 l 824 438 "},"↘":{"ha":833,"x_min":0,"x_max":0,"o":"m 226 0 l 108 117 l 551 118 l 49 621 l 136 707 l 640 201 l 640 646 l 757 529 l 756 0 "},"↓":{"ha":833,"x_min":0,"x_max":0,"o":"m 42 399 l 42 564 l 356 250 l 356 964 l 478 964 l 478 253 l 792 565 l 792 400 l 417 25 "},"↙":{"ha":833,"x_min":0,"x_max":0,"o":"m 76 529 l 193 646 l 193 201 l 697 707 l 785 621 l 282 118 l 725 117 l 607 0 l 78 0 "},"←":{"ha":833,"x_min":0,"x_max":0,"o":"m 369 799 l 535 799 l 236 499 l 811 499 l 811 375 l 238 375 l 536 75 l 369 76 l 10 438 "},"↖":{"ha":833,"x_min":0,"x_max":0,"o":"m 621 986 l 738 869 l 294 869 l 799 365 l 713 278 l 210 781 l 208 339 l 92 456 l 92 986 "},"↝":{"ha":833,"x_min":0,"x_max":0,"o":"m 25 422 b 321 613 51 576 211 675 b 406 469 388 572 399 519 b 453 365 411 426 415 386 b 581 446 494 342 539 374 l 469 511 l 774 653 l 804 315 l 686 385 b 401 258 611 260 497 203 b 318 386 346 292 326 336 b 269 506 307 436 310 482 b 151 422 228 529 175 496 l 25 422 "},"⇤":{"ha":833,"x_min":0,"x_max":0,"o":"m 454 667 l 454 496 l 806 496 l 806 374 l 456 374 l 456 203 l 175 435 m 28 706 l 140 706 l 140 164 l 28 164 "},"⇥":{"ha":833,"x_min":0,"x_max":0,"o":"m 378 203 l 378 374 l 28 374 l 28 496 l 379 496 l 379 667 l 658 435 m 693 706 l 806 706 l 806 164 l 693 164 "},"↩":{"ha":833,"x_min":0,"x_max":0,"o":"m 244 335 l 415 163 l 254 163 l 21 396 l 251 628 l 414 628 l 243 457 l 500 457 b 688 632 606 457 688 535 b 500 808 688 731 606 808 l 90 808 l 90 931 l 500 931 b 813 632 675 931 813 800 b 500 335 813 464 675 335 "},"↪":{"ha":833,"x_min":0,"x_max":0,"o":"m 333 335 b 21 632 158 335 21 464 b 333 931 21 800 158 931 l 743 931 l 743 808 l 333 808 b 146 632 228 808 146 731 b 333 457 146 535 228 457 l 590 457 l 419 628 l 582 628 l 813 396 l 579 163 l 418 163 l 589 335 l 333 335 "},"↰":{"ha":833,"x_min":0,"x_max":0,"o":"m 310 856 l 310 679 l 794 679 l 794 0 l 671 0 l 671 557 l 311 557 l 311 381 l 25 618 "},"↱":{"ha":833,"x_min":0,"x_max":0,"o":"m 522 381 l 522 557 l 163 557 l 163 0 l 39 0 l 39 679 l 524 679 l 524 856 l 808 618 "},"↳":{"ha":833,"x_min":0,"x_max":0,"o":"m 524 131 l 524 307 l 39 307 l 39 986 l 163 986 l 163 429 l 522 429 l 522 606 l 808 368 "},"↴":{"ha":833,"x_min":0,"x_max":0,"o":"m 357 279 l 528 279 l 528 863 l 19 863 l 19 985 l 651 985 l 651 278 l 821 278 l 589 0 "},"↵":{"ha":833,"x_min":0,"x_max":0,"o":"m 311 606 l 311 429 l 671 429 l 671 986 l 794 986 l 794 307 l 310 307 l 310 131 l 25 368 "},"⇧":{"ha":833,"x_min":0,"x_max":0,"o":"m 601 624 l 418 826 l 233 624 l 308 624 l 308 122 l 528 122 l 528 624 m 418 993 l 831 550 l 651 550 l 651 0 l 185 0 l 185 550 l 3 550 "},"●":{"ha":833,"x_min":0,"x_max":0,"o":"m 418 110 b 22 494 194 110 22 271 b 418 882 22 721 194 882 b 813 494 640 882 813 721 b 418 110 813 271 640 110 "},"○":{"ha":833,"x_min":0,"x_max":0,"o":"m 418 110 b 22 494 194 110 22 272 b 418 882 22 719 194 882 b 813 494 640 882 813 719 b 418 110 813 272 640 110 m 143 494 b 418 226 143 338 263 226 b 692 494 572 226 692 338 b 418 765 692 654 572 765 b 143 494 263 765 143 654 "},"◌":{"ha":833,"x_min":0,"x_max":0,"o":"m 414 92 b 506 101 446 92 478 96 l 490 182 b 414 176 467 178 440 176 l 414 92 m 3 497 b 13 406 3 464 6 435 l 94 422 b 86 497 89 447 86 471 l 3 497 m 92 553 b 111 624 96 576 101 601 l 33 654 b 8 565 21 626 14 597 m 33 340 b 79 257 46 310 60 283 l 146 307 b 110 372 132 326 121 347 l 33 340 m 135 672 b 181 728 147 692 164 711 l 124 789 b 64 717 100 767 82 744 m 124 207 b 199 149 146 185 171 165 l 242 222 b 182 265 221 233 199 250 l 124 207 m 222 763 b 289 796 244 776 265 788 l 260 874 b 176 832 229 863 203 850 m 260 119 b 349 97 289 110 318 101 l 361 181 b 290 197 338 183 311 190 l 260 119 m 340 813 b 417 819 365 817 390 819 l 415 904 b 325 894 383 903 354 900 m 472 815 b 544 797 496 811 522 806 l 574 874 b 485 899 544 886 517 894 l 472 815 m 572 121 b 654 163 601 132 628 144 l 608 232 b 542 197 588 218 567 208 m 593 774 b 651 729 615 761 635 746 l 711 789 b 636 846 688 811 663 829 l 593 774 m 708 204 b 768 278 731 226 751 251 l 697 322 b 650 267 685 303 668 283 m 686 688 b 724 622 701 667 713 646 l 799 654 b 756 736 788 685 772 713 l 686 688 m 799 339 b 824 429 811 368 818 397 l 742 442 b 722 371 738 418 731 392 m 738 572 b 746 497 743 547 746 522 l 829 497 b 819 589 829 529 826 558 l 738 572 "},"◊":{"ha":833,"x_min":0,"x_max":0,"o":"m 499 894 l 733 447 l 499 0 l 333 0 l 99 447 l 333 894 m 417 104 l 597 447 l 417 790 l 235 447 "},"▲":{"ha":833,"x_min":0,"x_max":0,"o":"m 11 0 l 821 0 l 415 701 "},"▶":{"ha":833,"x_min":0,"x_max":0,"o":"m -75 901 l -75 92 l 626 497 "},"▼":{"ha":833,"x_min":0,"x_max":0,"o":"m 821 986 l 11 986 l 415 285 "},"◀":{"ha":833,"x_min":0,"x_max":0,"o":"m 908 92 l 908 901 l 207 497 "},"△":{"ha":833,"x_min":0,"x_max":0,"o":"m 415 614 l 625 250 l 207 250 m 821 136 l 415 838 l 11 136 "},"▷":{"ha":833,"x_min":0,"x_max":0,"o":"m 539 497 l 175 288 l 175 706 m 763 497 l 61 901 l 61 92 "},"▽":{"ha":833,"x_min":0,"x_max":0,"o":"m 625 747 l 415 383 l 207 747 m 415 160 l 821 861 l 11 861 "},"◁":{"ha":833,"x_min":0,"x_max":0,"o":"m 658 288 l 294 497 l 658 706 m 772 92 l 772 901 l 71 497 "},"┌":{"ha":833,"x_min":0,"x_max":0,"o":"m 833 569 l 833 436 l 483 436 l 483 -343 l 350 -343 l 350 569 "},"─":{"ha":833,"x_min":0,"x_max":0,"o":"m 833 569 l 833 436 l -56 436 l -56 569 "},"│":{"ha":833,"x_min":0,"x_max":0,"o":"m 483 1406 l 483 -343 l 350 -343 l 350 1406 "},"̈":{"ha":0,"x_min":0,"x_max":0,"o":"m 126 985 l 126 840 l -19 840 l -19 985 m 246 985 l 392 985 l 392 840 l 246 840 "},"̇":{"ha":0,"x_min":0,"x_max":0,"o":"m 146 985 l 146 840 l 0 840 l 0 985 "},"̀":{"ha":0,"x_min":0,"x_max":0,"o":"m 139 1054 l 226 846 l 118 846 l 0 1054 "},"́":{"ha":0,"x_min":0,"x_max":0,"o":"m 108 846 l 0 846 l 88 1054 l 226 1054 "},"̋":{"ha":0,"x_min":0,"x_max":0,"o":"m 135 846 l 26 846 l 114 1054 l 253 1054 m 317 1054 l 456 1054 l 338 846 l 229 846 "},"̂":{"ha":0,"x_min":0,"x_max":0,"o":"m 203 951 l 128 846 l 0 846 l 119 1013 l 286 1013 l 407 846 l 278 846 "},"̌":{"ha":0,"x_min":0,"x_max":0,"o":"m 407 1013 l 286 846 l 119 846 l 0 1013 l 128 1013 l 203 907 l 278 1013 "},"̆":{"ha":0,"x_min":0,"x_max":0,"o":"m 101 1025 b 203 936 101 975 146 936 b 307 1025 261 936 306 975 l 406 1025 b 203 847 404 925 317 847 b 1 1025 90 847 3 925 l 101 1025 "},"̊":{"ha":0,"x_min":0,"x_max":0,"o":"m 133 813 b -11 956 53 813 -11 875 b 133 1100 -11 1035 53 1100 b 276 956 214 1100 276 1035 b 133 813 276 875 214 813 m 76 956 b 133 900 76 925 101 900 b 189 956 165 900 189 925 b 133 1013 189 988 165 1013 b 76 956 101 1013 76 988 "},"̃":{"ha":0,"x_min":0,"x_max":0,"o":"m 150 935 b 96 846 115 935 96 907 l 1 846 b 142 1029 3 960 57 1029 b 242 992 190 1029 218 1015 b 322 938 271 965 286 938 b 376 1028 358 938 376 968 l 471 1028 b 329 843 469 917 415 843 b 222 890 275 843 246 865 b 150 935 199 913 181 935 "},"̄":{"ha":0,"x_min":0,"x_max":0,"o":"m 367 964 l 367 867 l 4 867 l 4 964 "},"̒":{"ha":0,"x_min":0,"x_max":0,"o":"m -226 1242 l -151 1242 l -225 1019 l -153 1019 l -153 849 l -328 849 l -328 1019 "},"̦":{"ha":0,"x_min":0,"x_max":0,"o":"m 108 -292 l 0 -292 l 88 -83 l 226 -83 "},"̧":{"ha":0,"x_min":0,"x_max":0,"o":"m 156 14 l 236 14 l 178 -49 b 313 -178 256 -49 313 -103 b 171 -312 313 -254 249 -312 b 0 -215 103 -312 56 -281 l 65 -156 b 164 -225 85 -181 117 -225 b 226 -168 201 -225 226 -203 b 125 -119 226 -125 179 -106 l 83 -65 "},"̨":{"ha":0,"x_min":0,"x_max":0,"o":"m 147 -57 b 104 -147 128 -85 104 -119 b 150 -194 104 -174 124 -194 b 236 -165 175 -194 207 -179 l 236 -261 b 125 -300 203 -289 163 -300 b 0 -181 57 -299 0 -249 b 54 -54 0 -136 17 -93 l 103 0 l 188 0 l 147 -57 "},"̵":{"ha":0,"x_min":0,"x_max":0,"o":"m 854 450 l 854 342 l 276 342 l 276 450 "},"¨":{"ha":833,"x_min":0,"x_max":0,"o":"m 356 985 l 356 840 l 210 840 l 210 985 m 475 985 l 621 985 l 621 840 l 475 840 "},"˙":{"ha":833,"x_min":0,"x_max":0,"o":"m 489 985 l 489 840 l 343 840 l 343 985 "},"`":{"ha":833,"x_min":0,"x_max":0,"o":"m 440 1054 l 528 846 l 419 846 l 301 1054 "},"´":{"ha":833,"x_min":0,"x_max":0,"o":"m 411 846 l 303 846 l 390 1054 l 529 1054 "},"˝":{"ha":833,"x_min":0,"x_max":0,"o":"m 310 846 l 201 846 l 289 1054 l 428 1054 m 493 1054 l 632 1054 l 514 846 l 406 846 "},"ˆ":{"ha":833,"x_min":0,"x_max":0,"o":"m 415 951 l 340 846 l 213 846 l 332 1013 l 499 1013 l 619 846 l 490 846 "},"ˇ":{"ha":833,"x_min":0,"x_max":0,"o":"m 619 1013 l 499 846 l 332 846 l 213 1013 l 340 1013 l 415 907 l 490 1013 "},"˘":{"ha":833,"x_min":0,"x_max":0,"o":"m 101 1025 b 203 936 101 975 146 936 b 307 1025 261 936 306 975 l 406 1025 b 203 847 404 925 317 847 b 1 1025 90 847 3 925 l 101 1025 "},"˚":{"ha":833,"x_min":0,"x_max":0,"o":"m 133 813 b -11 956 53 813 -11 875 b 133 1100 -11 1035 53 1100 b 276 956 214 1100 276 1035 b 133 813 276 875 214 813 m 76 956 b 133 900 76 925 101 900 b 189 956 165 900 189 925 b 133 1013 189 988 165 1013 b 76 956 101 1013 76 988 "},"˜":{"ha":833,"x_min":0,"x_max":0,"o":"m 150 935 b 96 846 115 935 96 907 l 1 846 b 142 1029 3 960 57 1029 b 242 992 190 1029 218 1015 b 322 938 271 965 286 938 b 376 1028 358 938 376 968 l 471 1028 b 329 843 469 917 415 843 b 222 890 275 843 246 865 b 150 935 199 913 181 935 "},"¯":{"ha":833,"x_min":0,"x_max":0,"o":"m 367 964 l 367 867 l 4 867 l 4 964 "},"¸":{"ha":833,"x_min":0,"x_max":0,"o":"m 156 14 l 236 14 l 178 -49 b 313 -178 256 -49 313 -103 b 171 -312 313 -254 249 -312 b 0 -215 103 -312 56 -281 l 65 -156 b 164 -225 85 -181 117 -225 b 226 -168 201 -225 226 -203 b 125 -119 226 -125 179 -106 l 83 -65 "},"˛":{"ha":833,"x_min":0,"x_max":0,"o":"m 147 -57 b 104 -147 128 -85 104 -119 b 150 -194 104 -174 124 -194 b 236 -165 175 -194 207 -179 l 236 -261 b 125 -300 203 -289 163 -300 b 0 -181 57 -299 0 -249 b 54 -54 0 -136 17 -93 l 103 0 l 188 0 l 147 -57 "},"ʼ":{"ha":833,"x_min":0,"x_max":0,"o":"m 411 593 l 336 593 l 410 815 l 338 815 l 338 986 l 513 986 l 513 815 "},"ʹ":{"ha":833,"x_min":0,"x_max":0,"o":"m 411 846 l 303 846 l 390 1054 l 529 1054 "},"ˈ":{"ha":833,"x_min":0,"x_max":0,"o":"m 482 986 l 482 876 l 464 593 l 371 593 l 351 876 l 351 986 "}}}
